<?xml version="1.0" encoding="UTF-8" standalone="no"?>
<svg
   width="24"
   height="24"
   viewBox="0 0 24 24"
   fill="none"
   stroke="currentColor"
   stroke-width="2"
   stroke-linecap="round"
   stroke-linejoin="round"
   class="lucide lucide-hand"
   version="1.1"
   id="svg4"
   sodipodi:docname="hand.svg"
   inkscape:version="1.3.2 (091e20ef0f, 2023-11-25, custom)"
   xmlns:inkscape="http://www.inkscape.org/namespaces/inkscape"
   xmlns:sodipodi="http://sodipodi.sourceforge.net/DTD/sodipodi-0.dtd"
   xmlns="http://www.w3.org/2000/svg"
   xmlns:svg="http://www.w3.org/2000/svg">
  <defs
     id="defs4" />
  <sodipodi:namedview
     id="namedview4"
     pagecolor="#ffffff"
     bordercolor="#000000"
     borderopacity="0.25"
     inkscape:showpageshadow="2"
     inkscape:pageopacity="0.0"
     inkscape:pagecheckerboard="0"
     inkscape:deskcolor="#d1d1d1"
     inkscape:zoom="34.083333"
     inkscape:cx="12"
     inkscape:cy="12"
     inkscape:window-width="1920"
     inkscape:window-height="1022"
     inkscape:window-x="0"
     inkscape:window-y="0"
     inkscape:window-maximized="1"
     inkscape:current-layer="svg4" />
  <path
     d="M18 11V6a2 2 0 0 0-2-2a2 2 0 0 0-2 2"
     id="path1"
     style="stroke:#ffffff;stroke-opacity:1" />
  <path
     d="M14 10V4a2 2 0 0 0-2-2a2 2 0 0 0-2 2v2"
     id="path2"
     style="stroke:#ffffff;stroke-opacity:1" />
  <path
     d="M10 10.5V6a2 2 0 0 0-2-2a2 2 0 0 0-2 2v8"
     id="path3"
     style="stroke:#ffffff;stroke-opacity:1" />
  <path
     d="M18 8a2 2 0 1 1 4 0v6a8 8 0 0 1-8 8h-2c-2.8 0-4.5-.86-5.99-2.34l-3.6-3.6a2 2 0 0 1 2.83-2.82L7 15"
     id="path4"
     style="stroke:#ffffff;stroke-opacity:1" />
</svg>
