<?xml version="1.0" encoding="UTF-8" standalone="no"?>
<svg
   width="24"
   height="24"
   viewBox="0 0 24 24"
   fill="none"
   stroke="currentColor"
   stroke-width="2"
   stroke-linecap="round"
   stroke-linejoin="round"
   class="lucide lucide-origami"
   version="1.1"
   id="svg3"
   sodipodi:docname="origami.svg"
   inkscape:version="1.3.2 (091e20ef0f, 2023-11-25, custom)"
   xmlns:inkscape="http://www.inkscape.org/namespaces/inkscape"
   xmlns:sodipodi="http://sodipodi.sourceforge.net/DTD/sodipodi-0.dtd"
   xmlns="http://www.w3.org/2000/svg"
   xmlns:svg="http://www.w3.org/2000/svg">
  <defs
     id="defs3" />
  <sodipodi:namedview
     id="namedview3"
     pagecolor="#ffffff"
     bordercolor="#000000"
     borderopacity="0.25"
     inkscape:showpageshadow="2"
     inkscape:pageopacity="0.0"
     inkscape:pagecheckerboard="0"
     inkscape:deskcolor="#d1d1d1"
     inkscape:zoom="34.083333"
     inkscape:cx="12"
     inkscape:cy="12"
     inkscape:window-width="1920"
     inkscape:window-height="1022"
     inkscape:window-x="0"
     inkscape:window-y="0"
     inkscape:window-maximized="1"
     inkscape:current-layer="svg3" />
  <path
     d="M12 12V4a1 1 0 0 1 1-1h6.297a1 1 0 0 1 .651 1.759l-4.696 4.025"
     id="path1"
     style="stroke:#ffffff;stroke-opacity:1" />
  <path
     d="m12 21-7.414-7.414A2 2 0 0 1 4 12.172V6.415a1.002 1.002 0 0 1 1.707-.707L20 20.009"
     id="path2"
     style="stroke:#ffffff;stroke-opacity:1" />
  <path
     d="m12.214 3.381 8.414 14.966a1 1 0 0 1-.167 1.199l-1.168 1.163a1 1 0 0 1-.706.291H6.351a1 1 0 0 1-.625-.219L3.25 18.8a1 1 0 0 1 .631-1.781l4.165.027"
     id="path3"
     style="stroke:#ffffff;stroke-opacity:1" />
</svg>
