<?xml version="1.0" encoding="UTF-8" standalone="no"?>
<!-- Created with Inkscape (http://www.inkscape.org/) -->

<svg
   width="4.0727167mm"
   height="3.9642279mm"
   viewBox="0 0 4.0727167 3.9642281"
   version="1.1"
   id="svg1"
   inkscape:version="1.4.2 (ebf0e940d0, 2025-05-08)"
   sodipodi:docname="InTension.svg"
   xml:space="preserve"
   xmlns:inkscape="http://www.inkscape.org/namespaces/inkscape"
   xmlns:sodipodi="http://sodipodi.sourceforge.net/DTD/sodipodi-0.dtd"
   xmlns="http://www.w3.org/2000/svg"
   xmlns:svg="http://www.w3.org/2000/svg"><sodipodi:namedview
     id="namedview1"
     pagecolor="#404040"
     bordercolor="#000000"
     borderopacity="0.25"
     inkscape:showpageshadow="2"
     inkscape:pageopacity="0.0"
     inkscape:pagecheckerboard="true"
     inkscape:deskcolor="#313131"
     inkscape:document-units="mm"
     inkscape:zoom="5.7325876"
     inkscape:cx="-19.014101"
     inkscape:cy="2.2677368"
     inkscape:window-width="1920"
     inkscape:window-height="1008"
     inkscape:window-x="0"
     inkscape:window-y="0"
     inkscape:window-maximized="1"
     inkscape:current-layer="g62"
     showguides="true"><sodipodi:guide
       position="-2.1819664,2.0667868"
       orientation="0,-1"
       id="guide24"
       inkscape:locked="false" /><sodipodi:guide
       position="0.58960825,4.1031455"
       orientation="0,-1"
       id="guide27"
       inkscape:locked="false" /><sodipodi:guide
       position="-27.805353,7.4272609"
       orientation="0,-1"
       id="guide28"
       inkscape:locked="false" /><sodipodi:guide
       position="-2.4686778,1.7724839"
       orientation="1,0"
       id="guide30"
       inkscape:locked="false" /></sodipodi:namedview><defs
     id="defs1"><rect
       x="871.8587"
       y="2406.4612"
       width="327.37936"
       height="53.751522"
       id="rect587-9-9" /><clipPath
       clipPathUnits="userSpaceOnUse"
       id="clipPath54-4"><path
         d="m 266.473,116.234 h 904.988 V 626.289 H 266.473 Z"
         transform="matrix(1.3333333,0,0,1.3333333,3874.6667,0)"
         id="path54-0" /></clipPath><clipPath
       clipPathUnits="userSpaceOnUse"
       id="clipPath52-9"><path
         d="M 0,0 H 1438 V 729 H 0 Z"
         transform="matrix(1.3333333,0,0,1.3333333,3874.6667,0)"
         id="path52-1" /></clipPath><linearGradient
       x1="0"
       y1="0"
       x2="1"
       y2="0"
       gradientUnits="userSpaceOnUse"
       gradientTransform="matrix(0,-108.26908,108.26908,0,-10885.373,2869.3198)"
       spreadMethod="pad"
       id="linearGradient16000"><stop
         style="stop-color:#fa33fb;stop-opacity:1;"
         offset="0"
         id="stop15998" /><stop
         style="stop-color:#f42752;stop-opacity:1;"
         offset="0.89477801"
         id="stop15999" /><stop
         style="stop-color:#f42752;stop-opacity:1;"
         offset="1"
         id="stop16000" /></linearGradient><linearGradient
       x1="0"
       y1="0"
       x2="1"
       y2="0"
       gradientUnits="userSpaceOnUse"
       gradientTransform="matrix(284.606,284.606,284.606,-284.606,-316.4568,-227.1588)"
       spreadMethod="pad"
       id="linearGradient16003"><stop
         style="stop-color:#fa33fb;stop-opacity:1;"
         offset="0"
         id="stop16001" /><stop
         style="stop-color:#f42752;stop-opacity:1;"
         offset="0.89477801"
         id="stop16002" /><stop
         style="stop-color:#f42752;stop-opacity:1;"
         offset="1"
         id="stop16003" /></linearGradient><clipPath
       clipPathUnits="userSpaceOnUse"
       id="clipPath16003"><path
         d="M 0,612 H 480 V 0 H 0 Z"
         transform="translate(-414.03601,-466.12881)"
         id="path16003" /></clipPath><clipPath
       clipPathUnits="userSpaceOnUse"
       id="clipPath202-0"><path
         d="M 0,5599.059 H 1919.706 V 0 H 0 Z"
         transform="matrix(1,4.2857145e-5,2.1428573e-5,-1,-840.68323,5209.6091)"
         id="path202-6" /></clipPath><rect
       x="156.8226"
       y="401.68597"
       width="231.84525"
       height="97.467812"
       id="rect3-2" /><rect
       x="156.8226"
       y="401.68597"
       width="257.8045"
       height="98.116798"
       id="rect4-6" /><rect
       x="156.8226"
       y="401.68597"
       width="257.8045"
       height="98.116798"
       id="rect9-1" /><clipPath
       clipPathUnits="userSpaceOnUse"
       id="clipPath202-0-5"><path
         d="M 0,5599.059 H 1919.706 V 0 H 0 Z"
         transform="matrix(1,4.2857145e-5,2.1428573e-5,-1,-840.68323,5209.6091)"
         id="path202-6-9" /></clipPath><rect
       x="156.8226"
       y="401.68597"
       width="231.84525"
       height="97.467812"
       id="rect3-2-2" /><rect
       x="156.8226"
       y="401.68597"
       width="257.8045"
       height="98.116798"
       id="rect4-6-2" /><rect
       x="156.8226"
       y="401.68597"
       width="257.8045"
       height="98.116798"
       id="rect9-1-8" /><clipPath
       clipPathUnits="userSpaceOnUse"
       id="clipPath202-0-5-1"><path
         d="M 0,5599.059 H 1919.706 V 0 H 0 Z"
         transform="matrix(1,4.2857145e-5,2.1428573e-5,-1,-840.68323,5209.6091)"
         id="path202-6-9-0" /></clipPath><clipPath
       clipPathUnits="userSpaceOnUse"
       id="clipPath33"><circle
         style="display:inline;fill:#000000;fill-opacity:1;stroke-width:17.6867"
         id="circle33"
         cx="-10716.672"
         cy="3273.9023"
         r="53.516315" /></clipPath></defs><g
     inkscape:label="Capa 1"
     inkscape:groupmode="layer"
     id="layer1"
     transform="translate(-14.422058,-150.01853)"><g
       id="g62"
       style="display:inline"
       transform="matrix(0.03805117,0,0,0.03805117,424.24032,27.273384)"
       inkscape:export-filename="img/I1.png"
       inkscape:export-xdpi="96.133537"
       inkscape:export-ydpi="96.133537"><g
         id="g2"
         transform="translate(-933.17844,173.89253)" /><path
         style="font-size:85.3333px;font-family:Bigwhale;-inkscape-font-specification:Bigwhale;white-space:pre;display:inline;fill:#d7ff39;fill-opacity:1;stroke-width:0.255438;stroke-opacity:0.358276"
         d="m -11116.919,3320.8512 h -16.639 z"
         id="path8"
         aria-label="-"
         sodipodi:nodetypes="ccc"
         transform="translate(-5.5760747e-4,1.6397035e-4)" /><g
         id="g33"
         clip-path="url(#clipPath33)"><path
           style="font-size:85.3333px;font-family:Bigwhale;-inkscape-font-specification:Bigwhale;white-space:pre;display:inline;fill:#d8fc00;stroke-width:0.334491;stroke-opacity:0.358276"
           d="m -10806.009,3225.7916 h -23.589 v 5.5745 h 7.833 v 38.7681 h 7.923 v -38.7681 h 7.833 z m 25.299,5.5745 v -5.5745 h -17.736 c -3.242,0 -5.853,1.9004 -5.853,4.1808 v 36.0443 c 0,2.2805 2.611,4.1175 5.853,4.1175 h 17.736 v -5.5112 h -15.756 v -11.4657 h 7.653 v -5.5112 h -7.653 v -16.28 z m 18.007,-5.5745 v 11.0856 l -7.923,-11.0856 h -7.833 v 44.3426 h 7.833 v -33.257 l 7.923,11.0857 v 22.1713 h 7.833 v -44.3426 z m 35.294,11.0856 v -5.3211 c 0,-3.1673 -3.602,-5.7645 -8.103,-5.7645 h -7.383 c -4.502,0 -8.103,2.5972 -8.103,5.7645 v 16.4068 h 15.756 v 16.6601 h -7.923 v -5.5745 h -7.833 v 5.3845 c 0,3.1673 3.601,5.7012 8.103,5.7012 h 7.383 c 4.501,0 8.103,-2.5339 8.103,-5.7012 v -21.9813 h -15.756 v -11.0856 h 7.923 v 5.5111 z m 12.064,33.257 v -44.3426 h -7.833 v 44.3426 z m 4.412,-38.5781 v 32.8769 c 0,3.1673 3.601,5.7012 8.103,5.7012 h 7.383 c 4.502,0 8.103,-2.5339 8.103,-5.7012 v -32.8769 c 0,-3.1673 -3.601,-5.7645 -8.103,-5.7645 h -7.383 c -4.502,0 -8.103,2.5972 -8.103,5.7645 z m 15.756,33.0669 h -7.923 v -33.2569 h 7.923 z m 28.001,-38.8314 v 11.0856 l -7.923,-11.0856 h -7.833 v 44.3426 h 7.833 v -33.257 l 7.923,11.0857 v 22.1713 h 7.833 v -44.3426 z"
           id="text3-7"
           aria-label="TENSION"
           sodipodi:nodetypes="cccccccccccssssccccccccccccccccccccccssssccccccsssscccccccccccsssssssssccccccccccccccccc" /><path
           style="font-size:85.3333px;font-family:Bigwhale;-inkscape-font-specification:Bigwhale;white-space:pre;display:inline;fill:#d8fc00;stroke-width:0.33444;stroke-opacity:0.358276"
           d="m -10806.009,3322.2099 h -23.589 v -5.5728 h 7.833 v -38.7562 h 7.923 v 38.7562 h 7.833 z m 25.299,-5.5728 v 5.5728 h -17.736 c -3.242,0 -5.853,-1.8998 -5.853,-4.1796 v -36.0331 c 0,-2.2798 2.611,-4.1163 5.853,-4.1163 h 17.736 v 5.5095 h -15.756 v 11.4622 h 7.653 v 5.5095 h -7.653 v 16.275 z m 18.007,5.5728 v -11.0822 l -7.923,11.0822 h -7.833 v -44.329 h 7.833 v 33.2468 l 7.923,-11.0823 v -22.1645 h 7.833 v 44.329 z m 35.294,-11.0822 v 5.3194 c 0,3.1664 -3.602,5.7628 -8.103,5.7628 h -7.383 c -4.502,0 -8.103,-2.5964 -8.103,-5.7628 v -16.4017 h 15.756 v -16.655 h -7.923 v 5.5728 h -7.833 v -5.3828 c 0,-3.1664 3.601,-5.6995 8.103,-5.6995 h 7.383 c 4.501,0 8.103,2.5331 8.103,5.6995 v 21.9745 h -15.756 v 11.0822 h 7.923 v -5.5094 z m 12.064,-33.2468 v 44.329 h -7.833 v -44.329 z m 4.412,38.5662 v -32.8667 c 0,-3.1664 3.601,-5.6995 8.103,-5.6995 h 7.383 c 4.502,0 8.103,2.5331 8.103,5.6995 v 32.8667 c 0,3.1664 -3.601,5.7628 -8.103,5.7628 h -7.383 c -4.502,0 -8.103,-2.5964 -8.103,-5.7628 z m 15.756,-33.0567 h -7.923 v 33.2467 h 7.923 z m 28.001,38.8195 v -11.0822 l -7.923,11.0822 h -7.833 v -44.329 h 7.833 v 33.2468 l 7.923,-11.0823 v -22.1645 h 7.833 v 44.329 z"
           id="text4-5"
           aria-label="TENSION"
           sodipodi:nodetypes="cccccccccccssssccccccccccccccccccccccssssccccccsssscccccccccccsssssssssccccccccccccccccc" /></g><path
         style="font-size:85.3333px;font-family:Bigwhale;-inkscape-font-specification:Bigwhale;white-space:pre;display:inline;fill:#d7ff39;fill-opacity:1;stroke-width:0.308849;stroke-opacity:0.358276"
         d="m -10690.662,3324.4637 v 5.5094 h -20.117 v -5.5094 z"
         id="path26-8"
         aria-label="-" /></g></g></svg>
