<?xml version="1.0" encoding="UTF-8" standalone="no"?>
<!-- Created with Inkscape (http://www.inkscape.org/) -->

<svg
   width="1920mm"
   height="1080mm"
   viewBox="105 0 1920 1080"
   version="1.1"
   id="svg5"
   inkscape:version="1.4 (e7c3feb100, 2024-10-09)"
   sodipodi:docname="LLAMITA_revectorizada.svg"
   xml:space="preserve"
   xmlns:inkscape="http://www.inkscape.org/namespaces/inkscape"
   xmlns:sodipodi="http://sodipodi.sourceforge.net/DTD/sodipodi-0.dtd"
   xmlns:xlink="http://www.w3.org/1999/xlink"
   xmlns="http://www.w3.org/2000/svg"
   xmlns:svg="http://www.w3.org/2000/svg"><sodipodi:namedview
     id="namedview7"
     pagecolor="#ffffff"
     bordercolor="#000000"
     borderopacity="1"
     inkscape:showpageshadow="0"
     inkscape:pageopacity="0"
     inkscape:pagecheckerboard="true"
     inkscape:deskcolor="#383838"
     inkscape:document-units="mm"
     showgrid="false"
     inkscape:zoom="0.10092222"
     inkscape:cx="3720.6871"
     inkscape:cy="1476.3845"
     inkscape:window-width="1920"
     inkscape:window-height="1006"
     inkscape:window-x="0"
     inkscape:window-y="0"
     inkscape:window-maximized="1"
     inkscape:current-layer="layer1-3"><inkscape:page
       x="0"
       y="0"
       width="1920"
       height="1080"
       id="page5"
       margin="0"
       bleed="0" /></sodipodi:namedview><defs
     id="defs2"><linearGradient
       id="linearGradient23"
       inkscape:collect="always"><stop
         style="stop-color:#fc33fd;stop-opacity:1;"
         offset="0"
         id="stop21" /><stop
         style="stop-color:#f62752;stop-opacity:1;"
         offset="0.75155324"
         id="stop22" /><stop
         style="stop-color:#f62752;stop-opacity:1;"
         offset="1"
         id="stop23" /></linearGradient><linearGradient
       id="linearGradient18"
       inkscape:collect="always"><stop
         style="stop-color:#000000;stop-opacity:1;"
         offset="0"
         id="stop18" /><stop
         style="stop-color:#000000;stop-opacity:0.49803922;"
         offset="0.5"
         id="stop20" /><stop
         style="stop-color:#000000;stop-opacity:0;"
         offset="1"
         id="stop19" /></linearGradient><linearGradient
       id="linearGradient13"
       inkscape:collect="always"><stop
         style="stop-color:#fc33fd;stop-opacity:1;"
         offset="0"
         id="stop13" /><stop
         style="stop-color:#f62752;stop-opacity:1;"
         offset="0.77795827"
         id="stop15" /><stop
         style="stop-color:#f62752;stop-opacity:1;"
         offset="1"
         id="stop14" /></linearGradient><inkscape:path-effect
       effect="clone_original"
       linkeditem=""
       id="path-effect1046"
       is_visible="true"
       lpeversion="1"
       method="bsplinespiro"
       attributes=""
       css_properties=""
       allow_transforms="true" /><inkscape:path-effect
       effect="envelope"
       id="path-effect1045"
       is_visible="true"
       lpeversion="1"
       yy="true"
       xx="true"
       bendpath1="M 850.63595,331.35219 C 884.96708,215.28953 711.40512,149.6252 1014.1953,-31.518452"
       bendpath2="m 1060.629,331.35219 c 185.0056,-88.28889 336.5033,-86.1061 429.9415,72.83692"
       bendpath3="m 850.63595,742.98303 c 126.7821,34.10472 242.04145,197.97242 330.37665,-182.2952"
       bendpath4="m 850.63595,331.35219 c -178.50498,129.3183 -100.81786,356.23359 5.1593,593.92604"
       bendpath1-nodetypes="cc"
       bendpath2-nodetypes="cc"
       bendpath4-nodetypes="cc"
       bendpath3-nodetypes="cc" /><inkscape:path-effect
       effect="envelope"
       id="path-effect1044"
       is_visible="true"
       lpeversion="1"
       yy="true"
       xx="true"
       bendpath1="m 864.7155,256.41309 1065.9416,77.38947"
       bendpath2="m 1211.7949,476.54315 8.5988,122.10337"
       bendpath3="m 658.34357,528.13611 562.05013,70.51041"
       bendpath4="M 845.79807,277.05028 864.7155,598.64652"
       bendpath1-nodetypes="cc"
       bendpath2-nodetypes="cc"
       bendpath3-nodetypes="cc"
       bendpath4-nodetypes="cc" /><inkscape:path-effect
       effect="transform_2pts"
       start="588.85569,180.46616"
       end="710.76983,400.25501"
       id="path-effect1043"
       is_visible="true"
       lpeversion="1"
       first_knot="1"
       last_knot="4"
       helper_size="3"
       stretch="1"
       offset="0"
       elastic="false"
       from_original_width="false"
       flip_vertical="false"
       flip_horizontal="false"
       lock_length="false"
       lock_angle="false" /><inkscape:path-effect
       effect="envelope"
       id="path-effect1042"
       is_visible="true"
       lpeversion="1"
       yy="true"
       xx="true"
       bendpath1="M 588.85569,180.46616 1081.6635,44.815222"
       bendpath2="M 1454.2743,664.6885 1148.6304,513.58364"
       bendpath3="m 588.85569,513.58364 c 186.59157,0 851.32671,-191.25744 559.77471,0"
       bendpath4="M 588.85569,180.46616 V 513.58364"
       bendpath1-nodetypes="cc"
       bendpath2-nodetypes="cc"
       bendpath3-nodetypes="cc" /><inkscape:path-effect
       effect="fill_between_many"
       id="path-effect1041"
       is_visible="true"
       lpeversion="1.2"
       linkedpaths=""
       method="originald"
       join="true"
       close="true"
       autoreverse="true" /><linearGradient
       id="swatch7"
       inkscape:swatch="solid"><stop
         style="stop-color:#ff4747;stop-opacity:1;"
         offset="0"
         id="stop7" /></linearGradient><rect
       x="2515.7563"
       y="1163.7054"
       width="1917.087"
       height="1378.9573"
       id="rect1" /><symbol
       id="sjjb-landuse.svg:swamp"
       viewBox="0 0 242.97472 252.19202"><title
         id="title9">Swamp</title><path
         d="M 101.59749,2.1535336e-4 C 98.570872,-0.08491465 101.08008,25.089215 101.7635,39.771705 c 1.00037,21.39177 -0.39919,30.07654 -0.0371,77.880865 h -0.004 c -3.653778,48.31213 -2.144678,66.90234 5.43164,66.90234 21.83952,0 8.72958,-177.2469496 -5.24805,-184.46679965 -0.1094,-0.05651 -0.21096,-0.08514 -0.30859,-0.0878899936 z M 17.28694,35.955295 c -0.88077,0.68506 13.662652,17.32454 21.156252,38.38086 10.12377,28.446775 18.25195,49.749785 18.25195,84.109385 0,14.36034 4.00354,26.10937 8.89649,26.10937 25.87379,0 -5.35157,-113.67256 -38.8379,-141.38476 -6.41499,-5.30885 -9.122143,-7.48291 -9.466792,-7.21485 z m 175.13867,0 c -0.34465,-0.26806 -3.04985,1.906 -9.46484,7.21485 -33.48633,27.71221 -64.71169,141.384765 -38.83789,141.384765 4.89295,0 8.89453,-11.74903 8.89453,-26.10937 0,-34.3596 8.12818,-55.66261 18.25195,-84.10939 7.4936,-21.05632 22.03702,-37.6958 21.15625,-38.38086 z M 0.30842,107.46897 c -2.18323,-0.21512 7.750324,6.48441 13.244141,21.73438 5.743427,15.9429 7.556637,30.40906 7.556637,39.25976 h 0.002 c 0,8.85072 4.001594,16.0918 8.894534,16.0918 11.32654,0 13.16927,-8.91698 1.3457,-42.83398 -5.23483,-15.01671 -17.209504,-29.1078 -24.207034,-31.79297 -4.033609,-1.54784 -6.108194,-2.38728 -6.835938,-2.45899 z m 209.09571,0 c -0.72775,0.0717 -2.80038,0.91115 -6.83399,2.45899 -6.99753,2.68517 -18.9722,16.77626 -24.20703,31.79297 -11.82358,33.917 -9.9828,42.83398 1.34375,42.83398 4.89294,0 8.89648,-7.24108 8.89648,-16.0918 0,-8.8507 1.81321,-23.31686 7.55665,-39.25976 5.49381,-15.24997 15.42737,-21.9495 13.24414,-21.73438 z m -47.1543,99.4668 c -6.16712,-0.0202 -12.33395,-0.01 -18.49805,0.004 -28.7682,0.42228 -57.648208,0.5111 -86.314448,2.60742 -2.70507,0.43595 -4.05128,4.4504 -1.08984,5.58789 14.32726,3.21782 29.29205,2.53333 43.935538,3.29297 40.22877,0.85238 80.5559,1.2527 120.71094,-1.59961 2.83845,-0.56816 8.41495,-0.6304 7.80664,-4.71094 -1.96973,-3.87654 -7.56793,-2.58301 -11.0957,-3.34765 -18.44898,-1.42874 -36.95374,-1.77337 -55.45508,-1.83399 z m 51.4707,33.24219 c -5.14442,-0.0376 -10.2932,0.0721 -15.4043,0.12695 -11.73052,0.48378 -23.69822,0.3916 -35.19531,2.76367 -2.88537,1.6697 -1.19072,6.25334 2.00391,6.17774 17.49808,4.03041 35.74752,2.75762 53.61133,2.74609 7.66155,-0.34655 15.65865,-0.50284 22.85351,-3.19922 2.85708,-1.90147 0.9129,-6.46745 -2.375,-6.25 -8.35849,-1.8294 -16.92011,-2.30251 -25.49414,-2.36523 z"
         id="path9" /></symbol><symbol
       id="sjjb-tourist.svg:zoo"
       viewBox="0 0 491.08551 372.16675"><title
         id="title44">Zoo</title><path
         d="m 55.954563,283.94129 c 5.645119,1.66467 19.510299,0.264 14.758039,-9.1015 -2.63673,-5.19691 -15.042439,-11.73915 -20.522131,-13.29085 -8.257063,-2.33907 -22.130083,7.81265 -11.528186,14.32262 l -2.305637,6.91691 C 27.47833,278.5461 24.948009,265.56306 25.670826,256.27364 c 0.508278,-6.53302 6.407135,-13.42226 8.744014,-19.59791 6.384079,-16.8715 11.627675,-33.45249 16.593095,-50.72402 1.984808,-6.90423 2.572745,-19.97028 8.575007,-24.52276 5.62403,-4.26658 14.26106,-4.88795 20.5762,-8.03054 4.65508,-2.31716 7.69622,-7.08407 12.70291,-8.6323 10.750038,-3.32358 21.340978,-2.46703 26.497538,-14.1497 10.88722,16.43574 19.97604,31.75093 21.78251,51.87684 1.28424,14.30763 -8.48244,28.97725 -11.7795,42.65429 -2.30449,9.56033 -1.59435,19.29818 -4.10519,28.82047 -3.13221,11.87403 -9.24099,22.84886 -12.22103,34.58456 -1.7984,7.07945 -0.18676,15.1342 -2.39671,21.9024 -3.95532,12.11497 -26.535578,19.35467 -23.850668,34.57994 1.24044,7.03566 9.4439,8.41904 15.278308,9.61336 13.54793,2.77253 28.13223,1.06175 41.50147,-1.03177 4.45219,-0.69746 9.85775,0.1637 13.3335,-3.31205 8.39137,-8.39022 -1.52287,-24.24493 1.19548,-34.08424 1.94711,-7.05179 8.61732,-13.19631 12.10113,-19.59791 7.57402,-13.92144 13.98715,-28.58645 18.32982,-43.80711 h 1.15282 c 0.27667,13.4165 3.51494,30.23151 8.66228,42.65429 3.24979,7.84378 11.6181,19.09759 11.38985,27.66764 -0.39196,14.68691 -22.64482,24.29335 -11.97203,41.47957 10.73736,17.28882 36.11551,-0.1049 49.56083,-3.14719 7.37112,-1.66813 17.25539,0.51531 20.87293,-8.40866 4.99401,-12.31672 -5.14272,-23.99246 -6.84313,-35.68781 -1.94711,-13.38422 0.56719,-26.8503 -1.88486,-40.34865 -1.79378,-9.8785 -9.83469,-21.37326 -9.56493,-31.1261 0.18906,-6.86273 5.06087,-14.98895 6.64254,-21.90356 l 43.80711,20.57205 18.4451,10.55406 c 0.0807,9.79895 -0.18791,21.50698 1.53209,31.1261 0.82196,4.59398 5.13581,9.23523 3.82044,13.98369 -2.56502,9.25252 -25.21214,18.74598 -20.11553,28.54955 2.80135,5.38828 10.53446,7.23394 15.91581,8.61732 13.62863,3.50457 49.33488,8.76949 59.35402,-4.0095 4.4153,-5.63152 4.0487,-15.00163 4.05101,-21.77905 0.007,-17.08247 1.80762,-35.18057 -2.30564,-51.87684 14.83447,9.14762 18.20762,27.53046 25.6433,42.65429 2.5754,5.23841 7.94177,13.54562 6.18602,19.58062 -2.70912,9.30786 -30.47706,23.84145 -17.6289,36.40832 3.56221,3.48497 10.03759,3.74436 14.62005,5.13927 13.25972,4.03486 53.50807,10.61976 59.77595,-6.96303 5.85747,-16.43227 4.36227,-45.44987 0.2859,-62.23491 -2.39902,-9.8785 -7.97174,-18.4474 -8.94587,-28.82047 -0.89574,-9.54418 5.71567,-19.20365 6.4212,-28.82046 0.98104,-13.38769 -3.15757,-25.14413 -3.56913,-38.04302 -0.264,-8.29799 2.52006,-16.84268 2.52006,-25.36201 12.66256,33.56432 -0.59255,69.67751 8.62424,103.75368 1.34188,4.96058 1.86641,33.09281 11.80255,30.25918 3.72591,-1.06174 4.82801,-7.52214 4.07983,-10.66126 -3.26248,-13.69779 -9.17183,-25.80815 -9.2041,-40.34866 -0.0161,-7.23047 3.28783,-14.68229 4.09596,-21.90355 C 490.528,191.72502 497.19244,132.41942 460.5893,101.14922 444.26769,87.205891 426.58806,77.021661 408.71707,65.476871 c -13.98484,-9.0343 -28.29709,-19.58166 -44.95993,-23.17742 -12.22218,-2.63742 -25.62024,1.26038 -38.04301,0.65653 -27.08663,-1.31675 -53.69253,-6.44368 -80.69731,-8.98057 -12.28904,-1.15455 -24.46166,1.21484 -36.89019,-1.12262 C 181.42158,27.830311 161.67034,7.649985 135.49905,1.049753 127.20913,-1.040722 112.84271,0.39183895 104.37295,1.879667 96.374692,3.284838 92.139242,8.887421 85.910552,13.322427 67.822602,26.202871 44.101168,46.857351 34.08571,67.210481 c -6.148212,12.49425 -6.807394,29.19131 -10.751647,42.655199 -5.748992,19.62443 -16.67045,35.9518 -19.903068,56.48811 -3.385483,21.50814 1.800933,44.10108 1.799549,65.71066 -0.001,16.24552 -9.088706,36.11781 -3.304554,51.87684 8.085409,22.02921 51.007267,29.30811 54.028573,0 z"
         id="path45" /></symbol><symbol
       id="sjjb-worship.svg:symbol86"
       viewBox="0 0 576.44501 577.45154"><title
         id="title83">Jewish 2</title><path
         d="M 64.571,0.06355556 C 23.236,0.06355556 0,21.434556 0,65.099556 V 515.22256 c 0,40.844 20.895,62.229 62.192,62.229 h 452.024 c 41.307,0 62.229,-20.315 62.229,-62.229 V 65.099556 c 0,-42.601 -20.922,-65.03600044 -63.521,-65.03600044 -0.004,0 -448.495,-0.143 -448.353,0 z"
         id="path84" /><path
         opacity="0.25"
         d="m 267.47279,504.19009 -36.49173,-63.31462 -71.79642,-0.0329 c -44.74377,-0.0204 -72.711187,-1.51291 -74.224137,-3.96093 -1.335251,-2.16049 13.447237,-31.52805 32.849987,-65.26131 24.05942,-41.82925 34.45967,-63.48338 32.70535,-68.09498 -1.41483,-3.71901 -17.16358,-31.98093 -34.99734,-62.80421 -17.833693,-30.82332 -32.424915,-58.04807 -32.424915,-60.49941 0,-3.22735 20.400655,-4.45848 73.943745,-4.46225 l 73.94373,-0.005 36.39038,-63.37516 c 20.01472,-34.856341 37.61469,-63.375165 39.11107,-63.375165 4.10398,0 14.35107,15.892209 47.67807,73.943745 l 30.32188,52.81694 h 74.01767 c 56.74294,0 73.97846,1.1206 73.84967,4.80156 -0.0924,2.64083 -16.22605,32.40494 -35.85253,66.14245 l -35.68448,61.34089 35.85248,62.11162 c 19.71891,34.16136 35.85253,64.0324 35.85253,66.38006 0,2.98284 -22.29418,4.26852 -74.01767,4.26852 h -74.01767 l -30.32188,52.81694 c -33.16343,57.76665 -43.58776,73.96094 -47.57672,73.91095 -1.44066,-0.0181 -19.04064,-28.52453 -39.11107,-63.34756 z m 53.49531,-37.91961 c 6.49309,-11.34874 11.80563,-21.72006 11.80563,-23.04741 0,-1.32733 -11.2356,-2.41331 -24.96801,-2.41331 -13.73242,0 -24.96801,1.08598 -24.96801,2.41331 0,3.1237 23.18251,43.68148 24.96801,43.68148 0.74622,0 6.66931,-9.28534 13.16238,-20.63407 z M 193.67962,375.55437 c -6.94903,-12.65103 -13.49887,-23.00183 -14.55523,-23.00183 -1.05634,0 -7.60616,10.3508 -14.55519,23.00183 l -12.63458,23.00181 h 27.18977 27.18978 z m 180.71421,-2.92651 c 8.2887,-14.2606 19.95117,-34.72756 25.91665,-45.48215 l 10.84625,-19.55385 -24.88365,-43.8265 -24.88362,-43.82651 h -53.41275 -53.41272 l -24.27547,41.80304 c -13.35152,22.99167 -24.27549,43.6243 -24.27549,45.85022 0,3.98023 39.82628,76.78174 47.1355,86.16254 2.66017,3.41408 18.54073,4.80153 54.95807,4.80153 h 51.21689 z m 76.64836,2.92651 c -6.94903,-12.65103 -13.49885,-23.00183 -14.55519,-23.00183 -1.05636,0 -7.6062,10.3508 -14.55524,23.00183 l -12.63451,23.00181 h 27.18975 27.18977 z m -257.61557,-134.55265 12.3816,-22.98349 h -26.93679 -26.93681 l 12.63458,23.00184 c 6.94903,12.651 13.49885,22.99354 14.55519,22.98343 1.05636,-0.0101 7.49234,-10.3609 14.30223,-23.00178 z m 257.36257,0 12.38162,-22.98349 h -26.9368 -26.93676 l 12.63451,23.00184 c 6.94904,12.651 13.49888,22.99354 14.55524,22.98343 1.05634,-0.0101 7.4923,-10.3609 14.30219,-23.00178 z M 332.77373,173.35134 c 0,-3.12368 -23.18253,-43.68146 -24.96801,-43.68146 -1.7855,0 -24.96801,40.55778 -24.96801,43.68146 0,1.32733 11.23559,2.41332 24.96801,2.41332 13.73241,0 24.96801,-1.08599 24.96801,-2.41332 z"
         fill="#ffffff"
         id="path85" /><path
         d="m 228.45339,465.17069 -36.49173,-63.31462 -71.79642,-0.0329 c -44.743764,-0.0205 -72.711186,-1.51292 -74.224136,-3.96094 -1.335251,-2.16049 13.44724,-31.52805 32.849989,-65.26131 24.059417,-41.82925 34.459667,-63.48338 32.705347,-68.09498 -1.41482,-3.71901 -17.16358,-31.98093 -34.997333,-62.80421 -17.833699,-30.82332 -32.424921,-58.04807 -32.424921,-60.49941 0,-3.22735 20.400658,-4.45848 73.943744,-4.46225 l 73.94373,-0.005 36.39038,-63.375169 c 20.01472,-34.856332 37.61469,-63.375155 39.11107,-63.375155 4.10398,0 14.35108,15.892209 47.67807,73.943738 l 30.32188,52.816946 h 74.01767 c 56.74294,0 73.97846,1.1206 73.84967,4.80156 -0.0924,2.64083 -16.22604,32.40494 -35.85253,66.14245 l -35.68448,61.34089 35.85248,62.11162 c 19.71891,34.16136 35.85253,64.0324 35.85253,66.38006 0,2.98284 -22.29418,4.26852 -74.01767,4.26852 h -74.01767 l -30.32188,52.81694 c -33.16343,57.76665 -43.58776,73.96094 -47.57672,73.91095 -1.44066,-0.0181 -19.04064,-28.52453 -39.11107,-63.34756 z m 53.49531,-37.91961 c 6.4931,-11.34874 11.80564,-21.72006 11.80564,-23.04741 0,-1.32733 -11.23561,-2.41331 -24.96802,-2.41331 -13.73242,0 -24.96801,1.08598 -24.96801,2.41331 0,3.1237 23.18251,43.68148 24.96801,43.68148 0.74622,0 6.66931,-9.28534 13.16238,-20.63407 z M 154.66023,336.53497 c -6.94904,-12.65102 -13.49888,-23.00183 -14.55524,-23.00183 -1.05634,0 -7.60616,10.35081 -14.55519,23.00183 l -12.63458,23.00181 h 27.18977 27.18979 z m 180.7142,-2.92651 c 8.2887,-14.2606 19.95117,-34.72756 25.91665,-45.48215 l 10.84625,-19.55385 -24.88365,-43.8265 -24.88362,-43.82651 h -53.41275 -53.41272 l -24.27547,41.80305 c -13.35152,22.99166 -24.27549,43.62429 -24.27549,45.85021 0,3.98023 39.82628,76.78174 47.13551,86.16254 2.66016,3.41408 18.54072,4.80153 54.95806,4.80153 h 51.21689 z m 76.64836,2.92651 c -6.94903,-12.65102 -13.49885,-23.00183 -14.55519,-23.00183 -1.05636,0 -7.6062,10.35081 -14.55523,23.00183 l -12.63452,23.00181 h 27.18975 27.18977 z m -257.61557,-134.55265 12.3816,-22.98349 h -26.93679 -26.93681 l 12.63458,23.00184 c 6.94903,12.651 13.49885,22.99354 14.55519,22.98343 1.05636,-0.0101 7.49234,-10.3609 14.30223,-23.00178 z m 257.36257,0 12.38162,-22.98349 h -26.9368 -26.93676 l 12.63452,23.00184 c 6.94903,12.651 13.49887,22.99354 14.55523,22.98343 1.05634,-0.0101 7.4923,-10.3609 14.30219,-23.00178 z M 293.75434,134.33194 c 0,-3.12368 -23.18254,-43.681462 -24.96802,-43.681462 -1.7855,0 -24.96801,40.557782 -24.96801,43.681462 0,1.32733 11.23559,2.41332 24.96801,2.41332 13.73241,0 24.96802,-1.08599 24.96802,-2.41332 z"
         fill="#ffffff"
         id="path86" /></symbol><symbol
       id="sjjb-worship.svg:symbol80"
       viewBox="0 0 576.44501 577.45154"><title
         id="title77">Jain 2</title><path
         d="M 64.571,0.06355556 C 23.236,0.06355556 0,21.434556 0,65.099556 V 515.22256 c 0,40.844 20.895,62.229 62.192,62.229 h 452.024 c 41.307,0 62.229,-20.315 62.229,-62.229 V 65.099556 c 0,-42.601 -20.922,-65.03600044 -63.521,-65.03600044 -0.004,0 -448.495,-0.143 -448.353,0 z"
         fill="#111111"
         id="path78" /><path
         opacity="0.25"
         fill="#ffffff"
         d="m 304.19639,52.377587 c -15.15227,0 -21.0539,1.845207 -28.76562,8.992188 -5.33594,4.945194 -9.70118,12.215579 -9.70118,16.15625 0,5.278175 -1.86622,6.676552 -7.08984,5.310547 -10.41446,-2.723467 -32.3869,5.580036 -38.73047,14.636718 -3.92414,5.60253 -5.51172,17.47944 -5.51172,41.24805 v 33.38281 l -10.60547,-1.55664 c -15.10288,-2.21664 -36.54067,8.90716 -39.84765,20.67774 -1.4906,5.30551 -2.36211,69.04703 -2.71094,141.64258 -0.32871,68.41084 -0.87791,83.14413 0.80664,121.51171 0.47888,10.90762 9.17188,31.78125 9.17188,31.78125 10.61955,22.66571 42.33796,56.76131 62.58007,67.27149 6.47497,3.36194 19.19683,8.27951 28.27149,10.92773 26.82947,7.82958 73.03017,4.13312 97.40625,-7.79297 27.23973,-13.32717 53.39483,-40.32447 68.2207,-70.41796 0,0 7.80958,-16.76229 11.39258,-44.51758 3.58297,-27.75529 2.93945,-66.50391 2.93945,-66.50391 2.23171,-90.27412 4.30252,-103.30609 20.11524,-126.60742 5.12037,-7.54532 8.80914,-17.16228 8.19726,-21.37109 -2.03073,-13.96862 -57.11823,-25.73966 -75.15429,-7 -1.50592,-5.85399 -1.0041,-22.17396 -1.92774,-48.78907 -1.57804,-46.16121 -1.14336,-46.79467 -11.11328,-54.23047 -6.15016,-4.58694 -16.16429,-7.66888 -25.66602,-7.89843 L 340.89366,108.85415 339.046,88.318994 C 336.51341,60.159718 328.969,52.377587 304.19639,52.377587 Z m 1.73242,25.957031 c 10.651,0.04169 11.13281,18.568602 11.13281,117.486332 v 109.54688 h 11 10.99805 v -80.40039 c 0,-68.2038 0.87417,-81.27651 5.76172,-86.16407 3.16892,-3.16895 8.74256,-5.76172 12.38477,-5.76172 14.45459,0 15.4141,6.82952 14.52929,103.35547 l -0.84961,92.80274 h 10.66993 10.66992 l 1.83398,-35.45508 c 1.58557,-30.634 2.99658,-36.69109 10.37305,-44.54297 8.61756,-9.17298 26.29101,-15.31728 26.29101,-9.14063 0,1.83714 -2.7916,8.62042 -6.20312,15.07422 -5.1157,9.67769 -6.61911,27.4775 -8.57617,101.56446 -1.96408,74.35365 -3.51679,92.67328 -9.01563,106.33008 -12.82398,31.84926 -34.38545,55.04973 -63.39062,68.21289 -51.74298,23.48203 -115.87044,-0.50681 -144.42578,-54.02735 -8.42686,-15.79427 -8.56264,-17.86045 -9.63672,-147.09765 l -1.08789,-131.07813 8.42187,0.0547 c 16.453,0.1097 17.33238,3.00828 18.40235,60.5957 l 1.01953,54.84375 10.08398,1.16016 c 11.56254,1.33044 11.00341,3.70015 10.11328,-42.91602 -0.36156,-18.93348 0.52248,-62.9337 1.96485,-97.77734 2.30254,-55.62132 3.3962,-63.55504 8.95898,-65.00977 3.48481,-0.91129 9.0461,-0.14022 12.35742,1.71289 5.33708,2.98678 6.01953,13.96248 6.01953,96.6836 v 93.31445 h 12.83399 12.83203 V 191.95377 c 0,-107.385852 0.16241,-109.800872 7.50977,-112.132812 2.7315,-0.866946 5.05103,-1.494049 7.02343,-1.486329 z M 298.2335,329.73892 c -25.59792,-0.13594 -50.46326,11.27849 -66.88477,31.12109 -24.77107,27.43014 -29.66868,69.37138 -16.61523,103.24219 9.47634,21.28251 28.19723,37.78763 48.22461,48.96875 22.6369,11.09487 50.18759,8.37006 72.94922,-0.0508 24.44904,-10.97474 42.80134,-33.73054 52.51953,-58.13086 8.31834,-26.77811 10.44711,-58.77854 -5.35742,-83.4082 -18.0026,-25.47214 -48.25276,-42.37447 -79.70899,-41.56055 -1.71075,-0.11266 -3.42042,-0.17258 -5.12695,-0.18164 z"
         id="path79" /><path
         fill="#ffffff"
         d="m 264.19639,12.377587 c -15.15227,0 -21.0539,1.845207 -28.76562,8.992188 -5.33594,4.945194 -9.70118,12.215579 -9.70118,16.15625 0,5.278175 -1.86622,6.676552 -7.08984,5.310547 -10.41446,-2.723467 -32.3869,5.580036 -38.73047,14.636718 -3.92414,5.602535 -5.51172,17.479434 -5.51172,41.248046 v 33.382814 l -10.60547,-1.55664 c -15.10288,-2.21664 -36.54067,8.90716 -39.84765,20.67774 -1.4906,5.30551 -2.36211,69.04703 -2.71094,141.64258 -0.32871,68.41084 -0.87791,83.14413 0.80664,121.51171 0.47888,10.90762 9.17188,31.78125 9.17188,31.78125 10.61955,22.66571 42.33796,56.76131 62.58007,67.27149 6.47497,3.36194 19.19683,8.27951 28.27149,10.92773 26.82947,7.82958 73.03017,4.13312 97.40625,-7.79297 27.23973,-13.32717 53.39483,-40.32447 68.2207,-70.41796 0,0 7.80958,-16.76229 11.39258,-44.51758 3.58297,-27.75529 2.93945,-66.50391 2.93945,-66.50391 2.23171,-90.27412 4.30252,-103.30609 20.11524,-126.60742 5.12037,-7.54532 8.80914,-17.16228 8.19726,-21.37109 -2.03073,-13.96862 -57.11823,-25.73966 -75.15429,-7 -1.50592,-5.85399 -1.0041,-22.17396 -1.92774,-48.78907 -1.57804,-46.161211 -1.14336,-46.794679 -11.11328,-54.23047 -6.15016,-4.586941 -16.16429,-7.668888 -25.66602,-7.898437 L 300.89366,68.85415 299.046,48.318994 C 296.51341,20.159718 288.969,12.377587 264.19639,12.377587 Z m 1.73242,25.957031 c 10.651,0.04169 11.13281,18.568602 11.13281,117.486332 v 109.54688 h 11 10.99805 v -80.40039 c 0,-68.2038 0.87417,-81.27651 5.76172,-86.164078 3.16892,-3.168948 8.74256,-5.761716 12.38477,-5.761716 14.45459,0 15.4141,6.829516 14.52929,103.355474 l -0.84961,92.80274 h 10.66993 10.66992 l 1.83398,-35.45508 c 1.58557,-30.634 2.99658,-36.69109 10.37305,-44.54297 8.61756,-9.17298 26.29101,-15.31728 26.29101,-9.14063 0,1.83714 -2.7916,8.62042 -6.20312,15.07422 -5.1157,9.67769 -6.61911,27.4775 -8.57617,101.56446 -1.96408,74.35365 -3.51679,92.67328 -9.01563,106.33008 -12.82398,31.84926 -34.38545,55.04973 -63.39062,68.21289 -51.74298,23.48203 -115.87044,-0.50681 -144.42578,-54.02735 -8.42686,-15.79427 -8.56264,-17.86045 -9.63672,-147.09765 l -1.08789,-131.07813 8.42187,0.0547 c 16.453,0.1097 17.33238,3.00828 18.40235,60.5957 l 1.01953,54.84375 10.08398,1.16016 c 11.56254,1.33044 11.00341,3.70015 10.11328,-42.91602 -0.36156,-18.93348 0.52248,-62.9337 1.96485,-97.77734 2.30254,-55.621336 3.3962,-63.555043 8.95898,-65.009778 3.48481,-0.911288 9.0461,-0.140214 12.35742,1.712891 5.33708,2.986786 6.01953,13.962474 6.01953,96.683607 v 93.31445 h 12.83399 12.83203 V 151.95377 c 0,-107.385854 0.1624,-109.800874 7.50977,-112.132814 2.7315,-0.866946 5.05103,-1.494049 7.02343,-1.486329 z M 258.2335,289.73892 c -25.59792,-0.13594 -50.46326,11.27849 -66.88477,31.12109 -24.77107,27.43014 -29.66868,69.37138 -16.61523,103.24219 9.47634,21.28251 28.19723,37.78763 48.22461,48.96875 22.6369,11.09487 50.18759,8.37006 72.94922,-0.0508 24.44904,-10.97474 42.80134,-33.73054 52.51953,-58.13086 8.31834,-26.77811 10.44711,-58.77854 -5.35742,-83.4082 -18.0026,-25.47214 -48.25276,-42.37447 -79.70899,-41.56055 -1.71075,-0.11266 -3.42042,-0.17258 -5.12695,-0.18164 z"
         id="path80" /></symbol><symbol
       id="AigaSymbols.svg:Mail"><title
         id="title4">Mail</title><g
         style="fill:none;stroke-width:4"
         id="g7"><path
           d="m 10.5,55.1 h 51 V 17.5 h -51 z"
           id="path4" /><path
           d="m 11,17.75 22,22.6 c 1.6,1.6 4.4,1.6 6,0.0125 L 61,17.75"
           id="path5" /><path
           d="M 12,54 28.9,37"
           id="path6" /><path
           d="M 60,54 43.1,37"
           id="path7" /></g></symbol><symbol
       id="AigaSymbols.svg:LostAndFound_Inv"><title
         id="title35">Lost and Found</title><rect
         x="0.5"
         y="0.5"
         width="71"
         height="71"
         ry="6"
         style="stroke:#ffffff"
         id="rect35"
         rx="6" /><!-- Question Mark --><path
         d="m 30.6,14.6 c 0,-3 0.6,-6.6 5.4,-6.6 2.4,0 4.8,1.8 4.8,4.2 0,2.4 -1.2,3.6 -2.4,4.2 -1.2,0.6 -2.4,1.2 -2.4,3 0,1.8 0,3.6 0,3.6 m 0,1.5 v 4"
         style="fill:none;stroke:#ffffff;stroke-width:4"
         id="path36" /><!-- Umbrella --><path
         d="m 51,28 -38,8 v 2 l 38,8 v -7 h 8 a 3.5,3.5 0 0 1 0,7 2,2 0 0 0 0,4 7.5,7.5 0 0 0 0,-15 h -8 z"
         style="fill:#ffffff;stroke:none"
         id="path37" /><path
         d="M 12,38 H 6 a 1,1 0 0 1 0,-2 h 6 z"
         style="fill:#ffffff;stroke:none"
         id="path38" /><!-- Glove --><path
         d="m 49.5,56 a 1.5,1.5 0 0 1 1.5,1.5 v 7 L 46,63 H 20 a 1.5,1.5 0 0 1 0,-3 H 33.5 V 59 H 20 a 1.5,1.5 0 0 1 0,-3 H 33.5 V 55 H 20 a 1.5,1.5 0 0 1 0,-3 H 33.5 V 51 H 20 a 1.5,1.5 0 0 1 0,-3 h 12 l -4.5,-1.25 a 1.85,1.85 0 0 1 1,-3.5 L 51,48 v 4.5 A 1.5,1.5 0 0 1 49.5,54 h -2 a 1,1 0 0 0 0,2 z"
         style="fill:#ffffff;stroke:none"
         id="path39" /></symbol><symbol
       id="FlowSymbols.svg:Document"><title
         id="title4-5">Document</title><desc
         id="desc4">A document or report</desc><path
         d="M 15,35 H 135 V 95 C 85,90 65,130 15,105 Z"
         style="stroke-width:2"
         id="path4-6" /></symbol><filter
       style="color-interpolation-filters:sRGB"
       inkscape:label="Blur"
       id="filter1040"
       x="-0.039830755"
       y="-0.055523064"
       width="1.0796615"
       height="1.1110461"><feColorMatrix
         values="1.57799 -0.215556 -0.791972 0.195557 0 1.57799 -0.215556 -0.791972 0.195557 0 1.57799 -0.215556 -0.791972 0.195557 0 0 0 0 1 0 "
         id="feColorMatrix1040"
         result="fbSourceGraphic" /><feColorMatrix
         result="fbSourceGraphicAlpha"
         in="fbSourceGraphic"
         values="0 0 0 -1 0 0 0 0 -1 0 0 0 0 -1 0 0 0 0 1 0"
         id="feColorMatrix1041" /><feGaussianBlur
         id="feGaussianBlur1041"
         stdDeviation="31.8569 31.55"
         result="blur"
         in="fbSourceGraphic" /></filter><rect
       x="871.8587"
       y="2406.4612"
       width="327.37936"
       height="53.751522"
       id="rect587-9-9" /><clipPath
       clipPathUnits="userSpaceOnUse"
       id="clipPath54-4"><path
         d="m 266.473,116.234 h 904.988 V 626.289 H 266.473 Z"
         transform="matrix(1.3333333,0,0,1.3333333,3874.6667,0)"
         id="path54-0" /></clipPath><clipPath
       clipPathUnits="userSpaceOnUse"
       id="clipPath52-9"><path
         d="M 0,0 H 1438 V 729 H 0 Z"
         transform="matrix(1.3333333,0,0,1.3333333,3874.6667,0)"
         id="path52-1" /></clipPath><rect
       x="871.8587"
       y="2406.4612"
       width="327.37936"
       height="53.751522"
       id="rect587-9-9-6" /><clipPath
       clipPathUnits="userSpaceOnUse"
       id="clipPath54-4-7"><path
         d="m 266.473,116.234 h 904.988 V 626.289 H 266.473 Z"
         transform="matrix(1.3333333,0,0,1.3333333,3874.6667,0)"
         id="path54-0-5" /></clipPath><clipPath
       clipPathUnits="userSpaceOnUse"
       id="clipPath52-9-3"><path
         d="M 0,0 H 1438 V 729 H 0 Z"
         transform="matrix(1.3333333,0,0,1.3333333,3874.6667,0)"
         id="path52-1-5" /></clipPath><linearGradient
       x1="0.45625657"
       y1="-0.4091776"
       x2="0.40341878"
       y2="0.41188985"
       gradientUnits="userSpaceOnUse"
       gradientTransform="matrix(0,-481.8861,481.8861,0,-10542.574,3398.9272)"
       spreadMethod="pad"
       id="linearGradient16000"><stop
         style="stop-color:#fa33fb;stop-opacity:1;"
         offset="0"
         id="stop15998" /><stop
         style="stop-color:#f42752;stop-opacity:1;"
         offset="0.89477801"
         id="stop15999" /><stop
         style="stop-color:#f42752;stop-opacity:1;"
         offset="1"
         id="stop16000" /></linearGradient><linearGradient
       x1="0"
       y1="0"
       x2="1"
       y2="0"
       gradientUnits="userSpaceOnUse"
       gradientTransform="matrix(284.606,284.606,284.606,-284.606,-316.4568,-227.1588)"
       spreadMethod="pad"
       id="linearGradient16003"><stop
         style="stop-color:#fa33fb;stop-opacity:1;"
         offset="0"
         id="stop16001" /><stop
         style="stop-color:#f42752;stop-opacity:1;"
         offset="0.89477801"
         id="stop16002" /><stop
         style="stop-color:#f42752;stop-opacity:1;"
         offset="1"
         id="stop16003" /></linearGradient><clipPath
       clipPathUnits="userSpaceOnUse"
       id="clipPath16003"><path
         d="M 0,612 H 480 V 0 H 0 Z"
         transform="translate(-414.03601,-466.12881)"
         id="path16003" /></clipPath><linearGradient
       x1="0"
       y1="0"
       x2="1"
       y2="0"
       gradientUnits="userSpaceOnUse"
       gradientTransform="matrix(80.814414,0,0,80.973065,922.14254,1367.8972)"
       spreadMethod="pad"
       id="linearGradient48"><stop
         style="stop-opacity:1;stop-color:#fc33fd"
         offset="0"
         id="stop46" /><stop
         style="stop-opacity:1;stop-color:#f62752"
         offset="0.894778"
         id="stop47" /><stop
         style="stop-opacity:1;stop-color:#f62752"
         offset="1"
         id="stop48" /></linearGradient><clipPath
       clipPathUnits="userSpaceOnUse"
       id="clipPath54-4-9"><path
         d="m 266.473,116.234 h 904.988 V 626.289 H 266.473 Z"
         transform="matrix(1.3333333,0,0,1.3333333,3874.6667,0)"
         id="path54-0-1" /></clipPath><clipPath
       clipPathUnits="userSpaceOnUse"
       id="clipPath52-9-2"><path
         d="M 0,0 H 1438 V 729 H 0 Z"
         transform="matrix(1.3333333,0,0,1.3333333,3874.6667,0)"
         id="path52-1-7" /></clipPath><linearGradient
       inkscape:collect="always"
       xlink:href="#linearGradient51-9"
       id="linearGradient588"
       gradientUnits="userSpaceOnUse"
       gradientTransform="matrix(179.65889,-61.940546,-61.94053,-179.65894,630.49319,-302.38119)"
       x1="0"
       y1="0"
       x2="1"
       y2="0"
       spreadMethod="pad" /><linearGradient
       x1="0"
       y1="0"
       x2="1"
       y2="0"
       gradientUnits="userSpaceOnUse"
       gradientTransform="matrix(179.65889,-61.940546,-61.94053,-179.65894,630.49319,-302.38119)"
       spreadMethod="pad"
       id="linearGradient51-9"><stop
         style="stop-opacity:1;stop-color:#fc33fd"
         offset="0"
         id="stop49-6" /><stop
         style="stop-opacity:1;stop-color:#f62752"
         offset="0.894778"
         id="stop50-2" /><stop
         style="stop-opacity:1;stop-color:#f62752"
         offset="1"
         id="stop51-5" /></linearGradient><clipPath
       clipPathUnits="userSpaceOnUse"
       id="clipPath51-4"><path
         d="M 0,0 H 1438 V 729 H 0 Z"
         transform="matrix(1.0019629,0,0,-1,-2.5049072e-5,0)"
         id="path51-4" /></clipPath><rect
       x="871.8587"
       y="2406.4612"
       width="289.86877"
       height="54.96019"
       id="rect586-9" /><rect
       x="871.8587"
       y="2406.4612"
       width="289.86877"
       height="54.96019"
       id="rect587-9" /><rect
       x="871.8587"
       y="2406.4612"
       width="289.86877"
       height="54.96019"
       id="rect588-3" /><rect
       x="871.8587"
       y="2406.4612"
       width="289.86877"
       height="54.96019"
       id="rect9" /><rect
       x="871.8587"
       y="2406.4612"
       width="289.86877"
       height="54.96019"
       id="rect10" /><rect
       x="871.8587"
       y="2406.4612"
       width="289.86877"
       height="54.96019"
       id="rect11" /><linearGradient
       inkscape:collect="always"
       xlink:href="#linearGradient13"
       id="linearGradient14"
       x1="-0.39378029"
       y1="65.096344"
       x2="110.4101"
       y2="65.096344"
       gradientUnits="userSpaceOnUse" /><linearGradient
       inkscape:collect="always"
       xlink:href="#linearGradient51-9"
       id="linearGradient17"
       gradientUnits="userSpaceOnUse"
       gradientTransform="matrix(179.65889,-61.940546,-61.94053,-179.65894,630.49319,-302.38119)"
       x1="0"
       y1="0"
       x2="1"
       y2="0"
       spreadMethod="pad" /><linearGradient
       inkscape:collect="always"
       xlink:href="#linearGradient18"
       id="linearGradient19"
       x1="-0.39378032"
       y1="65.552027"
       x2="110.41009"
       y2="65.552027"
       gradientUnits="userSpaceOnUse" /><linearGradient
       inkscape:collect="always"
       xlink:href="#linearGradient23"
       id="linearGradient20"
       gradientUnits="userSpaceOnUse"
       x1="-0.39378032"
       y1="65.552027"
       x2="110.41009"
       y2="65.552027" /></defs><g
     inkscape:label="Capa 1"
     inkscape:groupmode="layer"
     id="layer1"
     transform="translate(-236.59322,-1.8877119)"><g
       inkscape:label="Capa 1"
       id="layer1-3"
       transform="matrix(56.572085,0,0,56.572085,637.73668,-7083.8592)"
       style="stroke-width:0.0176766"><g
         style="fill:#000000;fill-opacity:0.992157;stroke-width:0.00308252"
         id="g1"
         transform="matrix(0.03086477,0,0,0.03086477,3.5528629,132.18083)"><path
           d="M 47.811549,12.553608 C 44.739189,18.784916 38.126222,22.568682 34.875222,27.120682 28.975222,34.897682 30,40.5 28.32,40.254 23.462794,26.405595 28.910964,16.323368 26.561523,15.798576 25.199082,14.462809 18.481885,26.906208 14.144002,34.167776 11.069839,39.572705 2.633,52.711 -0.028,70.383 c -0.316,2.615 -0.477,9.266 -0.279,11.589 0.901,9.38 3.155,18.103 8.306,25.62 3.709,5.445 9.634,10.002 15.834,14.6 1.807,1.347 13.414,9.6 30.695,9.564 17.688,-0.042 25.263,-6.514 30.712,-9.783 3.976,-2.454 6.712,-4.562 10.136,-8.076 5.027,-5.063 15.068,-14.861 15.034,-36.405 -0.025,-16.203 -4.64596,-24.352876 -11.516957,-35.843876 -4.176,-5.731 -5.851755,-8.722484 -8.647319,-13.038462 -1.892993,-1.312721 -2.061458,1.681864 -2.354458,6.787864 C 86.297364,45.75257 86.54505,36.542269 80.442969,31.001435 71.490894,21.802683 68.54189,27.652212 62.686349,13.901709 60.43328,3.5993105 58.512571,3.2909068 54.846769,-0.66602495 52.452152,-3.6858143 53.10169,1.1916183 49.187976,9.8266858 Z"
           style="display:inline;fill:url(#linearGradient14);fill-opacity:0.992157;stroke:none;stroke-width:0.00332884"
           class="fills"
           xml:space="preserve"
           id="path1-3"
           sodipodi:nodetypes="ccccccccccccccccccccc" /></g><g
         id="g584"
         clip-path="url(#clipPath54-4-9)"
         transform="matrix(0.0307346,0,0,0.0307346,-143.29634,120.52445)"
         style="display:inline;stroke-width:0.0176766"><g
           clip-path="url(#clipPath52-9-2)"
           id="g583"><path
             d="m 806.823,-363.176 c 16.469,47.774 -8.908,99.848 -56.682,116.321 -47.769,16.468 -99.844,-8.907 -116.313,-56.676 -16.47,-47.77 8.904,-99.848 56.673,-116.317 47.769,-16.468 99.848,8.907 116.322,56.672 z"
             style="fill:none;stroke:url(#linearGradient588);stroke-width:7.05246;stroke-linecap:butt;stroke-linejoin:miter;stroke-miterlimit:10;stroke-dasharray:none;stroke-opacity:1"
             transform="matrix(1.3307213,0,0,-1.3333333,3874.6667,0)"
             clip-path="url(#clipPath51-4)"
             id="path583" /></g></g><g
         style="display:inline;fill:url(#linearGradient19);stroke-width:0.00308252"
         id="g15"
         transform="matrix(0.03092006,0,0,0.03092006,15.448458,132.14259)"><path
           d="M 46.703,12.516 C 43.823,21.248 42.151,26.171 38.9,30.723 33,38.5 30,40.5 28.32,40.254 27,40.5 24,29.5 22.358,27.778 21.703,26.932 19,29.5 14.825,34.491 10.776,39.748 2.633,52.711 -0.028,70.383 c -0.316,2.615 -0.477,9.266 -0.279,11.589 0.901,9.38 3.155,18.103 8.306,25.62 3.709,5.445 9.634,10.002 15.834,14.6 1.807,1.347 13.414,9.6 30.695,9.564 17.688,-0.042 25.263,-6.514 30.712,-9.783 3.976,-2.454 6.712,-4.562 10.136,-8.076 5.027,-5.063 15.068,-14.861 15.034,-36.405 C 110.385,61.289 104.321,47.304 97.45,35.813 93.274,30.082 92.319,27.107 88.225,24.378 86.861,23.45 87.406,26.261 87.113,31.367 86,38.5 85,38.5 79.217,29.602 71.371,18.672 69.444,18.38 63.877,13.959 56.863,7.6 60.707,0.344 56,-0.5 c -1,-1 -5,3 -8,10 z"
           style="display:inline;fill:url(#linearGradient20);fill-opacity:1;stroke:none;stroke-width:0.0190891"
           class="fills"
           xml:space="preserve"
           id="path1-36" /></g><g
         id="g17"
         clip-path="url(#clipPath54-4-9)"
         transform="matrix(0.0307346,0,0,0.0307346,-131.39919,120.48844)"
         style="display:inline;stroke-width:0.0176766"><g
           clip-path="url(#clipPath52-9-2)"
           id="g16"><path
             d="m 806.823,-363.176 c 16.469,47.774 -8.908,99.848 -56.682,116.321 -47.769,16.468 -99.844,-8.907 -116.313,-56.676 -16.47,-47.77 8.904,-99.848 56.673,-116.317 47.769,-16.468 99.848,8.907 116.322,56.672 z"
             style="fill:none;stroke:url(#linearGradient17);stroke-width:7.05246;stroke-linecap:butt;stroke-linejoin:miter;stroke-miterlimit:10;stroke-dasharray:none;stroke-opacity:1"
             transform="matrix(1.3307213,0,0,-1.3333333,3874.6667,0)"
             clip-path="url(#clipPath51-4)"
             id="path15" /></g></g></g></g></svg>
