<?xml version="1.0" encoding="UTF-8" standalone="no"?>
<!-- Created with Inkscape (http://www.inkscape.org/) -->

<svg
   width="35.685516mm"
   height="16.813955mm"
   viewBox="105 0 35.685518 16.813955"
   version="1.1"
   id="svg5"
   inkscape:version="1.4 (e7c3feb100, 2024-10-09)"
   sodipodi:docname="silencio.svg"
   xml:space="preserve"
   xmlns:inkscape="http://www.inkscape.org/namespaces/inkscape"
   xmlns:sodipodi="http://sodipodi.sourceforge.net/DTD/sodipodi-0.dtd"
   xmlns="http://www.w3.org/2000/svg"
   xmlns:svg="http://www.w3.org/2000/svg"><sodipodi:namedview
     id="namedview7"
     pagecolor="#ffffff"
     bordercolor="#000000"
     borderopacity="1"
     inkscape:showpageshadow="0"
     inkscape:pageopacity="0"
     inkscape:pagecheckerboard="true"
     inkscape:deskcolor="#383838"
     inkscape:document-units="mm"
     showgrid="false"
     inkscape:zoom="3.6164278"
     inkscape:cx="85.858205"
     inkscape:cy="45.625133"
     inkscape:window-width="1920"
     inkscape:window-height="1006"
     inkscape:window-x="0"
     inkscape:window-y="0"
     inkscape:window-maximized="1"
     inkscape:current-layer="layer1"><inkscape:page
       x="0"
       y="0"
       width="35.68552"
       height="16.813955"
       id="page5"
       margin="0"
       bleed="0" /></sodipodi:namedview><defs
     id="defs2"><inkscape:path-effect
       effect="clone_original"
       linkeditem=""
       id="path-effect1046"
       is_visible="true"
       lpeversion="1"
       method="bsplinespiro"
       attributes=""
       css_properties=""
       allow_transforms="true" /><inkscape:path-effect
       effect="envelope"
       id="path-effect1045"
       is_visible="true"
       lpeversion="1"
       yy="true"
       xx="true"
       bendpath1="M 850.63595,331.35219 C 884.96708,215.28953 711.40512,149.6252 1014.1953,-31.518452"
       bendpath2="m 1060.629,331.35219 c 185.0056,-88.28889 336.5033,-86.1061 429.9415,72.83692"
       bendpath3="m 850.63595,742.98303 c 126.7821,34.10472 242.04145,197.97242 330.37665,-182.2952"
       bendpath4="m 850.63595,331.35219 c -178.50498,129.3183 -100.81786,356.23359 5.1593,593.92604"
       bendpath1-nodetypes="cc"
       bendpath2-nodetypes="cc"
       bendpath4-nodetypes="cc"
       bendpath3-nodetypes="cc" /><inkscape:path-effect
       effect="envelope"
       id="path-effect1044"
       is_visible="true"
       lpeversion="1"
       yy="true"
       xx="true"
       bendpath1="m 864.7155,256.41309 1065.9416,77.38947"
       bendpath2="m 1211.7949,476.54315 8.5988,122.10337"
       bendpath3="m 658.34357,528.13611 562.05013,70.51041"
       bendpath4="M 845.79807,277.05028 864.7155,598.64652"
       bendpath1-nodetypes="cc"
       bendpath2-nodetypes="cc"
       bendpath3-nodetypes="cc"
       bendpath4-nodetypes="cc" /><inkscape:path-effect
       effect="transform_2pts"
       start="588.85569,180.46616"
       end="710.76983,400.25501"
       id="path-effect1043"
       is_visible="true"
       lpeversion="1"
       first_knot="1"
       last_knot="4"
       helper_size="3"
       stretch="1"
       offset="0"
       elastic="false"
       from_original_width="false"
       flip_vertical="false"
       flip_horizontal="false"
       lock_length="false"
       lock_angle="false" /><inkscape:path-effect
       effect="envelope"
       id="path-effect1042"
       is_visible="true"
       lpeversion="1"
       yy="true"
       xx="true"
       bendpath1="M 588.85569,180.46616 1081.6635,44.815222"
       bendpath2="M 1454.2743,664.6885 1148.6304,513.58364"
       bendpath3="m 588.85569,513.58364 c 186.59157,0 851.32671,-191.25744 559.77471,0"
       bendpath4="M 588.85569,180.46616 V 513.58364"
       bendpath1-nodetypes="cc"
       bendpath2-nodetypes="cc"
       bendpath3-nodetypes="cc" /><inkscape:path-effect
       effect="fill_between_many"
       id="path-effect1041"
       is_visible="true"
       lpeversion="1.2"
       linkedpaths=""
       method="originald"
       join="true"
       close="true"
       autoreverse="true" /><linearGradient
       id="swatch7"
       inkscape:swatch="solid"><stop
         style="stop-color:#ff4747;stop-opacity:1;"
         offset="0"
         id="stop7" /></linearGradient><rect
       x="2515.7563"
       y="1163.7054"
       width="1917.087"
       height="1378.9573"
       id="rect1" /><symbol
       id="sjjb-landuse.svg:swamp"
       viewBox="0 0 242.97472 252.19202"><title
         id="title9">Swamp</title><path
         d="M 101.59749,2.1535336e-4 C 98.570872,-0.08491465 101.08008,25.089215 101.7635,39.771705 c 1.00037,21.39177 -0.39919,30.07654 -0.0371,77.880865 h -0.004 c -3.653778,48.31213 -2.144678,66.90234 5.43164,66.90234 21.83952,0 8.72958,-177.2469496 -5.24805,-184.46679965 -0.1094,-0.05651 -0.21096,-0.08514 -0.30859,-0.0878899936 z M 17.28694,35.955295 c -0.88077,0.68506 13.662652,17.32454 21.156252,38.38086 10.12377,28.446775 18.25195,49.749785 18.25195,84.109385 0,14.36034 4.00354,26.10937 8.89649,26.10937 25.87379,0 -5.35157,-113.67256 -38.8379,-141.38476 -6.41499,-5.30885 -9.122143,-7.48291 -9.466792,-7.21485 z m 175.13867,0 c -0.34465,-0.26806 -3.04985,1.906 -9.46484,7.21485 -33.48633,27.71221 -64.71169,141.384765 -38.83789,141.384765 4.89295,0 8.89453,-11.74903 8.89453,-26.10937 0,-34.3596 8.12818,-55.66261 18.25195,-84.10939 7.4936,-21.05632 22.03702,-37.6958 21.15625,-38.38086 z M 0.30842,107.46897 c -2.18323,-0.21512 7.750324,6.48441 13.244141,21.73438 5.743427,15.9429 7.556637,30.40906 7.556637,39.25976 h 0.002 c 0,8.85072 4.001594,16.0918 8.894534,16.0918 11.32654,0 13.16927,-8.91698 1.3457,-42.83398 -5.23483,-15.01671 -17.209504,-29.1078 -24.207034,-31.79297 -4.033609,-1.54784 -6.108194,-2.38728 -6.835938,-2.45899 z m 209.09571,0 c -0.72775,0.0717 -2.80038,0.91115 -6.83399,2.45899 -6.99753,2.68517 -18.9722,16.77626 -24.20703,31.79297 -11.82358,33.917 -9.9828,42.83398 1.34375,42.83398 4.89294,0 8.89648,-7.24108 8.89648,-16.0918 0,-8.8507 1.81321,-23.31686 7.55665,-39.25976 5.49381,-15.24997 15.42737,-21.9495 13.24414,-21.73438 z m -47.1543,99.4668 c -6.16712,-0.0202 -12.33395,-0.01 -18.49805,0.004 -28.7682,0.42228 -57.648208,0.5111 -86.314448,2.60742 -2.70507,0.43595 -4.05128,4.4504 -1.08984,5.58789 14.32726,3.21782 29.29205,2.53333 43.935538,3.29297 40.22877,0.85238 80.5559,1.2527 120.71094,-1.59961 2.83845,-0.56816 8.41495,-0.6304 7.80664,-4.71094 -1.96973,-3.87654 -7.56793,-2.58301 -11.0957,-3.34765 -18.44898,-1.42874 -36.95374,-1.77337 -55.45508,-1.83399 z m 51.4707,33.24219 c -5.14442,-0.0376 -10.2932,0.0721 -15.4043,0.12695 -11.73052,0.48378 -23.69822,0.3916 -35.19531,2.76367 -2.88537,1.6697 -1.19072,6.25334 2.00391,6.17774 17.49808,4.03041 35.74752,2.75762 53.61133,2.74609 7.66155,-0.34655 15.65865,-0.50284 22.85351,-3.19922 2.85708,-1.90147 0.9129,-6.46745 -2.375,-6.25 -8.35849,-1.8294 -16.92011,-2.30251 -25.49414,-2.36523 z"
         id="path9" /></symbol><symbol
       id="sjjb-tourist.svg:zoo"
       viewBox="0 0 491.08551 372.16675"><title
         id="title44">Zoo</title><path
         d="m 55.954563,283.94129 c 5.645119,1.66467 19.510299,0.264 14.758039,-9.1015 -2.63673,-5.19691 -15.042439,-11.73915 -20.522131,-13.29085 -8.257063,-2.33907 -22.130083,7.81265 -11.528186,14.32262 l -2.305637,6.91691 C 27.47833,278.5461 24.948009,265.56306 25.670826,256.27364 c 0.508278,-6.53302 6.407135,-13.42226 8.744014,-19.59791 6.384079,-16.8715 11.627675,-33.45249 16.593095,-50.72402 1.984808,-6.90423 2.572745,-19.97028 8.575007,-24.52276 5.62403,-4.26658 14.26106,-4.88795 20.5762,-8.03054 4.65508,-2.31716 7.69622,-7.08407 12.70291,-8.6323 10.750038,-3.32358 21.340978,-2.46703 26.497538,-14.1497 10.88722,16.43574 19.97604,31.75093 21.78251,51.87684 1.28424,14.30763 -8.48244,28.97725 -11.7795,42.65429 -2.30449,9.56033 -1.59435,19.29818 -4.10519,28.82047 -3.13221,11.87403 -9.24099,22.84886 -12.22103,34.58456 -1.7984,7.07945 -0.18676,15.1342 -2.39671,21.9024 -3.95532,12.11497 -26.535578,19.35467 -23.850668,34.57994 1.24044,7.03566 9.4439,8.41904 15.278308,9.61336 13.54793,2.77253 28.13223,1.06175 41.50147,-1.03177 4.45219,-0.69746 9.85775,0.1637 13.3335,-3.31205 8.39137,-8.39022 -1.52287,-24.24493 1.19548,-34.08424 1.94711,-7.05179 8.61732,-13.19631 12.10113,-19.59791 7.57402,-13.92144 13.98715,-28.58645 18.32982,-43.80711 h 1.15282 c 0.27667,13.4165 3.51494,30.23151 8.66228,42.65429 3.24979,7.84378 11.6181,19.09759 11.38985,27.66764 -0.39196,14.68691 -22.64482,24.29335 -11.97203,41.47957 10.73736,17.28882 36.11551,-0.1049 49.56083,-3.14719 7.37112,-1.66813 17.25539,0.51531 20.87293,-8.40866 4.99401,-12.31672 -5.14272,-23.99246 -6.84313,-35.68781 -1.94711,-13.38422 0.56719,-26.8503 -1.88486,-40.34865 -1.79378,-9.8785 -9.83469,-21.37326 -9.56493,-31.1261 0.18906,-6.86273 5.06087,-14.98895 6.64254,-21.90356 l 43.80711,20.57205 18.4451,10.55406 c 0.0807,9.79895 -0.18791,21.50698 1.53209,31.1261 0.82196,4.59398 5.13581,9.23523 3.82044,13.98369 -2.56502,9.25252 -25.21214,18.74598 -20.11553,28.54955 2.80135,5.38828 10.53446,7.23394 15.91581,8.61732 13.62863,3.50457 49.33488,8.76949 59.35402,-4.0095 4.4153,-5.63152 4.0487,-15.00163 4.05101,-21.77905 0.007,-17.08247 1.80762,-35.18057 -2.30564,-51.87684 14.83447,9.14762 18.20762,27.53046 25.6433,42.65429 2.5754,5.23841 7.94177,13.54562 6.18602,19.58062 -2.70912,9.30786 -30.47706,23.84145 -17.6289,36.40832 3.56221,3.48497 10.03759,3.74436 14.62005,5.13927 13.25972,4.03486 53.50807,10.61976 59.77595,-6.96303 5.85747,-16.43227 4.36227,-45.44987 0.2859,-62.23491 -2.39902,-9.8785 -7.97174,-18.4474 -8.94587,-28.82047 -0.89574,-9.54418 5.71567,-19.20365 6.4212,-28.82046 0.98104,-13.38769 -3.15757,-25.14413 -3.56913,-38.04302 -0.264,-8.29799 2.52006,-16.84268 2.52006,-25.36201 12.66256,33.56432 -0.59255,69.67751 8.62424,103.75368 1.34188,4.96058 1.86641,33.09281 11.80255,30.25918 3.72591,-1.06174 4.82801,-7.52214 4.07983,-10.66126 -3.26248,-13.69779 -9.17183,-25.80815 -9.2041,-40.34866 -0.0161,-7.23047 3.28783,-14.68229 4.09596,-21.90355 C 490.528,191.72502 497.19244,132.41942 460.5893,101.14922 444.26769,87.205891 426.58806,77.021661 408.71707,65.476871 c -13.98484,-9.0343 -28.29709,-19.58166 -44.95993,-23.17742 -12.22218,-2.63742 -25.62024,1.26038 -38.04301,0.65653 -27.08663,-1.31675 -53.69253,-6.44368 -80.69731,-8.98057 -12.28904,-1.15455 -24.46166,1.21484 -36.89019,-1.12262 C 181.42158,27.830311 161.67034,7.649985 135.49905,1.049753 127.20913,-1.040722 112.84271,0.39183895 104.37295,1.879667 96.374692,3.284838 92.139242,8.887421 85.910552,13.322427 67.822602,26.202871 44.101168,46.857351 34.08571,67.210481 c -6.148212,12.49425 -6.807394,29.19131 -10.751647,42.655199 -5.748992,19.62443 -16.67045,35.9518 -19.903068,56.48811 -3.385483,21.50814 1.800933,44.10108 1.799549,65.71066 -0.001,16.24552 -9.088706,36.11781 -3.304554,51.87684 8.085409,22.02921 51.007267,29.30811 54.028573,0 z"
         id="path45" /></symbol><symbol
       id="sjjb-worship.svg:symbol86"
       viewBox="0 0 576.44501 577.45154"><title
         id="title83">Jewish 2</title><path
         d="M 64.571,0.06355556 C 23.236,0.06355556 0,21.434556 0,65.099556 V 515.22256 c 0,40.844 20.895,62.229 62.192,62.229 h 452.024 c 41.307,0 62.229,-20.315 62.229,-62.229 V 65.099556 c 0,-42.601 -20.922,-65.03600044 -63.521,-65.03600044 -0.004,0 -448.495,-0.143 -448.353,0 z"
         id="path84" /><path
         opacity="0.25"
         d="m 267.47279,504.19009 -36.49173,-63.31462 -71.79642,-0.0329 c -44.74377,-0.0204 -72.711187,-1.51291 -74.224137,-3.96093 -1.335251,-2.16049 13.447237,-31.52805 32.849987,-65.26131 24.05942,-41.82925 34.45967,-63.48338 32.70535,-68.09498 -1.41483,-3.71901 -17.16358,-31.98093 -34.99734,-62.80421 -17.833693,-30.82332 -32.424915,-58.04807 -32.424915,-60.49941 0,-3.22735 20.400655,-4.45848 73.943745,-4.46225 l 73.94373,-0.005 36.39038,-63.37516 c 20.01472,-34.856341 37.61469,-63.375165 39.11107,-63.375165 4.10398,0 14.35107,15.892209 47.67807,73.943745 l 30.32188,52.81694 h 74.01767 c 56.74294,0 73.97846,1.1206 73.84967,4.80156 -0.0924,2.64083 -16.22605,32.40494 -35.85253,66.14245 l -35.68448,61.34089 35.85248,62.11162 c 19.71891,34.16136 35.85253,64.0324 35.85253,66.38006 0,2.98284 -22.29418,4.26852 -74.01767,4.26852 h -74.01767 l -30.32188,52.81694 c -33.16343,57.76665 -43.58776,73.96094 -47.57672,73.91095 -1.44066,-0.0181 -19.04064,-28.52453 -39.11107,-63.34756 z m 53.49531,-37.91961 c 6.49309,-11.34874 11.80563,-21.72006 11.80563,-23.04741 0,-1.32733 -11.2356,-2.41331 -24.96801,-2.41331 -13.73242,0 -24.96801,1.08598 -24.96801,2.41331 0,3.1237 23.18251,43.68148 24.96801,43.68148 0.74622,0 6.66931,-9.28534 13.16238,-20.63407 z M 193.67962,375.55437 c -6.94903,-12.65103 -13.49887,-23.00183 -14.55523,-23.00183 -1.05634,0 -7.60616,10.3508 -14.55519,23.00183 l -12.63458,23.00181 h 27.18977 27.18978 z m 180.71421,-2.92651 c 8.2887,-14.2606 19.95117,-34.72756 25.91665,-45.48215 l 10.84625,-19.55385 -24.88365,-43.8265 -24.88362,-43.82651 h -53.41275 -53.41272 l -24.27547,41.80304 c -13.35152,22.99167 -24.27549,43.6243 -24.27549,45.85022 0,3.98023 39.82628,76.78174 47.1355,86.16254 2.66017,3.41408 18.54073,4.80153 54.95807,4.80153 h 51.21689 z m 76.64836,2.92651 c -6.94903,-12.65103 -13.49885,-23.00183 -14.55519,-23.00183 -1.05636,0 -7.6062,10.3508 -14.55524,23.00183 l -12.63451,23.00181 h 27.18975 27.18977 z m -257.61557,-134.55265 12.3816,-22.98349 h -26.93679 -26.93681 l 12.63458,23.00184 c 6.94903,12.651 13.49885,22.99354 14.55519,22.98343 1.05636,-0.0101 7.49234,-10.3609 14.30223,-23.00178 z m 257.36257,0 12.38162,-22.98349 h -26.9368 -26.93676 l 12.63451,23.00184 c 6.94904,12.651 13.49888,22.99354 14.55524,22.98343 1.05634,-0.0101 7.4923,-10.3609 14.30219,-23.00178 z M 332.77373,173.35134 c 0,-3.12368 -23.18253,-43.68146 -24.96801,-43.68146 -1.7855,0 -24.96801,40.55778 -24.96801,43.68146 0,1.32733 11.23559,2.41332 24.96801,2.41332 13.73241,0 24.96801,-1.08599 24.96801,-2.41332 z"
         fill="#ffffff"
         id="path85" /><path
         d="m 228.45339,465.17069 -36.49173,-63.31462 -71.79642,-0.0329 c -44.743764,-0.0205 -72.711186,-1.51292 -74.224136,-3.96094 -1.335251,-2.16049 13.44724,-31.52805 32.849989,-65.26131 24.059417,-41.82925 34.459667,-63.48338 32.705347,-68.09498 -1.41482,-3.71901 -17.16358,-31.98093 -34.997333,-62.80421 -17.833699,-30.82332 -32.424921,-58.04807 -32.424921,-60.49941 0,-3.22735 20.400658,-4.45848 73.943744,-4.46225 l 73.94373,-0.005 36.39038,-63.375169 c 20.01472,-34.856332 37.61469,-63.375155 39.11107,-63.375155 4.10398,0 14.35108,15.892209 47.67807,73.943738 l 30.32188,52.816946 h 74.01767 c 56.74294,0 73.97846,1.1206 73.84967,4.80156 -0.0924,2.64083 -16.22604,32.40494 -35.85253,66.14245 l -35.68448,61.34089 35.85248,62.11162 c 19.71891,34.16136 35.85253,64.0324 35.85253,66.38006 0,2.98284 -22.29418,4.26852 -74.01767,4.26852 h -74.01767 l -30.32188,52.81694 c -33.16343,57.76665 -43.58776,73.96094 -47.57672,73.91095 -1.44066,-0.0181 -19.04064,-28.52453 -39.11107,-63.34756 z m 53.49531,-37.91961 c 6.4931,-11.34874 11.80564,-21.72006 11.80564,-23.04741 0,-1.32733 -11.23561,-2.41331 -24.96802,-2.41331 -13.73242,0 -24.96801,1.08598 -24.96801,2.41331 0,3.1237 23.18251,43.68148 24.96801,43.68148 0.74622,0 6.66931,-9.28534 13.16238,-20.63407 z M 154.66023,336.53497 c -6.94904,-12.65102 -13.49888,-23.00183 -14.55524,-23.00183 -1.05634,0 -7.60616,10.35081 -14.55519,23.00183 l -12.63458,23.00181 h 27.18977 27.18979 z m 180.7142,-2.92651 c 8.2887,-14.2606 19.95117,-34.72756 25.91665,-45.48215 l 10.84625,-19.55385 -24.88365,-43.8265 -24.88362,-43.82651 h -53.41275 -53.41272 l -24.27547,41.80305 c -13.35152,22.99166 -24.27549,43.62429 -24.27549,45.85021 0,3.98023 39.82628,76.78174 47.13551,86.16254 2.66016,3.41408 18.54072,4.80153 54.95806,4.80153 h 51.21689 z m 76.64836,2.92651 c -6.94903,-12.65102 -13.49885,-23.00183 -14.55519,-23.00183 -1.05636,0 -7.6062,10.35081 -14.55523,23.00183 l -12.63452,23.00181 h 27.18975 27.18977 z m -257.61557,-134.55265 12.3816,-22.98349 h -26.93679 -26.93681 l 12.63458,23.00184 c 6.94903,12.651 13.49885,22.99354 14.55519,22.98343 1.05636,-0.0101 7.49234,-10.3609 14.30223,-23.00178 z m 257.36257,0 12.38162,-22.98349 h -26.9368 -26.93676 l 12.63452,23.00184 c 6.94903,12.651 13.49887,22.99354 14.55523,22.98343 1.05634,-0.0101 7.4923,-10.3609 14.30219,-23.00178 z M 293.75434,134.33194 c 0,-3.12368 -23.18254,-43.681462 -24.96802,-43.681462 -1.7855,0 -24.96801,40.557782 -24.96801,43.681462 0,1.32733 11.23559,2.41332 24.96801,2.41332 13.73241,0 24.96802,-1.08599 24.96802,-2.41332 z"
         fill="#ffffff"
         id="path86" /></symbol><symbol
       id="sjjb-worship.svg:symbol80"
       viewBox="0 0 576.44501 577.45154"><title
         id="title77">Jain 2</title><path
         d="M 64.571,0.06355556 C 23.236,0.06355556 0,21.434556 0,65.099556 V 515.22256 c 0,40.844 20.895,62.229 62.192,62.229 h 452.024 c 41.307,0 62.229,-20.315 62.229,-62.229 V 65.099556 c 0,-42.601 -20.922,-65.03600044 -63.521,-65.03600044 -0.004,0 -448.495,-0.143 -448.353,0 z"
         fill="#111111"
         id="path78" /><path
         opacity="0.25"
         fill="#ffffff"
         d="m 304.19639,52.377587 c -15.15227,0 -21.0539,1.845207 -28.76562,8.992188 -5.33594,4.945194 -9.70118,12.215579 -9.70118,16.15625 0,5.278175 -1.86622,6.676552 -7.08984,5.310547 -10.41446,-2.723467 -32.3869,5.580036 -38.73047,14.636718 -3.92414,5.60253 -5.51172,17.47944 -5.51172,41.24805 v 33.38281 l -10.60547,-1.55664 c -15.10288,-2.21664 -36.54067,8.90716 -39.84765,20.67774 -1.4906,5.30551 -2.36211,69.04703 -2.71094,141.64258 -0.32871,68.41084 -0.87791,83.14413 0.80664,121.51171 0.47888,10.90762 9.17188,31.78125 9.17188,31.78125 10.61955,22.66571 42.33796,56.76131 62.58007,67.27149 6.47497,3.36194 19.19683,8.27951 28.27149,10.92773 26.82947,7.82958 73.03017,4.13312 97.40625,-7.79297 27.23973,-13.32717 53.39483,-40.32447 68.2207,-70.41796 0,0 7.80958,-16.76229 11.39258,-44.51758 3.58297,-27.75529 2.93945,-66.50391 2.93945,-66.50391 2.23171,-90.27412 4.30252,-103.30609 20.11524,-126.60742 5.12037,-7.54532 8.80914,-17.16228 8.19726,-21.37109 -2.03073,-13.96862 -57.11823,-25.73966 -75.15429,-7 -1.50592,-5.85399 -1.0041,-22.17396 -1.92774,-48.78907 -1.57804,-46.16121 -1.14336,-46.79467 -11.11328,-54.23047 -6.15016,-4.58694 -16.16429,-7.66888 -25.66602,-7.89843 L 340.89366,108.85415 339.046,88.318994 C 336.51341,60.159718 328.969,52.377587 304.19639,52.377587 Z m 1.73242,25.957031 c 10.651,0.04169 11.13281,18.568602 11.13281,117.486332 v 109.54688 h 11 10.99805 v -80.40039 c 0,-68.2038 0.87417,-81.27651 5.76172,-86.16407 3.16892,-3.16895 8.74256,-5.76172 12.38477,-5.76172 14.45459,0 15.4141,6.82952 14.52929,103.35547 l -0.84961,92.80274 h 10.66993 10.66992 l 1.83398,-35.45508 c 1.58557,-30.634 2.99658,-36.69109 10.37305,-44.54297 8.61756,-9.17298 26.29101,-15.31728 26.29101,-9.14063 0,1.83714 -2.7916,8.62042 -6.20312,15.07422 -5.1157,9.67769 -6.61911,27.4775 -8.57617,101.56446 -1.96408,74.35365 -3.51679,92.67328 -9.01563,106.33008 -12.82398,31.84926 -34.38545,55.04973 -63.39062,68.21289 -51.74298,23.48203 -115.87044,-0.50681 -144.42578,-54.02735 -8.42686,-15.79427 -8.56264,-17.86045 -9.63672,-147.09765 l -1.08789,-131.07813 8.42187,0.0547 c 16.453,0.1097 17.33238,3.00828 18.40235,60.5957 l 1.01953,54.84375 10.08398,1.16016 c 11.56254,1.33044 11.00341,3.70015 10.11328,-42.91602 -0.36156,-18.93348 0.52248,-62.9337 1.96485,-97.77734 2.30254,-55.62132 3.3962,-63.55504 8.95898,-65.00977 3.48481,-0.91129 9.0461,-0.14022 12.35742,1.71289 5.33708,2.98678 6.01953,13.96248 6.01953,96.6836 v 93.31445 h 12.83399 12.83203 V 191.95377 c 0,-107.385852 0.16241,-109.800872 7.50977,-112.132812 2.7315,-0.866946 5.05103,-1.494049 7.02343,-1.486329 z M 298.2335,329.73892 c -25.59792,-0.13594 -50.46326,11.27849 -66.88477,31.12109 -24.77107,27.43014 -29.66868,69.37138 -16.61523,103.24219 9.47634,21.28251 28.19723,37.78763 48.22461,48.96875 22.6369,11.09487 50.18759,8.37006 72.94922,-0.0508 24.44904,-10.97474 42.80134,-33.73054 52.51953,-58.13086 8.31834,-26.77811 10.44711,-58.77854 -5.35742,-83.4082 -18.0026,-25.47214 -48.25276,-42.37447 -79.70899,-41.56055 -1.71075,-0.11266 -3.42042,-0.17258 -5.12695,-0.18164 z"
         id="path79" /><path
         fill="#ffffff"
         d="m 264.19639,12.377587 c -15.15227,0 -21.0539,1.845207 -28.76562,8.992188 -5.33594,4.945194 -9.70118,12.215579 -9.70118,16.15625 0,5.278175 -1.86622,6.676552 -7.08984,5.310547 -10.41446,-2.723467 -32.3869,5.580036 -38.73047,14.636718 -3.92414,5.602535 -5.51172,17.479434 -5.51172,41.248046 v 33.382814 l -10.60547,-1.55664 c -15.10288,-2.21664 -36.54067,8.90716 -39.84765,20.67774 -1.4906,5.30551 -2.36211,69.04703 -2.71094,141.64258 -0.32871,68.41084 -0.87791,83.14413 0.80664,121.51171 0.47888,10.90762 9.17188,31.78125 9.17188,31.78125 10.61955,22.66571 42.33796,56.76131 62.58007,67.27149 6.47497,3.36194 19.19683,8.27951 28.27149,10.92773 26.82947,7.82958 73.03017,4.13312 97.40625,-7.79297 27.23973,-13.32717 53.39483,-40.32447 68.2207,-70.41796 0,0 7.80958,-16.76229 11.39258,-44.51758 3.58297,-27.75529 2.93945,-66.50391 2.93945,-66.50391 2.23171,-90.27412 4.30252,-103.30609 20.11524,-126.60742 5.12037,-7.54532 8.80914,-17.16228 8.19726,-21.37109 -2.03073,-13.96862 -57.11823,-25.73966 -75.15429,-7 -1.50592,-5.85399 -1.0041,-22.17396 -1.92774,-48.78907 -1.57804,-46.161211 -1.14336,-46.794679 -11.11328,-54.23047 -6.15016,-4.586941 -16.16429,-7.668888 -25.66602,-7.898437 L 300.89366,68.85415 299.046,48.318994 C 296.51341,20.159718 288.969,12.377587 264.19639,12.377587 Z m 1.73242,25.957031 c 10.651,0.04169 11.13281,18.568602 11.13281,117.486332 v 109.54688 h 11 10.99805 v -80.40039 c 0,-68.2038 0.87417,-81.27651 5.76172,-86.164078 3.16892,-3.168948 8.74256,-5.761716 12.38477,-5.761716 14.45459,0 15.4141,6.829516 14.52929,103.355474 l -0.84961,92.80274 h 10.66993 10.66992 l 1.83398,-35.45508 c 1.58557,-30.634 2.99658,-36.69109 10.37305,-44.54297 8.61756,-9.17298 26.29101,-15.31728 26.29101,-9.14063 0,1.83714 -2.7916,8.62042 -6.20312,15.07422 -5.1157,9.67769 -6.61911,27.4775 -8.57617,101.56446 -1.96408,74.35365 -3.51679,92.67328 -9.01563,106.33008 -12.82398,31.84926 -34.38545,55.04973 -63.39062,68.21289 -51.74298,23.48203 -115.87044,-0.50681 -144.42578,-54.02735 -8.42686,-15.79427 -8.56264,-17.86045 -9.63672,-147.09765 l -1.08789,-131.07813 8.42187,0.0547 c 16.453,0.1097 17.33238,3.00828 18.40235,60.5957 l 1.01953,54.84375 10.08398,1.16016 c 11.56254,1.33044 11.00341,3.70015 10.11328,-42.91602 -0.36156,-18.93348 0.52248,-62.9337 1.96485,-97.77734 2.30254,-55.621336 3.3962,-63.555043 8.95898,-65.009778 3.48481,-0.911288 9.0461,-0.140214 12.35742,1.712891 5.33708,2.986786 6.01953,13.962474 6.01953,96.683607 v 93.31445 h 12.83399 12.83203 V 151.95377 c 0,-107.385854 0.1624,-109.800874 7.50977,-112.132814 2.7315,-0.866946 5.05103,-1.494049 7.02343,-1.486329 z M 258.2335,289.73892 c -25.59792,-0.13594 -50.46326,11.27849 -66.88477,31.12109 -24.77107,27.43014 -29.66868,69.37138 -16.61523,103.24219 9.47634,21.28251 28.19723,37.78763 48.22461,48.96875 22.6369,11.09487 50.18759,8.37006 72.94922,-0.0508 24.44904,-10.97474 42.80134,-33.73054 52.51953,-58.13086 8.31834,-26.77811 10.44711,-58.77854 -5.35742,-83.4082 -18.0026,-25.47214 -48.25276,-42.37447 -79.70899,-41.56055 -1.71075,-0.11266 -3.42042,-0.17258 -5.12695,-0.18164 z"
         id="path80" /></symbol><symbol
       id="AigaSymbols.svg:Mail"><title
         id="title4">Mail</title><g
         style="fill:none;stroke-width:4"
         id="g7"><path
           d="m 10.5,55.1 h 51 V 17.5 h -51 z"
           id="path4" /><path
           d="m 11,17.75 22,22.6 c 1.6,1.6 4.4,1.6 6,0.0125 L 61,17.75"
           id="path5" /><path
           d="M 12,54 28.9,37"
           id="path6" /><path
           d="M 60,54 43.1,37"
           id="path7" /></g></symbol><symbol
       id="AigaSymbols.svg:LostAndFound_Inv"><title
         id="title35">Lost and Found</title><rect
         x="0.5"
         y="0.5"
         width="71"
         height="71"
         ry="6"
         style="stroke:#ffffff"
         id="rect35"
         rx="6" /><!-- Question Mark --><path
         d="m 30.6,14.6 c 0,-3 0.6,-6.6 5.4,-6.6 2.4,0 4.8,1.8 4.8,4.2 0,2.4 -1.2,3.6 -2.4,4.2 -1.2,0.6 -2.4,1.2 -2.4,3 0,1.8 0,3.6 0,3.6 m 0,1.5 v 4"
         style="fill:none;stroke:#ffffff;stroke-width:4"
         id="path36" /><!-- Umbrella --><path
         d="m 51,28 -38,8 v 2 l 38,8 v -7 h 8 a 3.5,3.5 0 0 1 0,7 2,2 0 0 0 0,4 7.5,7.5 0 0 0 0,-15 h -8 z"
         style="fill:#ffffff;stroke:none"
         id="path37" /><path
         d="M 12,38 H 6 a 1,1 0 0 1 0,-2 h 6 z"
         style="fill:#ffffff;stroke:none"
         id="path38" /><!-- Glove --><path
         d="m 49.5,56 a 1.5,1.5 0 0 1 1.5,1.5 v 7 L 46,63 H 20 a 1.5,1.5 0 0 1 0,-3 H 33.5 V 59 H 20 a 1.5,1.5 0 0 1 0,-3 H 33.5 V 55 H 20 a 1.5,1.5 0 0 1 0,-3 H 33.5 V 51 H 20 a 1.5,1.5 0 0 1 0,-3 h 12 l -4.5,-1.25 a 1.85,1.85 0 0 1 1,-3.5 L 51,48 v 4.5 A 1.5,1.5 0 0 1 49.5,54 h -2 a 1,1 0 0 0 0,2 z"
         style="fill:#ffffff;stroke:none"
         id="path39" /></symbol><symbol
       id="FlowSymbols.svg:Document"><title
         id="title4-5">Document</title><desc
         id="desc4">A document or report</desc><path
         d="M 15,35 H 135 V 95 C 85,90 65,130 15,105 Z"
         style="stroke-width:2"
         id="path4-6" /></symbol><filter
       style="color-interpolation-filters:sRGB"
       inkscape:label="Blur"
       id="filter1040"
       x="-0.039830755"
       y="-0.055523064"
       width="1.0796615"
       height="1.1110461"><feColorMatrix
         values="1.57799 -0.215556 -0.791972 0.195557 0 1.57799 -0.215556 -0.791972 0.195557 0 1.57799 -0.215556 -0.791972 0.195557 0 0 0 0 1 0 "
         id="feColorMatrix1040"
         result="fbSourceGraphic" /><feColorMatrix
         result="fbSourceGraphicAlpha"
         in="fbSourceGraphic"
         values="0 0 0 -1 0 0 0 0 -1 0 0 0 0 -1 0 0 0 0 1 0"
         id="feColorMatrix1041" /><feGaussianBlur
         id="feGaussianBlur1041"
         stdDeviation="31.8569 31.55"
         result="blur"
         in="fbSourceGraphic" /></filter></defs><g
     inkscape:label="Capa 1"
     inkscape:groupmode="layer"
     id="layer1"
     transform="translate(-1070.6931,-446.00525)"><path
       style="fill:#ffffff;fill-opacity:1"
       d="m 1181.5137,462.78779 c -0.1164,-0.0199 -0.3069,-0.11183 -0.4233,-0.2042 l -0.2117,-0.16794 0.6283,0.0426 c 0.7697,0.0522 1.2864,-0.0686 1.6179,-0.37822 0.44,-0.41105 0.3293,-0.82088 -0.4455,-1.64869 -0.3838,-0.41008 -0.9963,-1.18815 -0.9963,-1.26554 0,-0.0308 -0.1145,-0.17773 -0.2545,-0.32655 -0.14,-0.14882 -0.4119,-0.57537 -0.6042,-0.94791 -0.1923,-0.37253 -0.4004,-0.73608 -0.4623,-0.80789 -0.062,-0.0718 -0.1375,-0.34132 -0.1678,-0.5989 -0.066,-0.56287 0.09,-0.9354 0.4766,-1.13517 0.2814,-0.14553 0.7729,-0.0997 0.9274,0.0865 0.1513,0.18231 -0.1197,0.37851 -0.4489,0.32507 -0.4053,-0.0658 -0.5166,0.10715 -0.4438,0.68954 0.032,0.256 0.1069,0.49441 0.1666,0.52981 0.06,0.0354 0.2139,0.25486 0.3427,0.48769 0.2653,0.47943 0.6717,1.08329 0.9403,1.397 0.1,0.11642 0.2533,0.34231 0.3414,0.50199 0.088,0.15967 0.2762,0.40732 0.418,0.55033 0.1419,0.14301 0.414,0.46956 0.6047,0.72568 0.2833,0.38044 0.3478,0.5367 0.3525,0.85378 0.01,0.33411 -0.039,0.4372 -0.3133,0.74083 -0.1756,0.194 -0.3932,0.35296 -0.4835,0.35324 -0.09,2.9e-4 -0.2595,0.0496 -0.3759,0.1097 -0.2144,0.11056 -0.7982,0.15352 -1.1854,0.0872 z m -2.8896,-0.74054 c -0.6067,-0.33258 -0.785,-0.47032 -0.9075,-0.7013 -0.054,-0.10235 -0.2057,-0.24925 -0.3364,-0.32647 -0.2718,-0.16052 -0.6546,-0.89432 -0.575,-1.10193 0.043,-0.11182 0.1317,-0.0588 0.4557,0.27213 0.2212,0.22605 0.5637,0.54436 0.7611,0.70734 0.1973,0.16298 0.4561,0.38214 0.5751,0.48702 0.1191,0.10487 0.3287,0.24873 0.4659,0.31967 0.2597,0.13433 0.3278,0.38251 0.1436,0.52367 -0.072,0.0555 -0.2564,-10e-4 -0.5825,-0.18013 z m 0.392,-1.54354 c -0.5391,-0.60065 -1.0248,-1.468 -0.9424,-1.68276 0.1333,-0.34738 0.7074,0.16874 1.0143,0.9119 0.072,0.17463 0.1635,0.3175 0.2031,0.3175 0.083,0 0.2753,0.49287 0.2753,0.70451 0,0.23539 -0.1925,0.14753 -0.5503,-0.25115 z m 6.1082,-0.26286 c -0.082,-0.26776 -0.2833,-0.79163 -0.4467,-1.16416 -0.1634,-0.37254 -0.3303,-0.75354 -0.3709,-0.84667 -0.041,-0.0931 -0.1121,-0.34078 -0.1589,-0.55033 -0.1055,-0.4723 -0.2361,-0.97948 -0.4357,-1.69334 -0.2754,-0.98426 -0.2826,-1.07922 -0.088,-1.14113 0.2385,-0.0757 0.3441,0.009 0.3473,0.2783 0,0.12531 0.059,0.30179 0.127,0.39218 0.068,0.0904 0.1243,0.23379 0.1243,0.31865 0,0.0849 0.034,0.22046 0.076,0.30132 0.085,0.16586 0.3665,1.18079 0.5212,1.88268 0.056,0.25612 0.1634,0.57997 0.2375,0.71967 0.1373,0.25872 0.1535,0.31529 0.2178,0.762 0.02,0.1397 0.082,0.41505 0.1369,0.61189 0.099,0.35171 0.069,0.61578 -0.069,0.61578 -0.038,0 -0.1372,-0.21908 -0.2195,-0.48684 z m 1.9732,0.17774 c -0.1359,-0.0367 -0.5928,-1.13727 -0.9086,-2.18857 -0.098,-0.32597 -0.2407,-0.78317 -0.3173,-1.016 -0.077,-0.23283 -0.2291,-0.72813 -0.339,-1.10067 -0.1099,-0.37253 -0.3298,-1.05833 -0.4887,-1.524 -0.4304,-1.26097 -0.4368,-1.30309 -0.2091,-1.38841 0.1757,-0.0659 0.2057,-0.0341 0.3421,0.36178 0.082,0.23868 0.2251,0.59548 0.3175,0.79288 0.092,0.1974 0.168,0.45457 0.168,0.5715 0,0.11692 0.036,0.21259 0.08,0.21259 0.068,0 0.5415,1.35086 0.519,1.47993 0,0.0247 0.049,0.18144 0.1189,0.34836 0.07,0.16692 0.1694,0.54793 0.2214,0.84668 0.052,0.29876 0.1288,0.56431 0.1705,0.59011 0.042,0.0258 0.076,0.13039 0.076,0.23241 -10e-5,0.10203 0.074,0.33791 0.1655,0.52417 0.091,0.18627 0.2149,0.46249 0.2749,0.61384 0.1267,0.31927 0.2445,0.33726 0.9705,0.14816 0.5408,-0.14086 1.214,-0.16893 1.214,-0.0506 0,0.0905 -0.4578,0.26111 -0.7111,0.26504 -0.098,0.002 -0.3874,0.0765 -0.6436,0.16657 -0.4473,0.15736 -0.7395,0.19008 -1.0202,0.11424 z m -11.3402,-1.08683 c -0.1276,-0.15374 -0.054,-0.38207 0.1234,-0.38207 0.071,0 0.1302,0.0286 0.1309,0.0635 6e-4,0.0349 0.024,0.14922 0.052,0.254 0.06,0.22415 -0.1392,0.26614 -0.3065,0.0646 z m 14.6464,-0.23671 c 0,-0.10632 -0.1313,-0.83974 -0.2919,-1.62983 -0.1605,-0.7901 -0.3099,-1.61431 -0.3319,-1.8316 -0.022,-0.21729 -0.081,-0.4714 -0.1307,-0.5647 -0.05,-0.0933 -0.1291,-0.43978 -0.176,-0.76996 -0.047,-0.33017 -0.1202,-0.66661 -0.1631,-0.74763 -0.1035,-0.19518 -0.4008,-1.07401 -0.5126,-1.51489 -0.1495,-0.58934 0.1831,-1.06835 0.7397,-1.06533 0.1273,6.9e-4 0.2719,-0.0313 0.3212,-0.0711 0.1142,-0.092 0.5658,0.0254 0.6102,0.15857 0.018,0.0554 -0.055,0.14067 -0.1638,0.18952 -0.1086,0.0489 -0.2926,0.14378 -0.4091,0.21094 -0.1164,0.0672 -0.2951,0.12268 -0.3971,0.12337 -0.2588,0.002 -0.3021,0.11364 -0.1961,0.50729 0.088,0.32774 0.1933,0.42365 0.2909,0.26572 0.1348,-0.21819 0.9797,-0.13464 0.9797,0.0969 0,0.14038 -0.4352,0.40135 -0.6693,0.40135 -0.1443,0 -0.1774,0.0522 -0.1774,0.2794 0,0.15367 0.032,0.31559 0.072,0.35983 0.039,0.0442 0.1563,0.42333 0.2597,0.84243 0.1035,0.4191 0.2223,0.89535 0.264,1.05834 0.042,0.16298 0.095,0.58208 0.1178,0.93133 0.023,0.34925 0.1016,0.8595 0.1745,1.13388 0.073,0.27439 0.1128,0.51853 0.089,0.54254 -0.024,0.024 0,0.0943 0.05,0.15621 0.051,0.0619 0.07,0.17321 0.042,0.24735 -0.09,0.23324 0.036,0.56169 0.1914,0.50117 0.2596,-0.10108 1.45,-0.15095 1.45,-0.0607 0,0.12295 -0.1996,0.18604 -1.016,0.321 -0.9744,0.1611 -1.016,0.15819 -1.016,-0.0714 z m 3.6391,-0.20886 c -0.01,-0.27741 -0.3611,-2.36076 -0.4642,-2.7305 -0.1547,-0.5553 -0.2907,-1.26232 -0.3375,-1.75454 -0.019,-0.19664 -0.079,-0.57764 -0.1332,-0.84667 -0.054,-0.26902 -0.1491,-0.81298 -0.21,-1.20879 -0.061,-0.39582 -0.1706,-1.02447 -0.2437,-1.397 -0.2432,-1.24003 -0.2456,-1.27694 -0.097,-1.50301 0.1244,-0.18996 0.1891,-0.21022 0.6109,-0.19147 0.2595,0.0115 0.4962,0.0589 0.5261,0.10519 0.03,0.0463 0.1686,0.10315 0.3083,0.12628 0.1397,0.0231 0.3162,0.0689 0.3922,0.10163 0.1261,0.0543 0.1283,0.0166 0.025,-0.42622 -0.1278,-0.54986 -0.1072,-0.6254 0.1704,-0.6254 0.1701,0 0.2053,0.0549 0.2572,0.40069 0.033,0.22039 0.1487,0.63611 0.257,0.92384 0.1083,0.28773 0.1778,0.54226 0.1544,0.56562 -0.023,0.0234 0.014,0.13152 0.083,0.24033 0.069,0.10882 0.1696,0.42645 0.2229,0.70585 0.053,0.2794 0.1303,0.5842 0.1713,0.67733 0.078,0.17698 0.1273,0.42373 0.2547,1.27 0.1031,0.6847 0.127,0.78957 0.1957,0.85833 0.032,0.0324 0.059,0.16099 0.059,0.28578 0,0.12478 0.063,0.35238 0.1392,0.50577 0.076,0.15339 0.1459,0.34022 0.1541,0.41517 0.01,0.075 0.039,0.19344 0.068,0.26329 0.029,0.0698 0.09,0.3937 0.1359,0.71966 0.046,0.32597 0.1407,0.86586 0.2109,1.19976 0.08,0.37936 0.1021,0.69697 0.059,0.84667 l -0.069,0.23957 -0.095,-0.23657 c -0.052,-0.13011 -0.1122,-0.32061 -0.1338,-0.42333 -0.1773,-0.84551 -0.4247,-1.76598 -0.6339,-2.35885 -0.2378,-0.67386 -0.3455,-1.05118 -0.5161,-1.80725 -0.1125,-0.49848 -0.1406,-0.63965 -0.2066,-1.03672 -0.033,-0.19767 -0.091,-0.37878 -0.1293,-0.40247 -0.038,-0.0237 -0.1147,-0.31916 -0.1696,-0.65661 -0.1149,-0.70581 -0.3265,-1.51157 -0.4247,-1.61729 -0.037,-0.0398 -0.3281,-0.10327 -0.6468,-0.14098 -0.3187,-0.0377 -0.6989,-0.0947 -0.8449,-0.1267 l -0.2653,-0.0581 0.065,0.32612 c 0.036,0.17937 0.1252,0.48872 0.1987,0.68745 0.073,0.19873 0.1116,0.41829 0.085,0.48791 -0.027,0.0696 -0.01,0.17716 0.045,0.23896 0.1134,0.13669 0.4567,2.01828 0.4397,2.4104 -0.013,0.29508 0.097,0.98033 0.2939,1.83541 0.064,0.2794 0.1356,0.83185 0.1583,1.22766 0.023,0.39582 0.064,0.87207 0.092,1.05834 0.059,0.39326 -0.014,0.889 -0.1311,0.889 -0.044,0 -0.082,-0.0286 -0.082,-0.0635 z m -16.5084,-0.81612 c 0,-0.0647 0.075,-0.20757 0.1665,-0.3175 0.1446,-0.17359 0.1669,-0.17966 0.1694,-0.0462 0,0.19546 -0.1474,0.48127 -0.2542,0.48127 -0.045,0 -0.082,-0.0529 -0.082,-0.11762 z m 22.0343,-0.53587 c -0.252,-0.0471 -0.574,-0.48402 -0.6968,-0.94522 -0.054,-0.20407 -0.1325,-0.43267 -0.1738,-0.508 -0.12,-0.21912 -0.4857,-1.53015 -0.5812,-2.08429 -0.1366,-0.79164 -0.2939,-2.45454 -0.3204,-3.38667 -0.013,-0.46567 -0.037,-1.05586 -0.054,-1.31154 -0.061,-0.95551 0.2411,-1.36063 0.9187,-1.23352 0.2897,0.0543 0.8003,0.49917 0.8011,0.69785 8e-4,0.21244 -0.3216,0.20523 -0.5389,-0.012 -0.1183,-0.11829 -0.312,-0.21507 -0.4306,-0.21507 -0.1985,0 -0.2167,0.0317 -0.2306,0.40216 -0.015,0.41001 -0.01,0.51582 0.051,1.03717 0.058,0.49284 0.1651,2.12578 0.1758,2.667 0.01,0.40454 0.1146,1.4372 0.1705,1.651 0.01,0.0233 0.064,0.21378 0.1286,0.42333 0.065,0.20955 0.1229,0.4191 0.1293,0.46567 0.01,0.0466 0.031,0.14182 0.056,0.21167 0.1089,0.31603 0.2576,0.98887 0.2513,1.13692 -0.01,0.201 0.2307,0.61984 0.3887,0.68045 0.166,0.0637 0.374,-0.0721 0.5698,-0.37213 0.16,-0.24506 0.2979,-0.33687 0.2951,-0.19641 0,0.12962 -0.227,0.70645 -0.302,0.77637 -0.1121,0.10443 -0.3866,0.15656 -0.6071,0.11531 z m 2.9123,-1.06101 c -0.027,-0.19791 -0.073,-0.64559 -0.1012,-0.99484 -0.029,-0.34925 -0.1047,-0.80645 -0.1693,-1.016 -0.064,-0.20955 -0.1946,-0.8763 -0.289,-1.48166 -0.094,-0.60537 -0.2166,-1.32927 -0.2716,-1.60867 -0.055,-0.2794 -0.1277,-0.75565 -0.1615,-1.05833 -0.034,-0.30269 -0.1457,-0.95958 -0.2485,-1.45976 -0.1989,-0.96791 -0.1862,-1.16491 0.075,-1.16491 0.1339,0 0.1751,0.0818 0.2238,0.4445 0.033,0.24447 0.094,0.48644 0.1349,0.53771 0.041,0.0513 0.099,0.27986 0.1292,0.508 0.03,0.22813 0.085,0.45436 0.1226,0.50273 0.038,0.0484 0.112,0.35317 0.1651,0.67733 0.053,0.32417 0.1137,0.68465 0.1347,0.80106 0.021,0.11642 0.054,0.45932 0.073,0.762 0.048,0.75155 0.1251,1.31026 0.257,1.86267 0.1321,0.55351 0.2447,2.49664 0.1634,2.82048 -0.084,0.33284 -0.1819,0.27819 -0.2381,-0.13231 z m 2.4531,-0.006 c -0.1452,-0.15459 -0.3069,-0.37367 -0.3593,-0.48683 -0.1453,-0.31373 -0.3704,-1.12857 -0.3704,-1.34061 0,-0.10374 -0.034,-0.25279 -0.075,-0.33122 -0.065,-0.12286 -0.2228,-4.94077 -0.1936,-5.89993 0.036,-1.18289 0.1083,-1.5433 0.3608,-1.80163 0.1369,-0.13998 0.3871,-0.32008 0.556,-0.40023 0.269,-0.12765 0.3492,-0.13181 0.647,-0.0335 0.3745,0.12361 0.7369,0.46016 0.7369,0.68437 0,0.0792 0.034,0.16486 0.075,0.19033 0.041,0.0255 0.095,0.15153 0.12,0.28016 0.025,0.12863 0.088,0.38627 0.1398,0.57254 0.093,0.33451 0.1184,0.83729 0.2225,4.48733 0.061,2.13542 -0.066,3.2026 -0.4513,3.7844 -0.431,0.65132 -0.9679,0.76372 -1.4082,0.29486 z m 1.0441,-0.73493 c 0.073,-0.20955 0.1568,-0.4191 0.186,-0.46566 0.058,-0.0924 0.2042,-1.44551 0.1786,-1.651 -0.067,-0.53788 -0.072,-2.22864 -0.011,-3.39444 0.086,-1.61814 -0.028,-2.56097 -0.3927,-3.26453 -0.2567,-0.49488 -0.545,-0.66851 -0.6819,-0.4107 -0.052,0.0986 -0.1629,0.16169 -0.2646,0.15103 -0.2815,-0.0295 -0.4594,0.25456 -0.5246,0.83751 -0.069,0.61253 -0.057,2.6791 0.018,3.37179 0.028,0.25612 0.07,0.99301 0.094,1.63754 0.063,1.72113 0.1917,2.54143 0.4889,3.12634 0.2331,0.45861 0.2709,0.4931 0.5139,0.46907 0.2266,-0.0224 0.2803,-0.0777 0.3951,-0.40695 z m 1.6975,0.42334 c 0,-0.0931 0,-0.19696 -0.01,-0.23072 0,-0.0338 0.035,-0.075 0.085,-0.0917 0.052,-0.0173 0.091,0.0822 0.091,0.23071 0,0.14358 -0.038,0.26106 -0.085,0.26106 -0.047,0 -0.085,-0.0762 -0.085,-0.16933 z m 2.2225,-0.65304 c -0.2201,-0.0417 -0.2419,-0.13021 -0.067,-0.27492 0.1733,-0.1439 0.4274,-0.0739 0.4274,0.11773 0,0.17806 -0.076,0.21105 -0.3599,0.15719 z m -2.0999,-1.1038 c 0.034,-0.36089 0.094,-1.41816 0.134,-2.3495 0.04,-0.93133 0.1056,-1.82668 0.1455,-1.98966 0.04,-0.16299 0.06,-0.44387 0.045,-0.62419 -0.015,-0.18032 0.03,-0.55527 0.1016,-0.83322 0.071,-0.27795 0.1126,-0.5326 0.092,-0.56587 -0.058,-0.0938 0.1302,-1.90459 0.2064,-1.98564 0.1163,-0.12379 0.4349,0.028 0.3875,0.18458 -0.024,0.0777 -0.062,0.67474 -0.086,1.32667 -0.06,1.62105 -0.1219,2.3512 -0.2599,3.048 -0.064,0.32597 -0.1356,1.03777 -0.1579,1.58178 -0.022,0.54401 -0.076,1.05836 -0.1198,1.143 -0.043,0.0846 -0.1046,0.38249 -0.1357,0.66189 -0.1228,1.10059 -0.4523,1.47712 -0.352,0.40216 z m 2.1907,-0.59266 c 0.025,-0.12806 0.086,-0.41747 0.1356,-0.64313 0.049,-0.22566 0.1118,-0.70191 0.1397,-1.05833 0.028,-0.35642 0.1045,-0.91474 0.1703,-1.24071 0.066,-0.32597 0.1197,-0.71401 0.1197,-0.86232 10e-5,-0.14831 0.042,-0.37691 0.093,-0.508 0.051,-0.13109 0.1068,-0.42885 0.1234,-0.66168 0.017,-0.23283 0.055,-0.64241 0.084,-0.91017 0.053,-0.47118 0.062,-0.48683 0.3056,-0.48683 0.1998,0 0.2423,0.0304 0.2072,0.14817 -0.024,0.0815 -0.05,0.45296 -0.057,0.8255 -0.01,0.37253 -0.046,0.86783 -0.086,1.10066 -0.041,0.23284 -0.091,0.58338 -0.113,0.779 -0.022,0.19561 -0.076,0.42421 -0.1206,0.508 -0.082,0.15309 -0.2043,0.96057 -0.2043,1.34584 0,0.11362 -0.033,0.22719 -0.074,0.25237 -0.041,0.0252 -0.074,0.12025 -0.074,0.21127 0,0.091 -0.035,0.23164 -0.077,0.3125 -0.042,0.0809 -0.1223,0.31847 -0.1781,0.52802 -0.056,0.20955 -0.1401,0.42863 -0.1876,0.48684 -0.1484,0.18206 -0.2561,0.11617 -0.2076,-0.127 z"
       id="path1" /></g></svg>
