<?xml version="1.0" encoding="UTF-8" standalone="no"?>
<!-- Created with Inkscape (http://www.inkscape.org/) -->

<svg
   version="1.1"
   id="svg1"
   width="92.160004"
   height="52.16"
   viewBox="0 0 92.160004 52.16"
   sodipodi:docname="ARMADILLO_.svg"
   inkscape:version="1.3.2 (091e20ef0f, 2023-11-25, custom)"
   xmlns:inkscape="http://www.inkscape.org/namespaces/inkscape"
   xmlns:sodipodi="http://sodipodi.sourceforge.net/DTD/sodipodi-0.dtd"
   xmlns="http://www.w3.org/2000/svg"
   xmlns:svg="http://www.w3.org/2000/svg">
  <defs
     id="defs1" />
  <sodipodi:namedview
     id="namedview1"
     pagecolor="#505050"
     bordercolor="#ffffff"
     borderopacity="1"
     inkscape:showpageshadow="0"
     inkscape:pageopacity="0"
     inkscape:pagecheckerboard="1"
     inkscape:deskcolor="#505050"
     inkscape:zoom="5.8847373"
     inkscape:cx="52.168854"
     inkscape:cy="16.483319"
     inkscape:window-width="1920"
     inkscape:window-height="1052"
     inkscape:window-x="0"
     inkscape:window-y="0"
     inkscape:window-maximized="1"
     inkscape:current-layer="g1" />
  <g
     inkscape:groupmode="layer"
     inkscape:label="Image"
     id="g1">
    <path
       style="fill:#ffffff;fill-opacity:1"
       d="m 20.592018,49.594829 c -0.96212,-0.395035 -5.044425,-4.44364 -5.044425,-5.002783 0,-0.192249 0.232964,-0.743922 0.517699,-1.225939 0.474386,-0.803071 0.475524,-1.061822 0.0136,-3.092732 -0.429801,-1.889693 -0.442542,-2.45165 -0.08645,-3.812979 l 0.417653,-1.596641 0.196647,2.4 c 0.108156,1.32 0.289218,3.269816 0.402358,4.332924 0.166786,1.567175 0.107356,2.014552 -0.314079,2.364312 -0.467422,0.387927 -0.376812,0.58006 0.899378,1.907076 0.780542,0.811628 1.786773,1.907688 2.236068,2.435688 0.631481,0.742099 0.819196,0.832891 0.827013,0.4 0.0056,-0.308 0.135213,-0.56 0.288114,-0.56 0.152901,0 0.0449,-0.797511 -0.24,-1.772246 -0.384798,-1.316516 -0.697092,-1.817641 -1.21445,-1.94878 -0.383048,-0.09709 -0.924059,-0.428039 -1.202248,-0.735434 -0.465763,-0.514663 -0.392013,-0.784666 0.93176,-3.41122 1.658039,-3.289785 1.881535,-3.194255 0.479766,0.205069 -1.146256,2.779699 -1.117011,2.83258 2.019995,3.652626 1.195054,0.312399 2.662691,0.900431 3.261417,1.306737 0.872673,0.592212 1.04866,0.632078 0.887262,0.200993 -0.175453,-0.468627 -0.131934,-0.481296 0.338583,-0.09856 0.625603,0.508884 0.731226,0.06055 0.139914,-0.593885 -0.24539,-0.271587 -0.02894,-0.226097 0.56,0.117691 l 0.96,0.560395 -0.971003,-0.901692 c -0.534051,-0.49593 -1.447713,-1.262919 -2.030359,-1.704421 l -1.059357,-0.802729 1.179745,-1.753094 1.179745,-1.753093 -2.029386,-0.401985 C 21.770516,37.841371 17.66881,35.888647 15.39756,34.149495 l -1.590032,-1.217526 -2.048737,1.087884 c -1.126805,0.598336 -2.5520474,1.644987 -3.1672044,2.325893 -0.615157,0.680905 -1.372079,1.238009 -1.682049,1.238009 -0.309972,0 -0.745052,0.218657 -0.966842,0.485905 -0.59265,0.714095 -2.4753,1.53319 -3.03251,1.319369 -0.68316,-0.262153 -0.60041,-0.90236 0.28537,-2.20762 0.42238,-0.622411 0.86408,-1.434506 0.98156,-1.804655 0.11748,-0.37015 0.3479,-0.672999 0.51204,-0.672999 0.16414,0 0.29844,-0.193682 0.29844,-0.430404 0,-0.236722 0.288,-0.69104 0.64,-1.009596 0.352,-0.318556 0.64,-0.756312 0.64,-0.972793 0,-0.21648 0.36,-0.629482 0.799996,-0.917781 0.44,-0.288299 0.8,-0.786542 0.8,-1.107207 0,-0.652483 0.951897,-1.642219 1.579434,-1.642219 0.277617,0 0.323528,-0.179925 0.142892,-0.56 C 8.9135596,26.640631 9.3120086,24.64727 10.957484,21.222103 14.29852,14.267511 17.724093,10.397856 22.649053,8.0148693 25.628111,6.573426 30.62378,4.943755 32.063391,4.943755 c 0.420311,0 0.764202,-0.1406804 0.764202,-0.3126231 0,-0.9606161 4.906409,-2.2429374 8.594237,-2.246159 1.107562,-9.675e-4 1.356364,-0.099913 1.210043,-0.4812179 -0.121171,-0.315767 0.0105,-0.48 0.384839,-0.48 0.983853,0 5.876241,1.3295325 7.395764,2.0098381 0.800315,0.358309 1.688387,0.622798 1.973494,0.5877534 0.285107,-0.035045 1.149107,0.4153317 1.92,1.0008362 1.207415,0.9170489 1.523035,1.0213314 2.277854,0.7526157 1.11535,-0.3970652 3.248994,0.4402073 7.923771,3.1094009 4.838038,2.7624137 6.836503,4.1792687 9.57528,6.7886037 1.956797,1.864312 2.524395,2.246338 2.941225,1.979609 0.733218,-0.469186 1.499403,-0.08001 2.13519,1.084556 0.301568,0.552378 1.301841,2.128059 2.22283,3.501513 2.535172,3.780658 4.480371,7.916323 6.230814,13.247258 1.422556,4.332362 1.555444,4.979295 1.318342,6.418016 l -0.26368,1.6 -1.544728,0.09854 c -1.422576,0.09075 -1.632932,0.005 -2.660177,-1.084179 -1.008568,-1.069393 -1.412474,-1.241125 -4.215273,-1.792232 -3.769743,-0.741235 -6.095095,-1.814292 -7.507559,-3.464438 l -1.064217,-1.243299 -1.823287,0.919684 c -1.002807,0.505827 -2.610412,1.018029 -3.572454,1.138229 l -1.749168,0.218544 0.673967,1.324574 c 0.370681,0.728516 1.641945,2.289993 2.82503,3.46995 2.808376,2.800951 3.934301,5.112113 2.717865,5.578903 -0.264,0.101307 -0.732,0.06902 -1.04,-0.07175 -0.308,-0.140772 -0.727022,-0.266115 -0.931161,-0.278541 -0.204138,-0.01243 -0.636138,-0.260045 -0.96,-0.550263 -0.323861,-0.290219 -1.344613,-1.034392 -2.268335,-1.653717 -1.428538,-0.957787 -1.626859,-1.021745 -1.327231,-0.428025 0.193746,0.383911 0.996426,1.304422 1.783735,2.045579 1.177569,1.108542 1.359235,1.424885 1.024219,1.783522 -0.39614,0.424068 -0.863312,0.433733 -3.744604,0.07747 -1.453602,-0.179735 -2.616805,-0.665009 -3.011724,-1.256453 -0.129304,-0.193653 -0.237304,-0.832767 -0.24,-1.420255 -0.0027,-0.587487 -0.525611,-2.243487 -1.162037,-3.68 -0.650492,-1.468262 -1.175904,-3.191867 -1.2,-3.936575 -0.04259,-1.316176 -0.05423,-1.328278 -1.802863,-1.873309 -2.255664,-0.703068 -4.706763,-2.022478 -5.404089,-2.908984 -0.430946,-0.547859 -1.012417,-0.7342 -2.770661,-0.887899 -3.642715,-0.318432 -4.899946,-0.564909 -5.292175,-1.037516 -0.43071,-0.518973 -1.445027,-0.593628 -1.733075,-0.127557 -0.108774,0.176 -0.474529,0.32 -0.812789,0.32 -0.680581,0 -1.146391,-1.22641 -0.82013,-2.159285 0.107856,-0.308393 -0.992614,0.673419 -2.445489,2.181805 -2.477901,2.572574 -4.682578,4.33485 -6.161593,4.925179 -0.352,0.140497 -1.39927,0.41674 -2.327266,0.613874 -1.613269,0.342708 -1.721138,0.431567 -2.459592,2.026154 l -0.772326,1.667726 1.543089,1.132732 c 2.728889,2.003189 3.246957,3.56935 1.677943,5.072561 l -0.898153,0.860485 -0.941847,-1.279505 c -0.5276,-0.716747 -1.638016,-1.631853 -2.524678,-2.080615 -2.616754,-1.324406 -2.888172,-1.059745 -1.784562,1.740134 0.913931,2.318663 0.54949,2.888991 -1.348183,2.109829 z M 63.66861,48.289955 c 0.155334,-0.404792 0.320125,-0.426156 0.914237,-0.118525 0.635088,0.328849 0.612707,0.255798 -0.180913,-0.590494 -0.569374,-0.607163 -0.970865,-1.451897 -1.081261,-2.274966 -0.137753,-1.027021 -0.425348,-1.496178 -1.33434,-2.176725 -0.637306,-0.47714 -1.635404,-1.223771 -2.217996,-1.659178 l -1.059258,-0.79165 0.847536,1.892669 c 1.312494,2.93099 1.430979,3.29919 1.430979,4.446834 0,0.878752 0.158974,1.130564 0.88,1.393905 1.257252,0.459187 1.586596,0.436902 1.801016,-0.12187 z m 5.124091,-2.1462 c 0.23546,0.712252 1.154894,1.024723 1.154894,0.392493 0,-0.180129 -1.131524,-1.512129 -2.514497,-2.96 -2.653007,-2.777504 -3.245503,-3.629826 -3.245503,-4.668746 0,-0.582892 -0.250177,-0.647247 -2.880735,-0.741037 -1.967158,-0.07014 -2.880502,0.01046 -2.88,0.254135 0.0014,0.679896 1.338572,2.052025 3.464687,3.555262 1.174826,0.830643 2.332518,1.778085 2.572649,2.105426 0.240131,0.327342 1.176131,1.07153 2.08,1.653753 1.606686,1.034938 1.647499,1.043285 1.826941,0.37365 l 0.183541,-0.684936 z m 18.194398,-3.810538 c -0.150485,-0.575457 -0.0701,-0.661647 0.482358,-0.517176 0.955315,0.24982 1.104999,-0.727562 0.443956,-2.898871 -0.463395,-1.522102 -0.69921,-1.850628 -1.497898,-2.086801 -2.958197,-0.874744 -4.113515,-2.014065 -4.513452,-4.450957 -0.223791,-1.3636 -1.155106,-1.837536 -2.35207,-1.196941 -0.383466,0.205225 -0.77026,0.300088 -0.859542,0.210806 -0.272199,-0.272199 1.619093,-1.065135 2.217144,-0.929551 0.699767,0.158643 0.724688,-0.502442 0.05499,-1.458576 -0.418184,-0.597041 -0.693284,-0.68569 -1.6,-0.515589 -1.38964,0.260698 -1.422503,-0.246152 -0.05499,-0.848057 1.004292,-0.442032 1.038792,-0.519921 1.004804,-2.268469 -0.02767,-1.423447 -0.273359,-2.244739 -1.148737,-3.84 -0.612447,-1.116104 -1.302118,-2.02928 -1.532602,-2.02928 -0.825721,0 -1.346207,2.391539 -1.13171,5.2 0.117792,1.542272 0.07904,2.64 -0.09319,2.64 -0.669817,0 -0.955784,-5.361793 -0.36837,-6.90681 0.295904,-0.778287 0.27686,-0.824211 -0.183388,-0.442239 -0.28247,0.234429 -0.796593,0.980984 -1.142497,1.659011 -0.555916,1.089685 -0.618202,1.779319 -0.536612,5.941407 0.09494,4.842868 0.04287,5.12395 -1.3592,7.338059 -0.398226,0.628866 -0.376203,0.810562 0.193937,1.6 0.979535,1.356303 4.371205,2.910673 7.662916,3.511842 2.478393,0.452632 3.006983,0.666035 3.834651,1.548129 1.423853,1.517481 2.789387,1.925055 2.479504,0.740063 z M 3.6061856,38.163755 c -0.10215,-0.255275 -0.17798,-0.179449 -0.19333,0.193333 -0.0139,0.337334 0.0617,0.526334 0.16807,0.42 0.10633,-0.106333 0.1177,-0.382333 0.0253,-0.613333 z m 1.5075,-1.124363 c -0.75049,-0.548769 -1.35547,-0.0058 -0.77407,0.694747 0.32806,0.395298 0.50872,0.417979 0.87933,0.110398 0.40431,-0.335544 0.39028,-0.442795 -0.10526,-0.805145 z M 30.766713,36.623828 c 1.45193,-0.704007 2.718714,-1.754311 5.042072,-4.180432 l 3.102951,-3.240198 -0.502391,-1.809722 C 38.13303,26.39813 37.785045,23.271225 37.636046,20.4448 37.315624,14.366614 37.123066,13.537548 34.975423,8.9893583 L 33.334822,5.514962 31.939063,5.706272 C 29.652575,6.01967 23.723976,8.1255973 21.604413,9.3772953 17.465069,11.821764 13.284167,17.268448 10.802159,23.449965 l -1.0913944,2.718151 0.6510154,1.339986 c 1.529489,3.148149 6.83829,7.608225 10.848639,9.114253 4.028648,1.5129 6.438392,1.513271 9.556294,0.0015 z m 37.580882,0.17937 c 2.113276,-0.771466 3.629784,-1.935101 4.469822,-3.429747 0.70203,-1.249093 0.732722,-1.546523 0.560103,-5.427833 -0.206076,-4.63358 0.02384,-5.879417 1.452057,-7.868171 0.931754,-1.297445 0.948365,-1.378667 0.440468,-2.153816 -1.542832,-2.354658 -9.352,-7.788191 -14.954964,-10.4054987 -3.339005,-1.5597457 -3.473952,-1.5234535 -4.111116,1.105623 -0.298579,1.232 -1.133002,3.9089697 -1.854274,5.9488227 -1.574962,4.454201 -3.820426,13.232776 -4.111493,16.073762 -0.207347,2.023827 -0.196153,2.063016 0.952466,3.3344 1.278881,1.415569 3.416975,2.466339 6.406453,3.148465 2.569738,0.586351 8.765971,0.398451 10.750478,-0.326007 z M 6.4336256,35.906156 c -0.74398,-0.381683 -1.31421,-0.502222 -1.49947,-0.316965 -0.38294,0.382944 1.57849,1.363237 2.22854,1.11379 0.326249,-0.125194 0.101694,-0.370618 -0.72907,-0.796825 z m 80.4739694,0.103096 c 0,-1.485532 -4.118247,-10.669906 -5.74381,-12.809646 -0.589521,-0.775992 -0.591031,-0.766081 -0.145161,0.952793 0.338357,1.3044 0.365946,1.993315 0.110789,2.766448 -0.271082,0.821386 -0.237211,1.186027 0.167545,1.803764 0.279023,0.425842 0.659774,1.639792 0.846115,2.697668 0.421529,2.393058 1.270188,3.826236 2.610825,4.409048 1.200593,0.521931 2.153697,0.601556 2.153697,0.179925 z M 8.6675916,35.090812 c 0,-0.227119 -0.445676,-0.695125 -0.990391,-1.040014 -0.976985,-0.618581 -0.997935,-0.618739 -1.547365,-0.01162 -0.53454,0.590653 -0.52042,0.63553 0.35039,1.113628 1.044998,0.573737 2.187366,0.541359 2.187366,-0.062 z m 1.162134,-2.639051 c -1.025986,-1.080401 -1.235058,-1.176292 -1.784596,-0.818502 -0.998343,0.649995 -0.930444,1.050701 0.322279,1.901949 0.953717,0.648067 1.314336,0.737251 1.9007404,0.470068 0.722573,-0.329226 0.721885,-0.331666 -0.4384234,-1.553515 z m 2.8390044,0.170624 c 0.331998,-0.400034 0.189925,-0.719362 -0.840818,-1.889858 -1.27061,-1.442885 -2.3195904,-1.809001 -2.9627374,-1.034057 -0.283493,0.341588 -0.02062,0.752898 1.2271094,1.92 1.735873,1.623705 1.982357,1.719748 2.576446,1.003915 z m 36.896459,-2.014327 c 0.231288,-2.999281 2.575721,-12.268956 4.373204,-17.291253 0.713948,-1.994823 1.42387,-4.1867657 1.577604,-4.8709847 0.271843,-1.209888 0.240107,-1.2763278 -1.156223,-2.420515 -1.509049,-1.2365523 -1.996053,-1.1429987 -2.00728,0.3855998 -0.0081,1.0986952 -1.161899,4.2831809 -2.897235,7.9961589 -2.334437,4.99483 -3.207417,8.181742 -3.499878,12.776691 -0.134425,2.112 -0.351589,4.162566 -0.482587,4.556814 -0.288505,0.868276 0.565767,1.311662 2.58737,1.342902 l 1.312571,0.02028 z m -4.655508,0.580737 c 0.218852,-0.701229 0.398922,-2.537229 0.400155,-4.08 0.0028,-3.523757 0.837753,-7.082868 2.582456,-11.008311 2.577879,-5.800023 3.497772,-8.2054247 3.698757,-9.671767 L 51.794016,4.9479128 50.070805,4.1645915 c -1.906668,-0.8667157 -5.966286,-1.9644288 -6.2427,-1.6880146 -0.09703,0.097033 0.0043,1.0158427 0.225077,2.0418004 0.220825,1.0259577 0.396159,3.305378 0.389632,5.065378 -0.01031,2.7808577 -0.150878,3.5981847 -1.07317,6.2399997 -0.974736,2.792036 -1.061123,3.353218 -1.059094,6.88 0.0044,7.698565 0.10622,9.081096 0.693844,9.42377 1.022364,0.596194 1.499628,0.361047 1.905287,-0.93873 z m -3.281139,-1.076169 c 0.09805,-0.554879 0.05384,-2.541542 -0.09824,-4.414807 -0.338719,-4.172265 -0.04567,-6.830618 1.073135,-9.734934 1.05009,-2.725928 1.397549,-7.3909327 0.799672,-10.7364472 C 42.951402,2.698836 43.24665,2.8212222 38.899196,3.3594761 36.350519,3.6750253 33.78759,4.2585841 33.78759,4.5233489 c 0,0.065059 0.703316,1.590266 1.562924,3.3893484 2.450202,5.1280487 2.637299,5.8784437 2.92991,11.7510577 0.184282,3.698491 0.469098,6.044163 0.95088,7.831222 0.378289,1.403172 0.611208,2.934172 0.517598,3.402222 -0.09361,0.46805 -0.0887,0.932505 0.01092,1.032123 0.39962,0.39962 1.700569,-0.865114 1.868715,-1.816696 z M 78.107595,18.383755 c -0.108774,-0.176 -0.369272,-0.317795 -0.578885,-0.3151 -0.228997,0.0029 -0.189528,0.128713 0.09888,0.3151 0.61476,0.397288 0.725538,0.397288 0.48,0 z"
       id="path1" />
  </g>
</svg>
