<?xml version="1.0" encoding="UTF-8" standalone="no"?>
<!-- Created with Inkscape (http://www.inkscape.org/) -->

<svg
   width="141.9971mm"
   height="198.09349mm"
   viewBox="0 0 141.9971 198.09349"
   version="1.1"
   id="svg1"
   inkscape:version="1.4.2 (ebf0e940d0, 2025-05-08)"
   sodipodi:docname="DD.svg"
   xmlns:inkscape="http://www.inkscape.org/namespaces/inkscape"
   xmlns:sodipodi="http://sodipodi.sourceforge.net/DTD/sodipodi-0.dtd"
   xmlns="http://www.w3.org/2000/svg"
   xmlns:svg="http://www.w3.org/2000/svg">
  <sodipodi:namedview
     id="namedview1"
     pagecolor="#ffffff"
     bordercolor="#000000"
     borderopacity="0.25"
     inkscape:showpageshadow="2"
     inkscape:pageopacity="0.0"
     inkscape:pagecheckerboard="true"
     inkscape:deskcolor="#d1d1d1"
     inkscape:document-units="mm"
     inkscape:zoom="0.41671961"
     inkscape:cx="633.5195"
     inkscape:cy="338.35701"
     inkscape:window-width="1920"
     inkscape:window-height="1008"
     inkscape:window-x="0"
     inkscape:window-y="0"
     inkscape:window-maximized="1"
     inkscape:current-layer="layer1" />
  <defs
     id="defs1">
    <clipPath
       clipPathUnits="userSpaceOnUse"
       id="clipPath15986-0">
      <path
         d="M 0,612 H 480 V 0 H 0 Z"
         transform="translate(-313.29826,-425.01761)"
         id="path15986-9" />
    </clipPath>
    <clipPath
       clipPathUnits="userSpaceOnUse"
       id="clipPath15988-3">
      <path
         d="M 0,612 H 480 V 0 H 0 Z"
         transform="translate(-431.02951,-318.12961)"
         id="path15988-6" />
    </clipPath>
    <clipPath
       clipPathUnits="userSpaceOnUse"
       id="clipPath15990-0">
      <path
         d="M 0,612 H 480 V 0 H 0 Z"
         transform="matrix(1,0,0,-1,-39.911251,86.2495)"
         id="path15990-6" />
    </clipPath>
  </defs>
  <g
     inkscape:label="Capa 1"
     inkscape:groupmode="layer"
     id="layer1"
     transform="translate(-37.916864,-40.572957)">
    <path
       id="path15985"
       d="m 0,0 c -2.425,3.167 -3.506,4.858 -6.557,10.187 -2.26,4.041 -2.73,4.511 -3.704,4.494 -1.435,-0.115 -1.509,-0.618 -2.598,-11.324 -1.204,-12.462 -3.745,-6.746 -4.354,-6.004 -0.553,0.61 -0.339,3.976 -4.933,10.549 -4.264,4.28 -3.01,2.309 -6.59,5.542 -2.482,2.227 -5.047,3.943 -10.417,6.961 -5.287,2.987 -5.724,3.292 -7.481,5.395 -1.839,2.12 -3.307,4.478 -4.718,7.341 -1.377,2.878 -2.202,5.459 -2.961,9.229 -1.163,5.963 -3.901,10.912 -8.726,15.993 -1.691,1.798 -4.99,4.635 -5.138,4.446 -0.05,-0.026 -0.331,-1.147 -0.677,-2.459 -2.079,-8.149 -6.095,-17.774 -9.757,-23.415 -2.277,-3.473 -4.338,-5.873 -7.135,-8.24 -5.014,-4.223 -13.345,-13.321 -14.78,-16.158 -0.263,-0.519 -1.312,-3.126 -2.359,-5.708 -0.964,-2.614 -2.235,-5.641 -2.738,-6.804 -0.891,-1.831 -2.112,-3.505 -2.458,-3.547 -0.643,0.067 -1.789,3.728 -2.433,7.918 -1.386,9.041 -1.345,14.475 0.14,24.208 0.346,2.136 0.561,4.248 0.495,4.627 -0.149,0.883 -1.023,1.707 -1.765,1.509 -1.394,-0.33 -3.794,-3.752 -9.898,-14.038 -2.086,-3.612 -5.459,-9.221 -7.472,-12.544 -4.338,-7.234 -6.318,-10.789 -9.147,-16.307 -7.81,-15.481 -12.504,-30.105 -14.458,-44.918 -0.504,-4.149 -0.759,-14.681 -0.446,-18.36 1.427,-14.87 5.003,-28.687 13.168,-40.596 5.873,-8.628 15.262,-15.852 25.086,-23.135 2.87,-2.129 21.253,-15.21 48.638,-15.149 28.031,0.064 40.027,10.315 48.662,15.495 6.302,3.894 10.632,7.234 16.068,12.801 7.959,8.025 23.871,23.546 23.811,57.682 C 22.323,-38.659 12.718,-16.496 0,0"
       style="display:inline;fill:#ffffff;fill-opacity:1;fill-rule:nonzero;stroke:none"
       transform="matrix(0.35277776,0,0,-0.35277776,131.9833,96.129742)"
       clip-path="url(#clipPath15986-0)" />
    <path
       style="baseline-shift:baseline;display:inline;overflow:visible;vector-effect:none;fill:#ffffff;stroke-miterlimit:10;enable-background:accumulate;stop-color:#000000;stop-opacity:1;opacity:1;fill-opacity:1"
       d="m -189.24414,-137.99414 c -19.77972,0.59665 -39.79957,4.14635 -59.48047,10.93164 -104.96482,36.188218 -160.81817,150.818365 -124.62891,255.7832 36.18824,104.96384 150.81838,160.81713 255.78321,124.62891 C -12.606472,217.16137 43.246813,102.53123 7.0585937,-2.4335938 -22.344337,-87.717524 -103.53202,-140.57963 -189.24414,-137.99414 Z m 0.50781,14.89453 C -109.35155,-125.54452 -34.324288,-76.651226 -7.0585937,2.4335938 26.499187,99.768766 -25.103341,205.67466 -122.4375,239.23242 c -97.33517,33.55778 -203.24107,-18.04475 -236.79883,-115.3789 -33.55874,-97.335167 18.04373,-203.241051 115.37891,-236.79883 18.25035,-6.29209 36.80153,-9.59009 55.12109,-10.1543 z"
       id="path15987"
       transform="matrix(0.35277776,0,0,-0.35277776,173.51627,133.83745)" />
    <path
       id="path15989"
       d="M 7.1714078,-5e-4 H 22.288595 c 12.433594,0 20.777344,-8.2382812 20.777344,-19.605469 0,-11.367187 -8.34375,-19.59375 -20.777344,-19.59375 H 7.1714078 Z M 9.0698453,-1.734875 V -37.465344 H 22.171408 c 11.601562,0 18.996094,7.5 18.996094,17.859375 0,10.3593753 -7.394532,17.871094 -18.996094,17.871094 z M 90.667502,-5e-4 h 1.898437 v -39.199219 h -1.898437 z m 63.392578,0.22265625 c 9.45703,0 13.66406,-4.69921875 13.66406,-10.01953125 0,-14.226562 -24.70312,-6.949219 -24.70312,-19.546875 0,-4.59375 3.64453,-8.402344 11.58984,-8.402344 3.52734,0 7.57031,1.125 10.69922,3.410157 l 0.84375,-1.511719 c -2.91797,-2.179688 -7.27734,-3.574219 -11.58984,-3.574219 -9.35157,0 -13.39454,4.816406 -13.39454,10.078125 0,14.507813 24.70313,7.054688 24.70313,19.59375 0,4.546875 -3.64453,8.296875 -11.87109,8.296875 -5.4375,0 -10.41797,-2.2382812 -12.9375,-5.0976562 l -1.00782,1.3476562 c 2.74219,3.1875 8.22657,5.42578125 14.00391,5.42578125 z m 63.0498,-1.95703125 v -17.308594 h 21.28125 v -1.734375 h -21.28125 v -16.6875 h 23.80079 v -1.734375 H 215.21145 V -5e-4 h 26.48437 v -1.734375 z m 84.89942,-45.082031 c 2.46094,0 3.86719,3.867187 7.11328,3.867187 2.57812,0 4.19531,-2.074218 4.3125,-5.050781 h -1.40625 c -0.10547,2.132813 -1.17188,3.585938 -2.96484,3.585938 -2.46094,0 -3.86719,-3.867188 -7.11329,-3.867188 -2.57812,0 -4.19531,2.027344 -4.3125,5.15625 h 1.39454 c 0.11718,-2.296875 1.18359,-3.691406 2.97656,-3.691406 z m 17.25,7.617187 V -3.46925 l -27.83203,-35.730469 h -1.57032 V -5e-4 h 1.89844 V -35.730969 L 319.58742,-5e-4 h 1.57032 V -39.199719 Z M 388.98,0.22215625 c 11.58985,0 20.27344,-8.46093745 20.27344,-19.82812525 0,-11.367187 -8.68359,-19.816406 -20.27344,-19.816406 -11.54297,0 -20.22656,8.449219 -20.22656,19.816406 0,11.3671878 8.68359,19.82812525 20.22656,19.82812525 z m 0,-1.73437495 c -10.41797,0 -18.3164,-7.734375 -18.3164,-18.0937503 0,-10.359375 7.89843,-18.082031 18.3164,-18.082031 10.46485,0 18.36328,7.722656 18.36328,18.082031 0,10.3593753 -7.89843,18.0937503 -18.36328,18.0937503 z m 0,0"
       style="display:inline;fill:#ffffff;fill-opacity:1;fill-rule:nonzero;stroke:none"
       aria-label="DISEÑO"
       transform="matrix(0.35277776,0,0,0.35277776,35.538453,215.6396)"
       clip-path="url(#clipPath15990-0)" />
    <path
       id="path15991"
       d="m 38.348583,238.40185 h 6.29629 c 4.41114,0 7.43718,-2.56728 7.43718,-6.65592 0,-4.09277 -3.02604,-6.66006 -7.43718,-6.66006 h -6.29629 z m 3.76635,-3.0055 v -7.30498 h 2.37701 c 2.26537,0 3.78672,1.35186 3.78672,3.65456 0,2.29857 -1.52135,3.65042 -3.78672,3.65042 z m 17.57706,0.0951 v -2.435 h 5.91582 v -2.81533 h -5.91582 v -2.24483 h 6.7138 v -2.91042 h -10.44283 v 13.31598 h 10.69101 v -2.91041 z m 13.79247,2.91041 h 3.76608 v -10.32701 h 4.06796 v -2.98897 h -11.92688 v 2.98897 h 4.09284 z m 17.66808,0.26459 c 4.26244,0 7.40013,-2.92695 7.40013,-6.92051 0,-3.99769 -3.13769,-6.92464 -7.40013,-6.92464 -4.25794,0 -7.39987,2.92695 -7.39987,6.92464 0,3.99356 3.14193,6.92051 7.39987,6.92051 z m 0,-3.11712 c -2.01322,0 -3.59251,-1.50482 -3.59251,-3.80339 0,-2.3027 1.57929,-3.80752 3.59251,-3.80752 2.01745,0 3.59674,1.50482 3.59674,3.80752 0,2.29857 -1.57929,3.80339 -3.59674,3.80339 z M 111.4138,225.08588 v 7.09414 l -5.87851,-7.09414 h -3.10065 v 13.31598 h 3.69173 v -7.09414 l 5.87454,7.09414 h 3.10065 v -13.31598 z m 18.22238,13.31598 h 3.91901 l -5.89941,-13.31598 h -3.70814 l -5.87481,13.31598 h 3.8407 l 1.04589,-2.58795 h 5.6306 z m -5.57292,-5.36194 1.71159,-4.26227 1.71159,4.26227 z m 21.4384,-7.95404 v 7.09414 l -5.87851,-7.09414 h -3.10066 v 13.31598 h 3.69173 v -7.09414 l 5.87455,7.09414 h 3.10065 v -13.31598 z m 11.0908,13.31598 h 3.76635 v -10.32701 h 4.06796 v -2.98897 h -11.92688 v 2.98897 h 4.09257 z m 14.87461,-2.91041 v -2.435 h 5.91582 v -2.81533 h -5.91582 v -2.24483 h 6.7138 v -2.91042 h -10.44283 v 13.31598 h 10.69101 v -2.91041 z m 0,0"
       style="display:inline;fill:#ffffff;fill-opacity:1;fill-rule:nonzero;stroke:none;stroke-width:0.35278"
       aria-label="DETONANTE"
       inkscape:export-filename="DD.svg"
       inkscape:export-xdpi="96"
       inkscape:export-ydpi="96" />
  </g>
</svg>
