<?xml version="1.0" encoding="UTF-8" standalone="no"?>
<!-- Created with Inkscape (http://www.inkscape.org/) -->

<svg
   width="85.079498mm"
   height="44.669758mm"
   viewBox="0 0 85.079498 44.669758"
   version="1.1"
   id="svg1"
   xml:space="preserve"
   sodipodi:docname="1_reposo.svg"
   xmlns:inkscape="http://www.inkscape.org/namespaces/inkscape"
   xmlns:sodipodi="http://sodipodi.sourceforge.net/DTD/sodipodi-0.dtd"
   xmlns="http://www.w3.org/2000/svg"
   xmlns:svg="http://www.w3.org/2000/svg"><sodipodi:namedview
     id="namedview1"
     pagecolor="#ffffff"
     bordercolor="#000000"
     borderopacity="0.25"
     inkscape:showpageshadow="2"
     inkscape:pageopacity="0.0"
     inkscape:pagecheckerboard="0"
     inkscape:deskcolor="#d1d1d1"
     inkscape:document-units="mm"><inkscape:page
       x="0"
       y="0"
       width="85.079498"
       height="44.669758"
       id="page2"
       margin="0"
       bleed="0" /></sodipodi:namedview><defs
     id="defs1" /><path
     d="m 36.459523,44.468569 c -2.27571,-0.40055 -6.30917,-2.15261 -9.71406,-4.21961 -8.83767,-5.365067 -10.97082,-6.375267 -14.47381,-6.854337 -3.8617895,-0.52814 -6.9363795,0.40965 -9.1755195,2.79864 -1.25944,1.343717 -2.13539001,1.498297 -2.79404001,0.493067 -0.62817,-0.958707 -0.30962,-1.757077 1.26647001,-3.174127 4.69789,-4.22381 11.5666295,-4.37027 18.9208695,-0.40344 1.11563,0.60176 3.5835,2.06066 5.48415,3.241997 4.11839,2.55975 6.94835,3.92578 9.81055,4.73557 1.83468,0.51907 2.71957,0.59644 6.74207,0.58944 3.92665,-0.007 4.95183,-0.0961 6.74687,-0.58751 2.62647,-0.71899 5.96375,-2.34087 9.90135,-4.811937 4.17203,-2.61818 7.44398,-4.32299 9.9424,-5.18037 1.8079,-0.62041 2.56053,-0.72894 5.15938,-0.74396 2.69402,-0.0156 3.27073,0.0663 5.03252,0.71472 2.28993,0.84276 4.65777,2.57854 5.39913,3.95793 0.48341,0.89945 0.48652,0.98397 0.06,1.634857 -0.67359,1.02802 -1.53719,0.88778 -2.87261,-0.466457 -2.33482,-2.36774 -5.81316,-3.4322 -9.26348,-2.83487 -1.06011,0.18353 -2.91456,0.73065 -4.121,1.21582 -2.10869,0.84801 -3.43594,1.5837 -10.10961,5.603677 -2.87901,1.73422 -5.71994,3.07019 -8.44385,3.97078 -1.46448,0.48419 -11.24747,0.71621 -13.49783,0.32012 z m 1.43647,-6.17503 c -2.50797,-0.57973 -4.45516,-1.40621 -6.53713,-2.774667 -3.50109,-2.30125 -6.22804,-5.68934 -7.58221,-9.42047 -1.65012,-4.54659 -1.71967,-8.33559 -0.2352,-12.81238 4.07067,-12.2760804 18.72263,-17.1718304 29.4961,-9.8557104 7.85073,5.33134 10.54768,15.9569004 6.24874,24.6191104 -2.2217,4.47664 -6.58269,8.20465 -11.39728,9.743007 -2.57906,0.82406 -7.52333,1.072 -9.99302,0.50111 z m 8.03962,-2.412117 c 4.32745,-1.02008 8.88553,-4.55632 10.94421,-8.49071 5.16404,-9.86911 -0.16981,-21.8412004 -10.96264,-24.6062004 -1.22982,-0.31506 -2.44446,-0.39355 -4.70707,-0.30415 -2.62302,0.10364 -3.34558,0.23679 -5.1662,0.95198 -4.83185,1.8981 -8.31002,5.43672 -10.12572,10.3017004 -0.98301,2.63386 -1.13573,7.08741 -0.34287,9.9985 1.58659,5.82539 6.59778,10.73975 12.37982,12.14062 2.04353,0.495097 5.89826,0.499087 7.98047,0.008 z"
     style="fill:#ff0000;fill-opacity:1"
     id="path1-6-3" /></svg>
