<?xml version="1.0" encoding="UTF-8" standalone="no"?>
<!-- Created with Inkscape (http://www.inkscape.org/) -->

<svg
   width="79.375mm"
   height="53.622101mm"
   viewBox="0 0 79.375 53.622101"
   version="1.1"
   id="svg1"
   xml:space="preserve"
   sodipodi:docname="1_reposo.svg"
   xmlns:inkscape="http://www.inkscape.org/namespaces/inkscape"
   xmlns:sodipodi="http://sodipodi.sourceforge.net/DTD/sodipodi-0.dtd"
   xmlns="http://www.w3.org/2000/svg"
   xmlns:svg="http://www.w3.org/2000/svg"><sodipodi:namedview
     id="namedview1"
     pagecolor="#ffffff"
     bordercolor="#000000"
     borderopacity="0.25"
     inkscape:showpageshadow="2"
     inkscape:pageopacity="0.0"
     inkscape:pagecheckerboard="0"
     inkscape:deskcolor="#d1d1d1"
     inkscape:document-units="mm"><inkscape:page
       x="0"
       y="0"
       width="79.375"
       height="53.622101"
       id="page2"
       margin="0"
       bleed="0" /></sodipodi:namedview><defs
     id="defs1" /><path
     d="m 60.589576,53.488773 c -12.74549,-1.30078 -22.93437,-5.26827 -31.27102,-12.17674 -2.61893,-2.17027 -3.77264,-3.46963 -7.6854,-8.65562 -5.28425,-7.00379 -8.28379,-9.57938 -12.3775093,-10.62814 -2.20354,-0.56453 -4.21842,-0.382 -6.35176,0.57538 l -1.65128,0.74105 -0.62630998,-0.72812 c -0.34447,-0.40047 -0.6262999988086,-0.90549 -0.6262999988086,-1.12227 0,-0.67653 1.1594099788086,-1.59361 2.7946799788086,-2.21055 1.37814,-0.51994 1.9472,-0.57979 4.63663,-0.48768 3.0380793,0.10404 3.0884893,0.1163 5.5964693,1.36098 3.29292,1.63423 6.01862,4.16713 9.72721,9.03914 5.42044,7.1209 8.06118,9.79912 12.69918,12.87944 7.09324,4.71095 15.40549,7.47025 25.34247,8.41257 3.43678,0.3259 10.81393,0.33203 14.60961,0.0121 3.08667,-0.26014 3.96875,-0.007 3.96875,1.13877 0,1.17219 -0.52839,1.4929 -2.91042,1.76651 -2.07737,0.23861 -13.75251,0.29976 -15.875,0.0831 z m -17.90832,-13.84583 c -11.98225,-1.75193 -19.44546,-13.3721 -15.97236,-24.86882 0.91633,-3.03325 3.486,-6.7510998 6.2852,-9.0935698 4.0007,-3.34794 8.84018,-4.73150001 18.59965,-5.31748001 1.38245,-0.083 3.41831,-0.22203 4.52413,-0.30895 3.27533,-0.25744 3.64189,0.2918 2.74215,4.10876001 -0.21935,0.93054 -0.36642,1.72321 -0.32682,1.76147 0.0396,0.0383 0.76825,0.37684 1.61923,0.75239 3.76317,1.66073 7.17015,4.6484098 9.6732,8.4827098 2.2251,3.4085 2.14842,4.32071 -0.41098,4.88927 -2.68245,0.59589 -4.39387,1.33657 -4.2303,1.83083 2.12162,6.41109 2.95176,10.16108 2.43377,10.99417 -0.53197,0.85559 -1.23381,0.8911 -4.27613,0.21639 l -2.93612,-0.65117 -1.72911,1.72062 c -3.03302,3.01812 -7.01314,4.93014 -11.41055,5.48153 -2.34911,0.29455 -2.58236,0.29465 -4.58496,0.002 z m 7.32499,-2.9231 c 3.27793,-1.07282 6.01476,-2.87305 8.32412,-5.47541 1.15548,-1.30208 1.39943,-1.3353 4.55838,-0.62074 1.60022,0.36197 2.19802,0.40896 2.28601,0.17967 0.16446,-0.42858 -0.96038,-4.60539 -1.92976,-7.1657 -0.44078,-1.16417 -0.80185,-2.37592 -0.80237,-2.69278 -10e-4,-0.86464 1.14299,-1.60041 3.74023,-2.40464 1.28494,-0.39788 2.33805,-0.81843 2.34024,-0.93456 0.0103,-0.54501 -2.04173,-3.30803 -3.6546,-4.92089 -1.9104,-1.9104 -3.95518,-3.2407398 -6.52787,-4.2470598 -0.87313,-0.34153 -1.81541,-0.83458 -2.09395,-1.09567 -0.49502,-0.46399 -0.4956,-0.51537 -0.0254,-2.27601 0.26456,-0.99072 0.53497,-1.95014 0.60091,-2.13204 0.27014,-0.74524 -9.8397,-0.13711 -14.30588,0.86054 -4.24998,0.94935 -6.4029,2.08985 -9.17514,4.86047 -3.6458,3.6436698 -5.12453,7.0508898 -5.12453,11.8076398 0,3.00422 0.41929,4.75442 1.86407,7.78087 1.38107,2.89302 4.46874,5.93637 7.49016,7.38264 1.23693,0.59209 3.0824,1.2607 4.10105,1.4858 2.41622,0.53394 6.02338,0.36422 8.33437,-0.39213 z m -6.89618,-5.65756 c -4.03884,-1.11459 -7.18211,-4.83872 -7.56752,-8.96596 -0.1386,-1.48433 -0.0965,-1.77945 0.27418,-1.92169 0.71232,-0.27334 1.14186,0.3327 1.29629,1.82895 0.30377,2.94323 2.32933,5.68884 5.16832,7.00556 1.22679,0.56898 1.90101,0.70019 3.62387,0.70526 1.79979,0.005 2.34754,-0.10695 3.65885,-0.7498 0.84821,-0.41582 1.96016,-1.17401 2.47101,-1.68486 0.90459,-0.90459 1.93695,-2.38486 1.93894,-2.78019 5.5e-4,-0.10805 -0.5601,-0.16758 -1.24588,-0.13229 -0.991,0.051 -1.26585,-0.0278 -1.3394,-0.38373 -0.0701,-0.33923 0.24842,-0.55022 1.31302,-0.86979 0.77305,-0.23206 1.89959,-0.49154 2.50342,-0.57663 1.48179,-0.20881 1.72364,0.28031 1.62438,3.28517 -0.0698,2.11143 -0.1226,2.3133 -0.60559,2.3133 -0.43345,0 -0.54389,-0.20352 -0.61056,-1.12519 l -0.0814,-1.12519 -1.90299,1.9377 c -3.14453,3.2019 -6.69394,4.29496 -10.51895,3.23938 z m 12.47028,-10.43397 c -0.15534,-0.29026 -0.28243,-0.89148 -0.28243,-1.33604 0,-2.11366 -2.01483,-5.29391 -4.14471,-6.5421 -1.65881,-0.97214 -3.90223,-1.49599 -5.53366,-1.29216 -2.59214,0.32387 -5.26224,2.03401 -6.81859,4.36717 -0.64418,0.9657 -0.56009,1.06793 0.8204,0.99747 1.09343,-0.0558 1.25677,0.003 1.25677,0.45415 0,0.40325 -0.35242,0.6259 -1.5875,1.00297 -2.14069,0.65355 -3.36054,0.54155 -3.6012,-0.33065 -0.3024,-1.09595 -0.25944,-4.36791 0.0616,-4.68891 0.50669,-0.50669 1.02609,-0.0688 1.02609,0.86514 0,1.23418 0.38713,1.33792 1.04152,0.27911 1.33826,-2.16536 4.10122,-3.88666 7.14829,-4.4533198 4.249,-0.79018 8.91051,1.6572298 10.9919,5.7710198 0.62044,1.22629 0.76697,1.86241 0.77923,3.38289 0.0125,1.55061 -0.0614,1.88794 -0.43006,1.9618 -0.24485,0.0491 -0.57227,-0.14829 -0.72761,-0.43854 z"
     style="fill:#9400ff;fill-opacity:1"
     id="path1-2" /></svg>
