<?xml version="1.0" encoding="UTF-8" standalone="no"?>
<!-- Created with Inkscape (http://www.inkscape.org/) -->

<svg
   width="52.614227mm"
   height="52.542904mm"
   viewBox="0 0 52.614227 52.542904"
   version="1.1"
   id="svg1"
   xml:space="preserve"
   xmlns="http://www.w3.org/2000/svg"
   xmlns:svg="http://www.w3.org/2000/svg"><defs
     id="defs1" /><g
     id="layer1"
     transform="translate(-239.71757,-82.94832)"><path
       d="m 260.15349,135.25074 c -5.10676,-0.42018 -10.60087,-1.82534 -15.89837,-4.06615 -3.94655,-1.66936 -4.53755,-2.06468 -4.53755,-3.03516 0,-0.55611 0.20031,-0.92279 0.67347,-1.23282 0.65325,-0.42803 0.75759,-0.40351 3.47566,0.81663 4.69472,2.10744 8.9827,3.4178 13.57795,4.14926 3.41838,0.54412 13.36875,0.46683 17.19792,-0.1336 3.46823,-0.54383 11.13743,-2.45525 13.88948,-3.46171 2.34247,-0.85668 2.91549,-0.85421 3.48503,0.015 0.40242,0.61416 0.41054,0.76734 0.0723,1.36262 -0.48022,0.84504 -4.56128,2.34117 -9.90614,3.63164 -8.40052,2.02824 -14.52618,2.57165 -22.0297,1.95426 z m 0.85457,-7.8727 c -2.36079,-0.58083 -4.87707,-1.76562 -6.73841,-3.17277 -3.33023,-2.5176 -6.4774,-7.43081 -7.27855,-11.36292 -0.74819,-3.67212 -0.41566,-8.79322 0.93951,-14.46864 0.41696,-1.74625 0.99983,-4.29153 1.29526,-5.65618 0.29543,-1.36464 0.67275,-2.64457 0.83849,-2.84427 0.5114,-0.6162 1.51474,-0.40754 3.34319,0.69524 0.9651,0.58209 1.86084,1.05834 1.99053,1.05834 0.12969,0 1.13071,-0.9513 2.22448,-2.11399 2.40634,-2.55795 5.3153,-4.39957 8.78626,-5.56245 3.22131,-1.07924 4.80575,-1.27001 5.42283,-0.65294 0.39832,0.39833 0.44094,0.7854 0.30201,2.74293 -0.089,1.25354 -0.0653,2.61037 0.0527,3.0152 l 0.21446,0.73604 5.15577,0.0698 c 7.63263,0.10335 7.99274,0.43824 5.43206,5.05158 l -1.45688,2.62473 0.74272,1.21173 c 0.89627,1.46226 2.0042,4.37213 2.43817,6.40364 0.51457,2.40875 0.19333,7.07741 -0.66173,9.61728 -2.09323,6.21767 -7.21287,10.96481 -13.58198,12.59375 -2.5545,0.65333 -6.83634,0.65962 -9.46089,0.0139 z m 6.76602,-1.88656 c 3.36888,-0.6389 6.25172,-2.89702 7.7664,-6.08339 0.75244,-1.58289 0.81769,-1.94177 0.8197,-4.50826 0.002,-2.73686 -0.0181,-2.82978 -1.0958,-5.02098 l -1.09798,-2.23251 0.77637,-1.53798 c 0.427,-0.84588 0.69617,-1.66774 0.59814,-1.82634 -0.12007,-0.19427 -1.2458,-0.24724 -3.44996,-0.16233 -2.26444,0.0872 -3.3487,0.0333 -3.52171,-0.17517 -0.13749,-0.16566 -0.28575,-1.12968 -0.32947,-2.14225 -0.0728,-1.68641 -0.13011,-1.84824 -0.68205,-1.92656 -1.54663,-0.21945 -5.96936,2.7273 -7.67341,5.11259 l -0.56706,0.79375 -1.36718,-0.74652 c -0.75195,-0.41058 -1.45955,-0.64871 -1.57244,-0.52916 -0.1129,0.11954 -0.54408,1.70562 -0.95818,3.52463 -0.60194,2.64408 -0.75292,3.94398 -0.75292,6.4823 0,3.05642 0.0327,3.24184 0.87529,4.96487 0.98886,2.02212 3.11796,4.34602 4.63035,5.054 1.18503,0.55474 3.88261,1.17502 5.24002,1.20488 0.52584,0.0116 1.58869,-0.0989 2.36189,-0.24557 z m -6.49831,-11.88441 c -0.6519,-1.00775 -1.18528,-2.00704 -1.18528,-2.22065 0,-0.44526 0.58937,-0.7447 0.95787,-0.48667 0.53473,0.37444 2.50168,3.84133 2.37164,4.1802 -0.29616,0.7718 -1.00882,0.28228 -2.14423,-1.47288 z m 2.6091,0.36281 c -0.2035,-0.53031 0.94524,-4.81987 1.41713,-5.29176 0.43042,-0.43042 1.13849,-0.222 1.13849,0.33512 0,0.72609 -1.38563,4.96788 -1.6873,5.16528 -0.45634,0.29859 -0.69575,0.24107 -0.86832,-0.20864 z m 2.91615,-0.24962 c -0.0884,-0.23041 0.20887,-0.8116 0.71049,-1.38906 1.00713,-1.15937 1.4782,-1.48072 1.84149,-1.25619 0.48481,0.29963 0.26886,0.91617 -0.69434,1.98232 -1.00463,1.11199 -1.60333,1.32565 -1.85764,0.66293 z m 11.31523,6.54299 c 1.83516,-1.94945 3.3721,-4.72924 4.06719,-7.35616 0.5464,-2.06497 0.55128,-6.39049 0.009,-8.41245 -0.42836,-1.59866 -2.01681,-5.00546 -2.6786,-5.74489 -0.61547,-0.68767 -0.4275,-1.58256 0.82081,-3.90766 0.6522,-1.21478 1.11312,-2.32633 1.02427,-2.47009 -0.10011,-0.16197 -2.08749,-0.23121 -5.22514,-0.18205 -2.78497,0.0436 -5.208,-0.01 -5.38452,-0.11915 -0.52704,-0.32598 -0.86665,-2.02615 -0.86821,-4.34657 l -0.001,-2.18281 h -0.69911 c -0.79601,0 -4.72637,1.61764 -6.31235,2.59801 -1.76861,1.09326 -3.48324,2.63953 -4.89677,4.41594 -1.58425,1.99095 -2.08282,2.21871 -3.24641,1.48308 -1.46341,-0.92519 -2.88372,-1.65936 -2.99496,-1.54813 -0.1901,0.1901 -1.93021,8.22537 -2.36091,10.90192 -0.54821,3.4068 -0.55471,7.24668 -0.0157,9.26897 0.61619,2.31186 2.32575,5.61427 3.73233,7.2099 0.67347,0.76398 1.32824,1.38906 1.45505,1.38906 0.12681,0 0.0416,-0.44648 -0.18934,-0.99219 -1.58288,-3.74016 -1.51466,-7.29488 0.28221,-14.70568 0.34686,-1.43055 0.77085,-2.74024 0.94221,-2.91042 0.23805,-0.23642 0.62007,-0.13776 1.61924,0.41819 0.71923,0.40018 1.41995,0.7276 1.55716,0.7276 0.13721,0 0.87104,-0.65722 1.63074,-1.46049 1.55504,-1.64423 4.57255,-3.31486 6.9472,-3.84628 2.16605,-0.48474 2.28482,-0.37436 2.28482,2.12347 v 2.12497 h 3.00963 c 3.45553,0 4.64694,0.17871 4.85799,0.7287 0.0821,0.21389 -0.29392,1.20935 -0.83556,2.21214 l -0.98478,1.82326 0.69616,1.42291 c 1.95622,3.99836 1.89146,8.71792 -0.1675,12.2076 -0.92101,1.561 0.0486,1.12242 1.92482,-0.8707 z"
       style="fill:#ffffff;fill-opacity:1"
       id="path1-3" /></g></svg>
