<?xml version="1.0" encoding="UTF-8" standalone="no"?>
<!-- Created with Inkscape (http://www.inkscape.org/) -->

<svg
   width="52.779686mm"
   height="62.735004mm"
   viewBox="0 0 52.779686 62.735004"
   version="1.1"
   id="svg1"
   xml:space="preserve"
   sodipodi:docname="1_reposo.svg"
   xmlns:inkscape="http://www.inkscape.org/namespaces/inkscape"
   xmlns:sodipodi="http://sodipodi.sourceforge.net/DTD/sodipodi-0.dtd"
   xmlns="http://www.w3.org/2000/svg"
   xmlns:svg="http://www.w3.org/2000/svg"><sodipodi:namedview
     id="namedview1"
     pagecolor="#ffffff"
     bordercolor="#000000"
     borderopacity="0.25"
     inkscape:showpageshadow="2"
     inkscape:pageopacity="0.0"
     inkscape:pagecheckerboard="0"
     inkscape:deskcolor="#d1d1d1"
     inkscape:document-units="mm"><inkscape:page
       x="-3.9196626e-14"
       y="0"
       width="52.77969"
       height="62.735004"
       id="page2"
       margin="0"
       bleed="0" /></sodipodi:namedview><defs
     id="defs1" /><path
     style="fill:#006666;fill-opacity:1"
     d="m 20.526235,62.52547 c -3.27213,-0.25169 -7.90775,-1.23369 -11.7134008,-2.48137 -2.64194,-0.86615 -7.13009,-2.77569 -8.28199995,-3.52368 -0.80043,-0.51975 -0.68133,-1.54699 0.26052,-2.24701 l 0.70976995,-0.52754 3.25898,1.45994 c 7.5895208,3.39991 14.0355808,4.6317 22.8381408,4.36417 2.61938,-0.0796 6.07219,-0.34402 7.67292,-0.58758 3.4047,-0.51805 10.16275,-2.20053 13.33007,-3.31866 2.74634,-0.96951 3.32761,-0.98301 3.91215,-0.0909 1.02322,1.56162 -0.7242,2.52132 -8.36571,4.59454 -8.26446,2.24222 -15.60318,2.97483 -23.62144,2.35808 z m 0.68833,-7.90353 c -5.20651,-1.36502 -9.37309,-4.76754 -11.9843108,-9.78665 -1.68062,-3.23036 -2.269,-5.67272 -2.23295,-9.26897 0.0168,-1.67349 0.22424,-4.06646 0.46102,-5.31772 0.92574,-4.89208 2.7599408,-12.69204 3.0734208,-13.06977 0.52502,-0.6326 1.29839,-0.47333 3.20675,0.6604 1.71735,1.02026 2.61496,1.30614 2.61496,0.83282 0,-0.12404 0.86321,-1.10894 1.91823,-2.18866 2.81337,-2.87923 6.36055,-4.83187 10.78177,-5.9351 3.30362,-0.8243596 3.71514,-0.48305 3.51252,2.91321 -0.0807,1.35302 -0.0756,2.74269 0.0115,3.08816 l 0.15822,0.62812 5.10422,0.001 c 7.72037,0.002 8.03735,0.26798 5.64165,4.73429 l -1.4952,2.78751 1.20621,2.45615 c 1.66523,3.39085 2.10614,5.25482 2.11433,8.93844 0.008,3.54722 -0.52889,5.66692 -2.31153,9.12813 -1.64272,3.18954 -4.79832,6.25873 -8.12171,7.89931 -1.38208,0.68226 -3.3463,1.41437 -4.36495,1.62692 -2.60797,0.54418 -6.95904,0.4843 -9.2941,-0.1279 z m 7.80056,-2.30521 c 2.25546,-0.80498 4.03842,-3.01287 4.53115,-5.61103 0.30349,-1.60029 0.0233,-3.23518 -0.85715,-5.00049 -0.50104,-1.00465 -0.5275,-1.23586 -0.22709,-1.98437 0.65159,-1.62354 0.64571,-1.62888 -1.95337,-1.77327 l -2.38125,-0.13219 -0.0828,-1.19063 c -0.0456,-0.65484 -0.18405,-1.29339 -0.30773,-1.41898 -0.40036,-0.40655 -3.27341,1.1405 -4.66921,2.51422 l -1.35563,1.33418 -0.85177,-0.44047 c -0.46848,-0.24226 -0.91451,-0.37774 -0.99117,-0.30107 -0.33696,0.33696 -1.1868,5.22811 -1.20081,6.91108 -0.0465,5.58462 4.95905,9.01608 10.34688,7.09312 z m -9.96168,-2.26447 c -1.55565,-2.58157 -1.68279,-4.82684 -0.56932,-10.05417 0.66057,-3.10111 0.80445,-3.25395 2.27966,-2.42168 0.74417,0.41983 0.75773,0.41414 2.08199,-0.8728 1.29947,-1.26286 3.54129,-2.36232 5.14935,-2.52541 0.62707,-0.0636 0.66553,0.0102 0.73975,1.41885 l 0.0783,1.48594 2.51833,0.13172 c 1.38508,0.0725 2.63099,0.24439 2.76869,0.38209 0.15743,0.15743 0.006,0.73329 -0.40828,1.55136 l -0.65865,1.30099 0.52359,1.0816 c 0.28798,0.59488 0.64709,1.74965 0.79803,2.56615 0.26668,1.44261 0.14284,2.38283 -0.68859,5.22775 l -0.19331,0.66146 0.71205,-0.65214 c 0.99957,-0.91546 2.22887,-3.54376 2.57218,-5.49942 0.38294,-2.18141 0.006,-4.29512 -1.23909,-6.94837 l -0.95532,-2.03576 0.81833,-1.62111 0.81833,-1.6211 -0.68289,-0.17139 c -0.37558,-0.0943 -1.92548,-0.11613 -3.44421,-0.0486 -2.01376,0.0896 -2.83566,0.0332 -3.03589,-0.20802 -0.15101,-0.18195 -0.34529,-1.17452 -0.43174,-2.2057 -0.14492,-1.72854 -0.20421,-1.87487 -0.75969,-1.87487 -0.33138,0 -1.57526,0.49875 -2.76418,1.10834 -1.68215,0.86247 -2.51694,1.50808 -3.76326,2.91041 -0.88088,0.99115 -1.73522,1.80208 -1.89853,1.80208 -0.16332,0 -0.75292,-0.30984 -1.31022,-0.68854 -0.55731,-0.3787 -1.10689,-0.58706 -1.22129,-0.46302 -0.1144,0.12404 -0.59289,1.83287 -1.06332,3.7974 -0.64033,2.67403 -0.86421,4.24037 -0.89066,6.23134 -0.0341,2.56814 -0.002,2.72778 0.94784,4.64885 0.95794,1.93836 2.89715,4.46564 3.42652,4.46564 0.14503,0 0.0305,-0.38695 -0.25449,-0.85989 z m 19.79815,-2.84339 c 1.48173,-1.74824 2.88294,-4.23144 3.50899,-6.21859 0.4663,-1.48008 0.5835,-2.48982 0.5835,-5.02709 0,-3.82758 -0.53414,-5.8103 -2.41291,-8.95672 l -1.24053,-2.07755 1.35975,-2.60562 c 0.84188,-1.61325 1.2544,-2.67074 1.08313,-2.77659 -0.15214,-0.094 -2.50185,-0.14607 -5.22158,-0.11564 -2.71972,0.0304 -5.08454,0.0419 -5.25516,0.0255 -0.49994,-0.0481 -0.8803,-1.61156 -1.00908,-4.14792 -0.1413,-2.78293 -0.20209,-2.8286 -2.61212,-1.96241 -3.96096,1.4236 -7.34782,3.85747 -9.55838,6.86885 -0.52504,0.71526 -1.1933,1.37622 -1.485,1.4688 -0.36098,0.11457 -1.12404,-0.18435 -2.38919,-0.93596 -1.02234,-0.60737 -1.92641,-1.0367 -2.00904,-0.95408 -0.0826,0.0826 -0.54562,1.79 -1.02888,3.79416 -2.5047308,10.38757 -2.5283408,14.91499 -0.10341,19.83372 0.96518,1.95777 3.42057,5.10917 3.98077,5.10917 0.12287,0 -0.0607,-0.62508 -0.40802,-1.38906 -0.98062,-2.15731 -1.28715,-4.49483 -0.95146,-7.25568 0.3919,-3.22317 1.82881,-9.39279 2.29978,-9.87453 0.34219,-0.35001 0.55374,-0.30485 1.84568,0.39402 l 1.4592,0.78934 1.21024,-1.26288 c 2.14463,-2.23791 4.38113,-3.51075 7.32707,-4.17002 1.97092,-0.44108 2.15455,-0.25265 2.15455,2.21083 v 1.90486 l 3.70417,0.14143 c 2.03729,0.0778 3.853,0.23364 4.0349,0.34634 0.51333,0.31805 0.40413,0.78674 -0.59532,2.55493 -0.50932,0.90109 -0.92604,1.73361 -0.92604,1.85004 0,0.11644 0.44066,1.13962 0.97925,2.27372 0.83978,1.76834 0.99485,2.38831 1.08878,4.35295 0.12147,2.54072 -0.31865,4.56672 -1.42764,6.57172 -0.35221,0.6368 -0.64039,1.26793 -0.64039,1.40253 0,0.37526 1.62667,-0.95002 2.65439,-2.16257 z M 23.888745,5.1590504 c -0.6519,-1.00775 -1.18528,-2.00704 -1.18528,-2.22065 0,-0.44526 0.58937,-0.7447 0.95787,-0.48667 0.53473,0.37444 2.50168,3.84133 2.37164,4.1802 -0.29616,0.7718 -1.00882,0.28228 -2.14423,-1.47288 z m 2.6091,0.36281 c -0.2035,-0.53031 0.94524,-4.81986998 1.41713,-5.29175998 0.43042,-0.43042 1.13849,-0.222 1.13849,0.33512 0,0.72608998 -1.38563,4.96787998 -1.6873,5.16527998 -0.45634,0.29859 -0.69575,0.24107 -0.86832,-0.20864 z m 2.91615,-0.24962 c -0.0884,-0.23041 0.20887,-0.8116 0.71049,-1.38906 1.00713,-1.15937 1.4782,-1.48072 1.84149,-1.25619 0.48481,0.29963 0.26886,0.91617 -0.69434,1.98232 -1.00463,1.11199 -1.60333,1.32565 -1.85764,0.66293 z"
     id="path1"
     inkscape:export-filename="4_expansión.svg"
     inkscape:export-xdpi="96"
     inkscape:export-ydpi="96" /></svg>
