<?xml version="1.0" encoding="UTF-8" standalone="no"?>
<!-- Created with Inkscape (http://www.inkscape.org/) -->

<svg
   version="1.1"
   id="svg1"
   width="153.10338"
   height="141.10307"
   viewBox="0 0 153.10338 141.10307"
   sodipodi:docname="MujeresLibres.svg"
   inkscape:version="1.3.2 (091e20ef0f, 2023-11-25, custom)"
   inkscape:export-filename="MujeresLibres.png"
   inkscape:export-xdpi="188.1082"
   inkscape:export-ydpi="188.1082"
   xmlns:inkscape="http://www.inkscape.org/namespaces/inkscape"
   xmlns:sodipodi="http://sodipodi.sourceforge.net/DTD/sodipodi-0.dtd"
   xmlns="http://www.w3.org/2000/svg"
   xmlns:svg="http://www.w3.org/2000/svg">
  <defs
     id="defs1" />
  <sodipodi:namedview
     id="namedview1"
     pagecolor="#505050"
     bordercolor="#ffffff"
     borderopacity="1"
     inkscape:showpageshadow="0"
     inkscape:pageopacity="0"
     inkscape:pagecheckerboard="1"
     inkscape:deskcolor="#505050"
     inkscape:zoom="2.1687338"
     inkscape:cx="89.453118"
     inkscape:cy="112.50805"
     inkscape:window-width="1920"
     inkscape:window-height="1052"
     inkscape:window-x="0"
     inkscape:window-y="0"
     inkscape:window-maximized="1"
     inkscape:current-layer="g1" />
  <g
     inkscape:groupmode="layer"
     inkscape:label="Image"
     id="g1">
    <path
       style="fill:#ffffff;fill-opacity:1;stroke-width:0.129012"
       d="m 121.00522,140.94946 c -0.6521,-0.18867 -1.18489,-0.81676 -1.4536,-1.71361 -0.16261,-0.54272 -0.14426,-0.77764 0.10897,-1.39583 0.19906,-0.4859 0.32138,-1.30775 0.35324,-2.3734 0.0548,-1.83263 -0.044,-1.77939 -0.66263,0.35705 -0.71145,2.4569 -1.49898,3.65583 -2.83295,4.31281 -0.73295,0.36097 -1.01736,0.39663 -2.87753,0.36071 -3.8035,-0.0734 -4.73045,-0.77066 -4.73045,-3.55811 0,-1.24369 0.0689,-1.5004 0.96672,-3.60103 0.90626,-2.12042 0.97521,-2.38022 1.10226,-4.15406 0.1068,-1.49079 0.26807,-2.27531 0.76032,-3.69834 0.34362,-0.99338 0.97729,-2.91937 1.40814,-4.27994 0.43084,-1.36058 1.06079,-3.10223 1.39986,-3.87035 l 0.61649,-1.39659 0.0221,-2.83826 c 0.0221,-2.82551 0.0252,-2.84793 0.72182,-4.98848 0.38484,-1.1826 1.01388,-2.97897 1.39785,-3.99194 0.38398,-1.01294 0.93365,-2.7242 1.2215,-3.80277 1.01386,-3.799048 1.06426,-4.467057 1.15114,-15.255419 0.15086,-18.735273 0.18912,-30.880234 0.10156,-32.243178 -0.10081,-1.569105 -0.031,-1.604009 -1.38255,0.691836 -1.36702,2.32222 -3.1351,4.511769 -5.66193,7.011577 l -2.40646,2.38074 0.0706,1.661637 c 0.0389,0.913898 0.14533,2.278863 0.23666,3.033251 0.35444,2.927719 0.0855,7.054119 -0.61719,9.471461 -0.27403,0.942668 -1.58715,3.088626 -2.15927,3.528799 -0.56204,0.432418 -0.68033,1.414581 -0.56869,4.7219 0.13516,4.004755 -0.0146,4.945267 -1.02576,6.442633 -1.51959,2.250215 -1.94535,3.037182 -2.04496,3.779853 -0.22595,1.68458 -1.4345,2.306944 -4.513099,2.324128 -1.505904,0.0084 -2.021817,-0.05393 -2.527169,-0.30529 -0.782199,-0.389082 -1.227818,-1.038125 -1.267954,-1.846795 -0.02438,-0.490831 -0.21019,-0.794191 -0.923393,-1.507394 -0.503547,-0.503547 -0.874495,-1.023154 -0.850712,-1.191661 0.131874,-0.934561 -0.335972,-1.824742 -1.851954,-3.523735 -1.163458,-1.303912 -1.601147,-2.233463 -1.818876,-3.862912 -0.09711,-0.726677 -0.281349,-1.426016 -0.40942,-1.554096 -0.618136,-0.618136 -0.969595,-3.25035 -0.572933,-4.291049 0.101517,-0.266333 0.406491,-1.21961 0.677712,-2.118395 0.660003,-2.187018 1.471037,-4.370184 1.823161,-4.907593 0.370624,-0.565656 0.748771,-2.180005 0.752191,-3.211281 0.0017,-0.444509 0.20047,-1.434289 0.442216,-2.199514 0.537191,-1.700521 0.569779,-2.95092 0.154376,-5.922927 -0.234664,-1.678849 -0.371365,-2.215309 -0.579507,-2.274121 -0.149824,-0.04233 -0.845552,-0.35832 -1.546032,-0.702198 -1.005221,-0.493477 -1.730208,-1.06374 -3.440319,-2.706108 -1.191685,-1.144478 -2.458033,-2.329116 -2.814094,-2.632523 -0.688455,-0.586638 -2.994829,-3.163845 -3.347288,-3.740362 -1.104939,-1.807295 -2.996614,-6.269397 -3.166537,-7.469249 -0.140377,-0.991271 -0.277724,-1.267739 -1.324861,-2.666877 -1.355324,-1.810934 -2.082835,-2.983898 -2.490642,-4.015669 -0.550829,-1.393645 -0.36291,-1.407638 1.007442,-0.075 1.326334,1.289811 2.631792,2.166904 5.148648,3.459191 1.121863,0.576022 2.162293,1.15743 2.312077,1.292019 0.524304,0.4711 3.520635,1.82089 4.044212,1.821839 1.114534,0.0021 1.802997,0.357576 3.369709,1.740269 0.864076,0.762608 1.603626,1.354 1.643412,1.314211 0.03978,-0.03979 0.121073,-0.427731 0.180598,-0.862088 0.08922,-0.65094 0.04086,-0.884433 -0.27539,-1.328517 -0.311565,-0.437554 -0.411434,-0.900664 -0.531533,-2.46497 -0.254053,-3.309035 -0.137316,-2.829895 -2.417914,-9.924935 -0.593446,-1.84625 -3.486462,-8.324697 -3.903879,-8.742113 -0.502465,-0.502457 -0.78656,-1.235819 -0.564711,-1.457678 0.326236,-0.326229 0.703409,0.05333 1.367772,1.376372 1.07871,2.148185 3.593896,8.098318 4.056991,9.597492 0.23379,0.756872 0.76821,2.227607 1.187608,3.268304 0.541901,1.344724 0.798351,2.265437 0.886386,3.182295 0.227141,2.365447 0.571344,4.724999 0.760721,5.214682 0.248711,0.643128 0.222556,2.630283 -0.057,4.332205 -0.124335,0.756871 -0.201227,1.453534 -0.17087,1.548143 0.08139,0.25367 0.409329,3.788954 0.59834,6.450601 0.139563,1.965076 0.806673,7.457804 1.117721,9.202853 0.17186,0.964212 0.05742,2.40494 -0.278228,3.501442 -0.184034,0.601271 -0.335056,1.530158 -0.335606,2.064193 -0.0017,1.535528 -0.28932,2.904373 -0.868986,4.133839 -0.715725,1.518015 -2.570334,7.110773 -2.570334,7.751054 0,0.708176 0.320785,2.230449 0.60002,2.847354 0.128487,0.283829 0.322508,0.961141 0.431173,1.505139 0.108681,0.543999 0.2501,0.988794 0.314277,0.988428 0.06416,-4.25e-4 0.349737,-0.638974 0.634597,-1.419134 0.332153,-0.909696 0.609782,-1.418469 0.774069,-1.418469 0.176478,0 0.24698,0.160501 0.226675,0.516054 -0.01623,0.28382 -0.08214,1.444932 -0.146421,2.580237 l -0.116945,2.064192 0.576462,0.769658 0.576453,0.769666 0.212287,-2.489821 c 0.228014,-2.674314 0.950655,-7.494443 1.154054,-7.697843 0.06816,-0.06816 0.233707,0.02621 0.367878,0.209704 0.353206,0.483027 0.298375,2.022633 -0.128978,3.622189 -0.413414,1.547372 -0.603757,3.033737 -0.763159,5.959375 l -0.109114,2.003002 0.5366,0.104188 c 1.621859,0.314918 1.499738,0.335481 1.884992,-0.317465 0.198356,-0.336197 0.320801,-0.715118 0.272086,-0.842057 -0.04868,-0.126931 0.178676,-1.036286 0.505286,-2.020769 0.32661,-0.984491 0.754646,-2.641518 0.951188,-3.682272 0.551396,-2.919841 1.067588,-3.927805 1.691838,-3.303554 0.19907,0.19906 0.19212,0.365629 -0.0451,1.081416 -0.15421,0.465367 -0.3754,0.923527 -0.49152,1.018136 -0.339133,0.276306 -0.469451,0.798784 -0.261675,1.049143 0.218845,0.263707 -0.01772,1.510956 -0.535152,2.821217 -0.50745,1.285005 -0.864576,2.640711 -0.726835,2.759112 0.0714,0.06133 0.580431,0.289662 1.131261,0.507391 1.821331,0.719928 1.906661,1.557142 0.376141,3.690378 -0.931748,1.298661 -0.932189,1.299893 -0.467089,1.301632 0.256049,0.0017 0.957429,-0.171036 1.558649,-0.3822 1.29345,-0.454315 1.4353,-0.633415 3.2803,-4.142096 1.68375,-3.202002 1.98928,-4.592976 1.83062,-8.334116 -0.12561,-2.961335 -0.13648,-2.920108 1.14092,-4.324644 1.09842,-1.20774 1.46044,-1.948738 1.88669,-3.861797 0.31606,-1.418541 0.34112,-1.948588 0.2493,-5.275335 -0.0562,-2.034089 -0.15273,-4.336952 -0.21465,-5.117476 -0.13506,-1.702421 -0.2226,-1.738893 -1.82356,-0.759739 -1.12765,0.68968 -3.68137,1.748832 -4.2166,1.748832 -0.57053,0 -1.07593,-0.500014 -1.07593,-1.064484 0,-0.538542 0.50471,-1.137059 2.12249,-2.516964 0.44801,-0.382152 0.62592,-0.652886 0.55334,-0.842046 -0.0688,-0.17941 0.091,-0.483109 0.44851,-0.851925 l 0.55549,-0.573124 h -0.44272 c -0.2435,0 -0.53704,0.113647 -0.65233,0.25255 -0.38687,0.466175 -1.74995,1.123791 -2.13107,1.028139 -0.27261,-0.06842 -0.54505,0.08847 -1.048,0.603546 -0.73061,0.748212 -1.02843,0.853994 -1.19346,0.423911 -0.38855,-1.012527 0.79243,-3.839977 2.59869,-6.221669 0.56299,-0.74237 0.90608,-1.351079 0.84751,-1.503698 -0.0575,-0.149874 0.0957,-0.438938 0.3687,-0.695669 0.74274,-0.698461 3.71892,-2.675534 6.05761,-4.024056 1.18261,-0.68191 2.3222,-1.400776 2.53244,-1.597477 0.4228,-0.395604 0.9058,-1.847981 0.91165,-2.741395 0.002,-0.316568 0.15772,-0.914835 0.34586,-1.329479 0.18812,-0.414644 0.48335,-1.305481 0.65606,-1.979636 0.27401,-1.069628 0.28679,-1.359151 0.10032,-2.273272 -0.34069,-1.670262 -0.99061,-2.72419 -2.89857,-4.70046 -1.92632,-1.995302 -3.94308,-4.497129 -4.84307,-6.007973 -1.44497,-2.42566 -2.62175,-9.379364 -2.31195,-13.661466 0.14364,-1.985512 0.46417,-2.761162 1.10329,-2.669899 0.41504,0.05927 0.422,0.205248 0.19146,4.008002 -0.21806,3.596911 0.43604,7.655893 1.80785,11.218418 0.73094,1.8982 1.31154,2.687746 4.41551,6.004413 1.95314,2.086981 2.63358,2.934574 2.63358,3.280489 0,0.123533 0.076,0.224605 0.16874,0.224605 0.0928,0 0.21907,0.212869 0.2806,0.473044 0.0615,0.260173 0.27586,0.65387 0.47632,0.874883 0.31478,0.347061 0.36281,0.604989 0.35231,1.892174 -0.0106,1.295041 -0.0818,1.636856 -0.54357,2.60844 -0.36919,0.776789 -0.5685,1.511931 -0.65292,2.408224 -0.0668,0.709567 -0.23434,1.510184 -0.37221,1.779151 -0.13787,0.268966 -0.22563,0.511949 -0.195,0.539965 0.123,0.112499 4.54734,-2.116679 4.80624,-2.421591 0.1993,-0.234732 0.30786,-0.839428 0.38303,-2.133731 0.0577,-0.993392 0.18728,-2.231906 0.28793,-2.752257 0.10064,-0.520349 0.25496,-4.700337 0.34293,-9.288862 0.20584,-10.735689 0.6217,-23.9674655 0.8569,-27.2645306 0.10124,-1.4191325 0.201,-3.0446832 0.22168,-3.6123362 C 121.55141,0.05590226 121.57675,0 121.98348,0 c 0.40478,0 0.4333,0.0606524 0.48548,1.0320957 0.0305,0.567653 -0.029,2.1545001 -0.13229,3.5263263 -0.24025,3.1920713 -0.66371,16.331591 -0.86483,26.834492 -0.13082,6.832274 -0.21589,8.57683 -0.51923,10.649612 -0.52556,3.591287 -0.53369,3.575325 1.04298,2.049596 0.71622,-0.693079 1.55485,-1.589127 1.86363,-1.991214 0.54698,-0.712292 0.92332,-0.900825 1.13014,-0.566174 0.12614,0.204079 -0.73113,1.918527 -2.17068,4.341121 -0.60127,1.011873 -1.34382,2.27923 -1.65011,2.81635 l -0.55691,0.976579 0.18121,4.349567 c 0.10565,2.535932 0.1204,4.876144 0.0354,5.612435 -0.16012,1.386423 -0.15412,2.400932 0.0399,6.767379 0.0781,1.75785 0.0491,4.776824 -0.0728,7.568703 -0.11155,2.554438 -0.2087,8.321272 -0.21589,12.815188 -0.0144,8.987195 -0.11136,10.276453 -1.03537,13.761274 -0.28848,1.08801 -0.81629,2.71356 -1.17289,3.61234 -0.77946,1.96458 -1.98184,5.6082 -2.23864,6.78382 -0.13618,0.62342 -0.12962,1.3587 0.0246,2.765 l 0.21013,1.91574 -0.78754,1.87943 c -0.43314,1.03368 -0.91802,2.30516 -1.0775,2.82552 -0.61943,2.02102 -1.02046,3.24116 -1.5548,4.73042 -0.7242,2.01848 -1.0895,3.70832 -1.07837,4.98848 0.009,1.04141 -0.35354,2.15852 -1.4795,4.55841 -0.55231,1.17722 -0.58729,1.5562 -0.1032,1.11812 0.18921,-0.17125 0.34402,-0.46142 0.34402,-0.64482 0,-0.19187 0.15022,-0.37277 0.35376,-0.426 0.21983,-0.0575 0.31775,-0.18635 0.25865,-0.34039 -0.32164,-0.83816 1.19883,-1.53195 2.9921,-1.36528 1.51977,0.14124 2.11542,0.36217 2.03778,0.75579 -0.062,0.3141 -0.22531,0.32695 -2.546,0.20059 -0.58422,-0.0318 -1.11057,0.041 -1.37612,0.19032 -0.42722,0.24024 -0.42498,0.24257 0.34402,0.3549 0.42575,0.0622 0.91333,0.0408 1.08354,-0.0477 0.39294,-0.20408 1.43916,0.1159 1.97419,0.60381 0.48828,0.44529 0.89864,1.2506 0.89864,1.76358 0,0.50267 -0.35334,0.56712 -3.03825,0.55416 -1.82258,-0.009 -2.19385,0.0391 -2.88127,0.37189 -1.06163,0.51393 -1.04601,0.83614 0.071,1.46356 0.44967,0.25258 1.02558,0.35557 2.27542,0.40689 2.19533,0.0901 2.76345,-0.034 3.59583,-0.78605 0.8581,-0.77525 1.18547,-1.41621 1.77321,-3.47181 0.25485,-0.89134 0.61506,-1.91798 0.80048,-2.28143 0.33668,-0.65995 0.33666,-0.66133 -0.0182,-1.04221 -0.60094,-0.64503 -0.6584,-1.50634 -0.10049,-1.50634 0.12166,0 0.36131,0.15481 0.53255,0.34403 0.17125,0.18923 0.52979,0.34404 0.79678,0.34404 0.31936,0 0.5758,0.13794 0.74963,0.40324 0.23696,0.36165 0.23737,0.54358 0.004,1.76316 -0.2714,1.41832 -0.32122,2.31971 -0.16116,2.91553 0.0847,0.31529 0.20405,0.34492 1.15876,0.28764 0.7846,-0.0471 1.15475,0.007 1.40836,0.20755 0.32532,0.25666 0.32767,0.28414 0.043,0.5054 -0.40601,0.31558 -0.38467,0.37769 0.21503,0.62611 0.7286,0.30179 0.64267,0.47671 -0.30102,0.61268 -0.97345,0.14025 -1.79753,0.45816 -2.38451,0.91988 -0.41805,0.32884 -0.42032,0.34239 -0.0873,0.52063 0.53173,0.28456 1.10319,0.22073 2.43141,-0.27159 1.16693,-0.43254 1.22068,-0.47635 1.1079,-0.90309 -0.0652,-0.24667 -0.18628,-1.687 -0.26907,-3.20074 -0.0828,-1.51374 -0.17052,-2.98448 -0.19496,-3.26831 -0.0359,-0.41617 0.0221,-0.51604 0.29958,-0.51604 0.26054,0 0.4082,0.20283 0.60848,0.83576 0.23213,0.73363 0.29252,0.80195 0.49411,0.55906 0.31102,-0.37476 0.87558,-0.3576 0.87558,0.0266 0,0.16685 -0.27092,0.70563 -0.60205,1.19734 -0.57483,0.85357 -0.7608,1.42362 -0.46445,1.42362 0.0757,0 0.22868,-0.0911 0.33998,-0.20235 0.15512,-0.15514 0.27671,-0.13506 0.52099,0.086 0.17524,0.15862 0.58347,0.2916 0.90715,0.29553 0.41825,0.005 0.77992,0.17625 1.25016,0.59163 0.75174,0.66404 0.70549,1.04217 -0.10757,0.87956 -0.39474,-0.079 -0.75097,0.0246 -1.45866,0.42399 -0.51499,0.29064 -0.98021,0.48461 -1.0338,0.43102 -0.0536,-0.0536 -0.008,-0.38701 0.10005,-0.74092 0.1737,-0.56598 0.15703,-0.68394 -0.13842,-0.97938 -0.18476,-0.18476 -0.37175,-0.30006 -0.41559,-0.25624 -0.16003,0.16003 0.24723,2.63661 0.45652,2.77614 0.24968,0.16645 2.01958,0.0205 2.84022,-0.2343 0.30821,-0.0957 0.63992,-0.32257 0.73712,-0.50421 0.1307,-0.24423 0.36561,-0.33133 0.90177,-0.33435 1.14667,-0.007 2.03521,-0.2791 2.4827,-0.76169 0.22734,-0.24517 0.48071,-0.40412 0.56306,-0.35322 0.0824,0.0508 0.19834,0.0139 0.25776,-0.0823 0.24228,-0.39202 -2.00171,0.0928 -2.77519,0.59961 -0.53443,0.35017 -0.92142,0.22493 -0.92142,-0.29819 0,-0.24182 -0.14772,-0.46041 -0.38142,-0.56446 -0.45296,-0.20164 -0.61034,-0.69423 -0.63353,-1.98283 -0.0223,-1.24091 -0.46139,-2.90482 -0.8857,-3.35647 -0.47112,-0.50148 -0.4361,-0.82757 0.0751,-0.69927 0.3196,0.0802 0.40542,0.0367 0.38704,-0.19638 -0.0371,-0.4703 0.65208,-0.38639 0.71939,0.0876 0.0626,0.44068 0.33726,0.51377 0.48489,0.12901 0.11115,-0.28966 0.75027,-0.35708 0.75027,-0.0791 0,0.0984 -0.14381,0.46606 -0.31959,0.81707 -0.34424,0.68741 -0.62139,2.27236 -0.39737,2.27236 0.0751,0 0.3639,-0.23913 0.64177,-0.5314 0.88966,-0.93575 1.83227,-1.27285 2.04068,-0.72979 0.14227,0.37076 -0.72017,1.27228 -1.72924,1.80759 -0.67428,0.35771 -0.75229,0.46305 -0.75229,1.01579 0,0.33917 0.0472,0.66388 0.10488,0.72158 0.0577,0.0577 0.38553,-0.0455 0.72853,-0.22936 0.81576,-0.43724 0.96188,-0.42372 1.48183,0.13703 l 0.43701,0.4713 v -0.48776 c 0,-0.26826 0.10757,-0.6932 0.23903,-0.94433 0.28644,-0.54712 0.62105,-2.6142 0.62105,-3.83667 0,-0.53336 -0.20825,-1.48597 -0.52916,-2.4206 -0.29102,-0.84763 -0.48084,-1.58944 -0.42178,-1.64848 0.44119,-0.44119 1.41879,1.72002 1.58549,3.50507 0.0848,0.90774 -0.10085,2.62384 -0.40334,3.72908 -0.0671,0.24515 0.0296,0.30103 0.52111,0.30103 0.33193,0 0.64849,-0.0728 0.70349,-0.16178 0.15559,-0.25177 0.60117,-4.27338 0.60498,-5.46032 0.002,-0.89964 -0.0811,-1.19947 -0.54405,-1.94431 l -0.54743,-0.88065 -0.048,-5.28035 c -0.0264,-2.9042 -0.13991,-6.30496 -0.25224,-7.55727 -0.23848,-2.65854 -0.11189,-6.5309 0.26369,-8.06689 0.14187,-0.58021 0.57447,-1.84 0.96132,-2.79951 0.8692,-2.15584 0.97565,-2.982447 0.62363,-4.842673 -0.69819,-3.689529 -0.69835,-3.702952 -0.0573,-4.415498 0.32728,-0.363742 0.33581,-0.487503 0.16584,-2.408228 -0.22855,-2.582916 0.056,-5.207075 0.56466,-5.207075 0.15348,0 0.43451,-0.632425 0.78347,-1.763162 0.29927,-0.969741 0.73935,-2.1502 0.97799,-2.623244 0.42233,-0.837228 1.7562,-5.216782 1.7562,-5.766239 0,-0.151017 0.11365,-0.42483 0.25255,-0.608479 0.13889,-0.183649 0.25631,-0.450017 0.26091,-0.591929 0.005,-0.141913 0.28496,-0.915986 0.62299,-1.72016 0.33806,-0.804176 0.87236,-2.274911 1.18737,-3.268304 0.31499,-0.993392 0.8068,-2.502832 1.09288,-3.354312 0.99052,-2.948017 1.54299,-4.999278 1.99219,-7.396686 0.24818,-1.324522 0.55807,-2.79526 0.68867,-3.268303 0.13058,-0.473044 0.33177,-1.518042 0.44708,-2.322216 0.1153,-0.804175 0.47479,-2.313615 0.79889,-3.354311 0.60068,-1.928886 1.81881,-6.94266 2.02694,-8.342776 0.0633,-0.425739 0.30331,-1.762951 0.53339,-2.971583 0.23008,-1.208631 0.49818,-3.337329 0.5958,-4.73044 0.0976,-1.393108 0.24757,-2.99737 0.3333,-3.565023 0.0857,-0.567652 0.24138,-2.231906 0.34588,-3.698343 0.10451,-1.466437 0.23178,-2.782358 0.28283,-2.924271 0.051,-0.141914 0.15588,-1.61265 0.23296,-3.268304 0.0771,-1.655654 0.19484,-3.145742 0.26171,-3.311306 0.18829,-0.466198 0.74832,-0.372585 0.8787,0.146878 0.17106,0.681553 -0.10086,3.57765 -0.59591,6.346724 -0.10148,0.567653 -0.26611,2.038389 -0.36584,3.268303 -0.0998,1.229913 -0.25628,2.778059 -0.34785,3.440319 -0.0916,0.662262 -0.24532,2.403925 -0.34164,3.870359 -0.0963,1.466437 -0.29575,3.208098 -0.44316,3.870362 -0.14742,0.662261 -0.42077,2.12781 -0.60743,3.256778 -0.41051,2.48281 -1.52711,7.088446 -2.19728,9.06313 -0.26904,0.792752 -0.58567,2.138032 -0.70361,2.989513 -0.11794,0.851478 -0.35632,2.128697 -0.52971,2.838262 -0.17339,0.709565 -0.43868,2.005035 -0.58953,2.878821 -0.15085,0.873783 -0.4735,2.267114 -0.71699,3.096286 -0.24351,0.829174 -0.5851,2.049438 -0.75909,2.7117 -0.41445,1.577449 -2.42621,7.412529 -2.80041,8.122551 -0.29483,0.559403 -1.46682,4.707863 -2.01081,7.117637 -0.16226,0.718793 -0.89164,3.141699 -1.62084,5.384234 -1.0387,3.194388 -1.31618,4.258801 -1.28134,4.915284 0.0245,0.460864 -0.0332,0.940736 -0.12818,1.06636 -0.11338,0.149999 -0.12156,1.173394 -0.0238,2.980678 0.0818,1.513735 0.12349,3.758549 0.0925,4.988472 -0.054,2.145564 -0.0828,2.298954 -0.71194,3.784344 -1.20372,2.8421 -1.17852,2.62326 -1.03958,9.03084 0.0687,3.16939 0.13691,7.03976 0.1515,8.60081 0.0225,2.41236 0.0852,3.03009 0.41751,4.11668 0.51322,1.6783 0.99489,3.9454 1.1413,5.37186 0.13187,1.2849 0,1.8349 -0.86734,3.60322 -0.30645,0.62517 -0.64672,1.40794 -0.75615,1.73952 -0.20737,0.62832 -1.10115,1.90562 -2.00469,2.86488 -0.54388,0.57741 -1.37749,0.87 -2.49994,0.87746 -0.392,0.002 -0.73025,0.12768 -0.92387,0.34164 -0.4541,0.50176 -1.31688,0.72513 -3.34478,0.86592 -1.29997,0.0903 -2.16638,0.2552 -3.02568,0.57599 -1.27564,0.4762 -1.7294,0.52259 -2.61242,0.26711 z m -6.6253,-4.60161 c 0.17755,-0.11265 0.16717,-0.18804 -0.0508,-0.36896 -0.15069,-0.12507 -0.23664,-0.32471 -0.19101,-0.44363 0.0677,-0.17648 -0.39605,-0.53546 -0.48804,-0.37776 -0.0151,0.0259 -0.15883,0.2572 -0.3194,0.51405 -0.37836,0.60516 -0.37566,0.61558 0.18107,0.69991 0.26017,0.0394 0.51174,0.0821 0.55905,0.0948 0.0473,0.0127 0.18643,-0.0405 0.30917,-0.11841 z M 97.960948,95.296853 c -0.02729,-0.178376 -1.123814,-0.616522 -1.248423,-0.498837 -0.03886,0.0367 0.07298,0.225377 0.248545,0.41934 0.317057,0.35036 1.050232,0.408645 0.999878,0.07947 z m -1.599957,-1.47687 c 0.237127,-0.443073 0.24683,-0.434909 -0.695952,-0.586406 l -0.774069,-0.124385 0.505236,0.534787 c 0.596458,0.631343 0.710016,0.652047 0.964785,0.176004 z m 15.398369,-33.399374 0.50522,-0.55905 -0.55904,0.505226 c -0.52112,0.470943 -0.63813,0.612878 -0.50524,0.612878 0.0296,0 0.28118,-0.251575 0.55906,-0.559054 z m -8.45654,-1.921127 c -0.20616,-0.685174 -0.37035,-0.633598 -0.87698,0.275481 -0.82349,1.47769 -0.80583,1.592419 0.12441,0.808027 0.67808,-0.571755 0.8375,-0.801278 0.75257,-1.083508 z m 5.85112,0.30536 c 0.0597,-0.155454 0.0746,-0.31654 0.0331,-0.357969 -0.13954,-0.139535 -0.80353,0.312169 -0.70152,0.477228 0.1603,0.259374 0.54975,0.189884 0.66837,-0.119259 z m -0.35229,-1.370415 c 0.44813,-0.152692 0.78184,-0.364911 0.74386,-0.473042 -0.0973,-0.277171 -0.59492,-0.149903 -1.30778,0.334489 -0.71417,0.4853 -0.56284,0.522482 0.56392,0.138553 z M 86.892219,53.52457 c 0,-0.03212 -0.483791,-0.42507 -1.07509,-0.873214 l -1.075098,-0.814804 0.89029,0.873211 c 0.749212,0.734832 1.259907,1.065111 1.259898,0.814807 z m 0.307296,-3.759523 c -0.137899,-0.207685 -0.340857,-0.407654 -0.45102,-0.444373 -0.31873,-0.106244 -0.231851,0.442477 0.100726,0.636186 0.487502,0.283945 0.618536,0.212189 0.350294,-0.191813 z m -5.388416,-1.127531 c -0.331999,-0.795202 -0.5954,-1.088523 -0.5954,-0.663013 0,0.286547 0.615464,1.308073 0.788094,1.308073 0.04213,0 -0.04459,-0.290276 -0.192694,-0.64506 z m 4.393065,0.135063 c 0,-0.205151 -0.681673,-0.585825 -0.813314,-0.454183 -0.142068,0.142074 0.302236,0.620149 0.576353,0.620149 0.130335,0 0.236961,-0.07469 0.236961,-0.165966 z m 34.456586,-0.558881 c 0.31551,-0.42261 0.57107,-2.031766 0.32137,-2.023585 -0.0642,0.0021 -0.31025,0.155196 -0.54678,0.340208 -0.23652,0.18501 -0.52679,0.338103 -0.64506,0.340206 -0.29308,0.0052 -0.27053,0.259668 0.0464,0.522634 0.18881,0.156691 0.23009,0.38354 0.14874,0.817231 -0.13331,0.710597 0.14631,0.711965 0.67541,0.0033 z M 91.106615,47.280133 c -0.731686,-0.600417 -1.976514,-1.324864 -2.086885,-1.214497 -0.05126,0.05124 0.126424,0.234053 0.394807,0.406251 0.268384,0.172196 0.826837,0.568435 1.241,0.88053 0.85206,0.642074 1.244919,0.579122 0.451078,-0.07228 z m -2.126246,-0.239486 c -0.468438,-0.39025 -0.884024,-0.441469 -0.884024,-0.108955 0,0.351497 0.180681,0.459233 0.759739,0.452984 l 0.530384,-0.0057 z m -7.994778,-0.897362 c -0.04772,-0.118261 -0.08676,-0.0215 -0.08676,0.215018 0,0.236524 0.03904,0.333284 0.08676,0.21502 0.04772,-0.118259 0.04772,-0.311778 0,-0.430038 z m 5.900487,0.160758 c -0.138532,-0.124452 -0.464751,-0.316312 -0.724912,-0.426353 -0.374494,-0.158388 -0.473048,-0.154003 -0.473048,0.02105 0,0.217313 0.703268,0.577335 1.19796,0.613275 0.221166,0.01606 0.221166,-0.0093 0,-0.207978 z m 3.723132,-0.143342 c -0.389656,-0.55631 -1.82441,-1.694572 -2.135958,-1.694572 -0.328699,0 -0.274949,0.05852 1.094113,1.191 1.111939,0.919808 1.446729,1.081625 1.041845,0.503572 z m -8.701997,-5.904806 c -0.232803,-0.28052 -0.691516,-0.357766 -0.691516,-0.116453 0,0.157514 0.730465,0.538638 0.841595,0.439105 0.03713,-0.03326 -0.03041,-0.178454 -0.150079,-0.322652 z m 35.072397,95.363295 c -0.27942,-0.27942 -0.30962,-0.40229 -0.14705,-0.59816 0.11253,-0.13559 0.26699,-0.24651 0.34325,-0.24651 0.22059,0 0.67929,0.51857 0.67929,0.76795 0,0.39741 -0.51009,0.44212 -0.87549,0.0767 z m -3.16552,-3.83029 c -0.79319,-0.23903 -1.01691,-0.73329 -0.39983,-0.88332 0.21915,-0.0533 0.7468,0.005 1.17254,0.1297 0.57987,0.16975 0.78786,0.32198 0.82905,0.60679 0.0459,0.31773 -0.0247,0.37801 -0.43005,0.36697 -0.26676,-0.007 -0.79403,-0.10634 -1.17171,-0.22014 z M 13.950946,120.79711 c -0.680943,-0.4069 -1.09117,-0.81749 -1.499537,-1.50088 l -0.562155,-0.94074 0.04501,-6.54086 0.04501,-6.54086 0.946088,-0.0959 c 0.520349,-0.0528 1.120256,-0.0631 1.333125,-0.023 l 0.387037,0.0729 v 6.35236 6.35236 l 0.422218,0.42221 c 0.518272,0.51828 1.136912,0.54156 1.572307,0.0592 0.309841,-0.34328 0.32769,-0.71099 0.32769,-6.75162 v -6.38859 l 1.257754,-0.0508 1.257754,-0.0508 -0.05364,6.95988 -0.05364,6.95987 -0.516047,0.73239 c -1.129982,1.60368 -3.174954,2.00889 -4.908969,0.97271 z m 90.568114,0.40313 c -1.60376,-0.26381 -2.66145,-1.84538 -2.66145,-3.9797 v -0.98911 l 0.81709,-0.0661 c 0.44938,-0.0364 1.02994,-0.0354 1.29012,0.002 0.44812,0.0648 0.47303,0.11644 0.47303,0.98238 0,0.7826 0.0652,0.96534 0.45325,1.27059 0.58598,0.46095 0.94684,0.45029 1.40895,-0.0416 0.44662,-0.4754 0.51296,-1.76457 0.12824,-2.49168 -0.13518,-0.25549 -0.99248,-1.19988 -1.90511,-2.09866 -2.18819,-2.15498 -2.55498,-2.85623 -2.56422,-4.90246 -0.009,-2.06085 0.49635,-2.98273 1.9652,-3.58295 2.21331,-0.90441 4.45297,-0.13304 5.04776,1.73854 0.38836,1.22199 0.48385,1.83917 0.36058,2.33031 -0.098,0.39037 -0.18743,0.43747 -0.73988,0.38955 -0.34563,-0.03 -0.88,-0.0651 -1.18749,-0.078 -0.5352,-0.0225 -0.55905,-0.0533 -0.55905,-0.72282 0,-0.96691 -0.24136,-1.32997 -0.97572,-1.46773 -0.79924,-0.14994 -1.08847,0.19828 -1.08847,1.31041 0,1.00167 0.55083,1.87252 2.3147,3.65941 1.51465,1.53444 2.10312,2.60452 2.25578,4.10191 0.19992,1.96096 -0.4975,3.42811 -2.06669,4.34772 -0.77678,0.45523 -1.37194,0.51712 -2.76662,0.28771 z M 4.0941378,121.05623 c -0.043294,-0.071 -0.3192396,-1.71585 -0.6132113,-3.65533 -1.0989267,-7.25016 -1.0037352,-7.10903 -1.0275392,-1.52354 -0.023729,5.56799 0.1032572,5.13588 -1.50928414,5.13588 H 0 l 0.03973566,-7.91273 0.0397344,-7.91275 1.69250834,-0.0258 c 0.9308793,-0.0142 1.7892669,-0.0335 1.9075272,-0.043 0.1265683,-0.0101 0.2339065,0.23047 0.2609317,0.58485 0.1102427,1.44563 1.1005143,9.41307 1.215638,9.78067 0.082494,0.26342 0.3546192,-1.33598 0.7755839,-4.55842 0.3566743,-2.73032 0.6843163,-5.13839 0.728093,-5.35126 0.076354,-0.37128 0.1519665,-0.38704 1.8585227,-0.38704 h 1.7789291 l 0.108473,0.90309 c 0.05966,0.49669 0.109148,4.05743 0.109968,7.91274 l 0.0015,7.00965 H 9.2269932 7.9368735 l -0.01359,-4.51542 c -0.00746,-2.48348 -0.044096,-4.43802 -0.081392,-4.34341 -0.1669006,0.4234 -0.9646736,5.14359 -1.1329164,6.70316 -0.2473636,2.29299 -0.2700236,2.32768 -1.5202676,2.32768 -0.5587405,0 -1.0513148,-0.0581 -1.0946086,-0.12901 z m 49.4269972,-0.23176 c -1.214404,-0.72514 -1.720156,-1.7379 -1.720156,-3.44458 v -1.1831 h 1.290121 1.290119 v 0.9161 c 0,0.73518 0.07861,0.98996 0.398118,1.29013 0.498527,0.46833 0.692794,0.468 1.329003,-0.002 0.443812,-0.32813 0.509083,-0.48462 0.509083,-1.22057 0,-1.04194 -0.245885,-1.40906 -2.330124,-3.47902 -2.462298,-2.44545 -3.037188,-4.08194 -2.24966,-6.40387 0.554042,-1.63351 1.564166,-2.24661 3.73727,-2.26834 1.5568,-0.0156 2.185787,0.31428 2.94706,1.54564 0.388494,0.62836 0.488866,1.00855 0.521402,1.97492 l 0.0403,1.19678 h -1.290118 -1.29012 l -0.05331,-0.94087 c -0.02933,-0.51748 -0.135552,-1.03998 -0.236079,-1.16111 -0.292225,-0.3521 -1.077133,-0.25819 -1.486798,0.17788 -0.856306,0.91149 -0.280537,2.43975 1.529824,4.06059 0.671843,0.60152 1.582668,1.63706 2.024057,2.30122 l 0.802544,1.20754 v 1.64978 c 0,1.42642 -0.05587,1.74733 -0.412671,2.37012 -0.22697,0.39616 -0.742774,0.95737 -1.146233,1.24711 -0.678294,0.48712 -0.841571,0.52676 -2.16757,0.52615 -1.14707,0 -1.554478,-0.0726 -2.036066,-0.36014 z m 11.224042,0.22189 -0.731072,-0.0529 v -7.88403 -7.88403 l 0.565252,-0.066 c 0.310893,-0.0363 0.930152,-0.037 1.376134,-0.002 l 0.810865,0.0645 v 6.66717 6.66716 l 1.89569,-0.007 c 1.085337,-0.004 1.971702,0.0692 2.073518,0.17108 0.09782,0.0978 0.154299,0.63422 0.125503,1.192 l -0.05233,1.01417 -2.666252,0.086 c -1.466441,0.0473 -2.995233,0.0622 -3.397311,0.0331 z m -44.251111,-1.23723 v -1.20412 h 0.696278 c 0.531986,0 0.795813,-0.10739 1.118105,-0.45516 l 0.421827,-0.45515 v -6.26071 -6.26069 l 1.333122,0.0503 1.333125,0.0503 0.04505,6.5842 c 0.04919,7.18914 0.06316,7.07103 -0.967774,8.18153 -0.721403,0.77708 -1.262868,0.97374 -2.681073,0.97374 h -1.298663 z m 6.536608,-6.70862 v -7.91275 h 3.440319 3.440318 v 1.20412 1.20411 l -1.935177,0.002 c -1.064351,0.002 -2.034794,0.0658 -2.15654,0.1431 -0.162781,0.10327 -0.2083,0.61465 -0.172016,1.93253 l 0.04934,1.7921 1.677155,0.0493 1.677155,0.0493 v 1.19166 1.19166 l -1.677155,0.0493 -1.677155,0.0493 -0.048,2.27922 -0.048,2.27921 h 2.155193 2.155192 v 1.20412 1.20411 h -3.440311 -3.440321 z m 8.084747,0.0176 v -7.89503 l 2.193205,-0.072 c 2.486082,-0.0816 3.583477,0.17571 4.376688,1.0262 0.736906,0.7901 0.826825,1.13518 0.826155,3.17048 -6.3e-4,2.007 -0.01406,2.05618 -0.888919,3.26351 -0.171287,0.23636 -0.114535,0.38962 0.333067,0.89939 0.665974,0.75852 0.712435,1.03773 0.769022,4.62137 l 0.04549,2.88142 h -1.329845 c -1.589923,0 -1.476945,0.22835 -1.546002,-3.1271 -0.04264,-2.0721 -0.09133,-2.41082 -0.407926,-2.83827 -0.40158,-0.54219 -1.185195,-0.991 -1.447363,-0.82897 -0.104241,0.0644 -0.171317,1.41524 -0.171317,3.45004 v 3.344 h -1.376127 -1.37613 z m 4.548672,-1.77612 c 0.186638,-0.26646 0.267779,-0.78771 0.267779,-1.72017 0,-1.61773 -0.277261,-2.02591 -1.376129,-2.02591 H 37.86768 v 1.96558 c 0,2.13862 -0.02117,2.09605 1.065345,2.14284 0.29934,0.0129 0.558052,-0.11534 0.731068,-0.36234 z m 4.283487,7.32175 c 0.06197,-1.29217 0.112673,-4.8529 0.112673,-7.91273 v -5.56333 h 3.425648 3.425644 l 0.05768,1.13312 c 0.03172,0.6232 0.02542,1.16505 -0.01399,1.2041 -0.03943,0.039 -0.987665,0.071 -2.107192,0.071 h -2.035527 v 1.97818 1.97819 h 1.634158 1.634142 v 1.20411 1.20411 h -1.634142 -1.634158 v 2.32222 2.32221 h 2.064195 2.064192 v 1.20412 1.20411 h -3.553004 -3.552991 z m 27.921922,2.23473 c -0.06307,-0.0631 -0.114681,-3.62705 -0.114681,-7.91997 v -7.80528 l 1.333121,0.0503 1.333133,0.0503 0.04475,7.86973 0.04473,7.86973 h -1.263182 c -0.694757,0 -1.314788,-0.0516 -1.377862,-0.11468 z m 4.226974,-7.73408 0.04475,-7.8907 h 2.752255 c 3.105328,0.002 3.271716,0.0538 4.153654,1.32544 0.436084,0.62882 0.494836,0.87232 0.52719,2.18506 0.04261,1.72709 -0.143041,2.56118 -0.723443,3.25094 l -0.41997,0.49909 0.410594,0.38574 c 0.792286,0.74431 1.099898,1.81253 1.068742,3.71124 -0.03678,2.24185 -0.468263,3.19866 -1.736911,3.85152 -0.759455,0.39083 -1.074294,0.43616 -3.478328,0.50075 l -2.643291,0.071 z m 4.742764,5.0898 c 0.33062,-0.30801 0.376459,-0.52997 0.376459,-1.82261 0,-1.21232 -0.06273,-1.55999 -0.355738,-1.97149 -0.308961,-0.43388 -0.465489,-0.49959 -1.190086,-0.49959 h -0.834333 l -0.06218,2.1932 c -0.0342,1.20626 -0.03594,2.25126 -0.0039,2.32221 0.03207,0.071 0.426178,0.12902 0.875798,0.12902 0.584928,0 0.92459,-0.0998 1.193954,-0.35074 z m -0.152066,-7.15515 c 0.261816,-0.33285 0.356511,-0.70274 0.356511,-1.39259 0,-1.52906 -0.601686,-2.22788 -1.791692,-2.08098 l -0.457141,0.0564 -0.03669,1.9353 -0.03669,1.93531 0.804595,-1.3e-4 c 0.664245,-1e-4 0.866767,-0.0791 1.161108,-0.45336 z m 4.380669,9.67065 c -0.133172,-0.34704 -0.005,-15.35822 0.13204,-15.4953 0.143067,-0.14287 4.44093,-0.0987 5.462578,0.0562 0.680074,0.10307 0.815652,0.20556 1.290114,0.97526 0.479763,0.77829 0.535776,1.01894 0.589094,2.53091 0.06424,1.8226 -0.229072,3.11512 -0.830548,3.65946 -0.31977,0.28938 -0.313604,0.3163 0.265129,1.15763 0.489999,0.71234 0.592506,1.017 0.592506,1.76095 0,0.49477 0.05068,1.95683 0.112676,3.249 l 0.112676,2.34941 H 91.391309 89.98851 v -2.90108 c 0,-2.67447 -0.02779,-2.93647 -0.35651,-3.3543 -0.289246,-0.36771 -0.500234,-0.45324 -1.118105,-0.45324 h -0.761586 v 3.35431 3.35431 h -1.295515 c -0.958477,0 -1.319831,-0.0633 -1.388951,-0.24347 z m 4.124954,-9.20918 c 0.685359,-0.26058 0.846767,-0.75495 0.712887,-2.18358 -0.143416,-1.53056 -0.367694,-1.81917 -1.357453,-1.74687 l -0.709908,0.0518 -0.04852,2.02118 -0.04843,2.02119 h 0.510312 c 0.280666,0 0.704158,-0.0737 0.941093,-0.16378 z m 4.924096,1.53991 v -7.91274 h 3.440327 3.44033 v 1.20412 1.20411 H 98.9435 c -1.12973,0 -2.087342,0.0581 -2.128052,0.12901 -0.04069,0.071 -0.03462,0.97188 0.01348,2.00204 l 0.08746,1.87304 1.610534,-0.0961 1.610548,-0.0961 v 1.27632 1.27634 h -1.634157 -1.634142 v 2.32221 2.32222 h 2.035515 c 1.119534,0 2.067784,0.032 2.107204,0.071 0.0394,0.039 0.0457,0.58091 0.014,1.20412 l -0.0577,1.1331 H 97.542557 94.11691 Z M 92.869785,83.155589 c -0.238242,-0.138514 -0.301029,-0.410019 -0.301029,-1.301675 0,-0.915321 0.129061,-1.446776 0.688064,-2.833261 0.378438,-0.938632 0.688063,-1.85349 0.688063,-2.033023 0,-0.556449 0.194811,-0.870604 0.539854,-0.870604 0.182054,0 0.37947,0.126272 0.438704,0.280607 0.177685,0.463057 -0.297542,2.503353 -0.776032,3.331729 -0.340841,0.590042 -0.469178,1.097996 -0.539854,2.136576 -0.09485,1.393956 -0.210531,1.596181 -0.73777,1.289651 z"
       id="path1" />
  </g>
</svg>
