<?xml version="1.0" encoding="UTF-8" standalone="no"?>
<!-- Created with Inkscape (http://www.inkscape.org/) -->

<svg
   version="1.1"
   id="svg1"
   width="515.16748"
   height="252.39592"
   viewBox="0 0 515.16747 252.39592"
   sodipodi:docname="PazALP.svg"
   inkscape:version="1.3.2 (091e20ef0f, 2023-11-25, custom)"
   xmlns:inkscape="http://www.inkscape.org/namespaces/inkscape"
   xmlns:sodipodi="http://sodipodi.sourceforge.net/DTD/sodipodi-0.dtd"
   xmlns="http://www.w3.org/2000/svg"
   xmlns:svg="http://www.w3.org/2000/svg">
  <defs
     id="defs1" />
  <sodipodi:namedview
     id="namedview1"
     pagecolor="#505050"
     bordercolor="#ffffff"
     borderopacity="1"
     inkscape:showpageshadow="0"
     inkscape:pageopacity="0"
     inkscape:pagecheckerboard="1"
     inkscape:deskcolor="#505050"
     inkscape:zoom="0.35387487"
     inkscape:cx="308.01848"
     inkscape:cy="531.26123"
     inkscape:window-width="1920"
     inkscape:window-height="1052"
     inkscape:window-x="0"
     inkscape:window-y="0"
     inkscape:window-maximized="1"
     inkscape:current-layer="g1" />
  <g
     inkscape:groupmode="layer"
     inkscape:label="Image"
     id="g1">
    <path
       style="fill:#ffffff;fill-opacity:1;stroke-width:0.400704"
       d="m 253.79848,252.33809 c -4.28064,-0.0998 -5.51326,-0.23647 -8.27054,-0.91733 -6.33628,-1.56462 -12.32969,-5.32866 -17.08181,-10.72789 -3.43573,-3.90359 -5.86195,-7.60176 -8.6826,-13.23448 -2.38958,-4.7719 -4.23551,-7.61643 -6.47975,-9.9851 -2.38092,-2.51291 -13.91062,-11.6069 -21.16172,-16.69117 -15.6888,-11.00055 -31.24778,-19.1679 -48.40509,-25.40919 -4.06179,-1.47755 -10.83596,-3.69648 -11.85728,-3.88394 -3.57115,-0.65546 -8.99448,-0.55846 -18.27569,0.32689 -7.07303,0.67471 -17.762452,2.2269 -30.068862,4.36626 -11.205687,1.94799 -19.115099,3.46235 -43.788978,8.38395 -24.503291,4.88758 -28.740179,5.69185 -33.1462726,6.29199 -2.0886036,0.28448 -4.1053168,0.29219 -4.6328963,0.0177 -0.98319638,-0.51154 -1.83118309,-2.11282 -1.93198028,-3.64821 -0.18689254,-2.84689 1.33317568,-5.46996 6.71325738,-11.58459 6.4092148,-7.28427 7.9624098,-9.09166 7.8129708,-9.09166 -0.182681,0 -5.1961466,-1.07401 -6.6440759,-1.42332 -1.8477402,-0.44577 -2.8026349,-0.95822 -3.5867493,-1.92486 -0.7631415,-0.94078 -1.0047703,-1.58971 -1.4697877,-3.9473 -0.573949,-2.90988 -0.5620721,-4.12584 0.052741,-5.39884 0.617205,-1.27795 1.3809916,-1.90705 4.904662,-4.03974 1.7278374,-1.04577 3.2453449,-1.97132 3.3722359,-2.05679 0.209556,-0.14114 0.17284,-0.19788 -0.400364,-0.61865 -0.34709,-0.25478 -0.839848,-0.76668 -1.0950165,-1.13753 -0.7887105,-1.14629 -0.9495573,-1.81282 -1.0821183,-4.48418 -0.1312227,-2.64435 -0.050176,-3.52174 0.4205433,-4.55271 0.3399215,-0.7445 1.3032265,-1.84543 1.9903545,-2.27471 0.246834,-0.1542 3.488348,-1.51678 7.203359,-3.02795 3.715015,-1.51117 6.715489,-2.78379 6.667721,-2.82806 -0.04776,-0.0443 -1.615932,-0.68974 -3.484822,-1.4344 -4.907362,-1.95536 -11.5928748,-4.95564 -15.6782326,-7.03597 -1.6825538,-0.85679 -1.888648,-1.08748 -1.888648,-2.114 v -0.6119 l 2.6606772,-2.58298 c 5.0576304,-4.90994 9.8722504,-10.34503 15.5513744,-17.555498 1.222016,-1.551528 5.549135,-7.26397 9.615823,-12.694316 4.066685,-5.430346 8.248192,-10.969684 9.292239,-12.30964 8.311804,-10.667589 15.024873,-17.702784 21.740795,-22.784016 8.221104,-6.220043 16.376861,-9.524323 25.575528,-10.361839 2.860841,-0.260474 8.835933,-0.0913 11.732625,0.33218 7.306817,1.068229 14.540437,4.139556 22.937567,9.739072 l 2.05476,1.370197 1.40943,-1.040526 c 7.89572,-5.829123 15.90371,-9.054565 25.40131,-10.231097 2.67341,-0.331174 10.14058,-0.329235 12.88665,0.0032 8.7475,1.059422 15.97474,3.705349 23.2293,8.504353 6.12251,4.050136 12.57763,10.325412 18.68185,18.161375 0.89223,1.145353 0.98025,1.310532 0.98025,1.839486 0,0.675776 -0.27288,1.204617 -0.77445,1.500906 -0.41829,0.247086 -1.12853,0.271938 -1.60233,0.05606 -0.18548,-0.08451 -1.12457,-1.137564 -2.08688,-2.340114 -7.61497,-9.516105 -14.73116,-15.689333 -22.66822,-19.664469 -5.00605,-2.507183 -10.63024,-4.124947 -16.65709,-4.791311 -2.02123,-0.223477 -9.12086,-0.227371 -11.02739,-0.0061 -9.04977,1.050555 -16.76733,4.088495 -24.07299,9.476094 l -0.8642,0.637308 1.52489,1.179486 c 4.20031,3.248891 8.82352,7.304585 14.44032,12.667705 l 2.57067,2.454575 0.76151,-0.309813 c 2.1939,-0.892573 5.20517,-1.695056 7.94786,-2.118043 2.14238,-0.330405 6.74806,-0.460923 8.79798,-0.249319 7.05202,0.727952 13.32372,3.804913 20.50152,10.058274 1.55318,1.353139 7.4968,7.245173 12.29056,12.183879 l 2.8462,2.932254 1.56768,-1.523045 c 2.16047,-2.098954 4.57013,-4.256174 5.01896,-4.493175 0.62028,-0.327532 1.4543,-0.160185 1.96184,0.393644 0.36241,0.395447 0.42114,0.551942 0.42114,1.122061 0,0.76932 0.30712,0.428405 -3.95491,4.390161 l -2.60374,2.420299 0.42631,0.445852 c 0.61587,0.6441 3.28004,2.866242 4.69333,3.914633 2.68089,1.988707 5.64123,3.607777 8.0164,4.384337 1.78776,0.58451 3.00737,0.76032 4.73993,0.68329 2.32796,-0.10351 4.03767,-0.80078 5.9418,-2.42325 0.97861,-0.83385 1.47807,-1.037572 2.16435,-0.88279 0.77924,0.17575 1.22082,0.75572 1.22082,1.60342 0,0.68365 -0.28595,1.12275 -1.26946,1.94935 -1.85224,1.55673 -4.20462,2.6546 -6.42406,2.99816 -1.36719,0.21162 -4.26934,0.0774 -5.64192,-0.26103 -3.23536,-0.79763 -5.86441,-2.00132 -9.19706,-4.21085 -1.74937,-1.1598 -4.30206,-3.193259 -5.89406,-4.695159 l -1.17867,-1.111955 -3.05547,2.986306 c -4.5168,4.414568 -7.48745,7.149098 -11.02927,10.152638 -1.00516,0.8524 -1.16426,1.03893 -1.05704,1.23926 0.20451,0.38213 3.61699,3.78113 5.7874,5.76453 1.10462,1.00945 2.07112,1.97301 2.14778,2.14125 0.38173,0.83783 -0.0284,1.95787 -0.84141,2.29755 -0.86285,0.36052 -1.32464,0.16505 -2.7198,-1.15125 -0.68383,-0.64517 -1.99182,-1.84633 -2.90664,-2.66924 -0.91483,-0.82291 -2.20221,-2.10397 -2.86085,-2.8468 -0.65863,-0.74284 -1.27337,-1.41357 -1.36607,-1.4905 -0.12811,-0.10632 -0.44109,0.0421 -1.30426,0.61854 -4.35332,2.90717 -9.36402,4.8379 -14.94454,5.75845 -1.02848,0.16966 -2.15213,0.21782 -5.10164,0.21869 -3.34774,8e-4 -3.97431,-0.0321 -5.44958,-0.28761 -6.66644,-1.15465 -12.52499,-3.88809 -18.1439,-8.46546 -1.91959,-1.56376 -5.06329,-4.74879 -7.04708,-7.13971 -1.49738,-1.80469 -6.07831,-7.792883 -6.40699,-8.375206 -0.0802,-0.142046 -0.16357,-0.172039 -0.24381,-0.08768 -0.0671,0.07052 -1.66826,2.176627 -3.55817,4.680228 -3.89495,5.159698 -6.3299,8.280758 -8.41054,10.780438 -10.1611,12.20749 -19.674127,19.34072 -30.688478,23.01141 -3.944105,1.31443 -7.47268,2.06639 -12.437864,2.65056 -2.195356,0.2583 -10.853644,0.21484 -13.463669,-0.0676 -7.426034,-0.80352 -14.932494,-2.4245 -22.158977,-4.78514 l -1.771134,-0.57856 -8.422786,3.42349 c -4.632532,1.88292 -8.637977,3.53235 -8.900988,3.66539 -0.833056,0.42139 -0.918158,0.75373 -0.824978,3.22171 0.08602,2.27834 0.197295,2.7318 0.76089,3.10073 1.21736,0.79689 14.809438,5.5435 22.922824,8.00509 29.808682,9.0439 60.023802,14.05224 89.5282,14.83985 1.81599,0.0485 3.3018,0.12896 3.3018,0.17885 0,0.0499 0.50489,0.12869 1.12197,0.17512 2.16041,0.16253 3.53506,0.48188 7.08446,1.64581 14.29969,4.68918 26.1644,9.8371 38.14706,16.55143 12.40529,6.95115 25.26296,15.9301 37.51212,26.19599 4.18414,3.50668 5.52789,5.1348 9.09329,11.01768 5.86674,9.68007 10.27257,14.76646 14.55811,16.80688 2.70142,1.28619 4.97166,1.47496 10.12981,0.84226 5.31445,-0.65186 6.26898,-0.72162 9.87335,-0.72162 3.60438,0 4.55891,0.0698 9.87336,0.72162 5.15903,0.6328 7.43032,0.44382 10.12981,-0.84286 3.99879,-1.90598 8.28656,-6.67732 13.29628,-14.79584 2.00396,-3.24753 4.55466,-7.09135 5.41833,-8.16526 1.56147,-1.94157 3.02876,-3.29875 7.6357,-7.06268 10.15854,-8.29962 20.8773,-15.83613 30.83822,-21.68273 13.25213,-7.77841 25.13306,-13.13994 40.9039,-18.45883 5.84271,-1.97051 6.01862,-2.00065 13.72012,-2.35062 29.76545,-1.3526 60.9465,-6.99132 91.74528,-16.59104 8.97863,-2.79856 20.7956,-6.97352 23.58895,-8.33401 1.30325,-0.63476 1.34304,-0.72973 1.39453,-3.3299 0.052,-2.62437 -0.02,-2.8521 -1.0579,-3.35161 -0.35895,-0.17274 -3.59544,-1.44742 -7.19216,-2.83261 -3.59672,-1.3852 -6.71581,-2.60084 -6.93135,-2.70142 -0.36704,-0.1713 -0.47671,-0.15102 -1.73104,0.32011 -10.85428,4.0769 -21.66901,6.56895 -31.27983,7.20785 -2.5157,0.16724 -8.77999,0.0877 -10.83504,-0.13758 -15.40128,-1.6883 -27.41961,-8.18093 -39.28635,-21.22365 -3.62445,-3.98363 -6.79346,-7.92439 -12.5713,-15.63283 l -3.99778,-5.333644 -1.48558,2.020356 c -4.86887,6.621668 -8.62151,10.816738 -12.32053,13.773168 -5.684,4.54288 -11.41615,7.15237 -18.17287,8.2729 -2.0486,0.33973 -8.06181,0.33634 -10.25803,-0.006 -4.87069,-0.75877 -9.59848,-2.48524 -13.72633,-5.01248 l -1.33411,-0.81681 -1.46806,1.63663 c -0.80746,0.90015 -2.15038,2.27137 -2.98429,3.04717 -4.21593,3.92214 -4.4741,4.14619 -4.9182,4.26853 -0.62121,0.17114 -1.31018,-0.0392 -1.71874,-0.52476 -0.26791,-0.31839 -0.32882,-0.52477 -0.32882,-1.1143 v -0.72354 l 0.99375,-0.96938 c 0.54656,-0.53316 1.86868,-1.76292 2.93804,-2.7328 1.78474,-1.61868 4.66684,-4.66446 4.65386,-4.91815 -0.004,-0.0588 -0.30594,-0.33762 -0.67318,-0.61969 -2.77692,-2.13283 -7.93487,-6.85153 -14.35516,-13.132714 l -1.24951,-1.222473 -0.80209,0.775652 c -4.08551,3.951015 -9.43311,7.414715 -13.42548,8.695855 -2.50646,0.80432 -3.17417,0.90951 -5.7128,0.89999 -2.11732,-0.008 -2.3996,-0.0367 -3.41574,-0.34792 -0.60923,-0.1866 -1.43367,-0.48343 -1.8321,-0.65963 -1.09061,-0.48232 -2.80873,-1.64809 -3.6853,-2.50053 l -0.78016,-0.75868 0.0568,-0.7851 c 0.0666,-0.92085 0.40821,-1.36595 1.18233,-1.54055 0.69255,-0.156198 1.10991,0.0126 2.10789,0.85269 1.99741,1.68132 3.64691,2.34068 6.11827,2.44569 1.76373,0.0749 2.95897,-0.11189 4.86414,-0.76033 2.59562,-0.88345 6.15825,-2.980267 9.26211,-5.451291 1.57757,-1.255943 3.62453,-3.080287 3.62453,-3.230362 0,-0.09536 -4.06138,-3.92728 -5.38547,-5.081173 -0.86832,-0.756734 -1.01546,-1.002089 -1.02123,-1.702853 -0.006,-0.693483 0.2754,-1.247205 0.76058,-1.49811 0.44546,-0.230341 1.19121,-0.253061 1.58342,-0.04824 0.37574,0.196233 1.75164,1.420798 4.36303,3.883107 l 2.16549,2.041885 6.81321,-6.871391 c 6.64412,-6.700812 8.04663,-8.035967 10.59262,-10.083867 5.92526,-4.766102 11.82082,-7.417323 17.98186,-8.086375 1.58795,-0.172443 5.32367,-0.17419 7.04386,-0.0032 3.71809,0.369389 7.59936,1.360945 10.77386,2.752431 l 1.2395,0.543323 0.68388,-0.698051 c 2.15647,-2.201214 8.26112,-7.757886 11.583,-10.543303 1.63355,-1.369744 5.08867,-4.132084 5.8466,-4.674293 l 0.30822,-0.220519 -0.38468,-0.317246 c -0.21157,-0.174487 -1.0631,-0.791588 -1.89232,-1.371339 -5.25837,-3.676363 -10.44008,-6.096737 -16.07418,-7.508191 -9.74874,-2.442249 -20.91677,-1.884192 -29.92569,1.495361 -10.3683,3.889513 -19.14686,11.044908 -28.88966,23.547908 -0.55037,0.706277 -1.12738,1.354589 -1.28226,1.440696 -0.15487,0.0861 -0.56146,0.158599 -0.90351,0.161095 -0.53718,0.004 -0.68023,-0.05381 -1.05028,-0.423861 -0.92751,-0.92751 -0.79159,-1.530358 0.80409,-3.566425 8.47726,-10.816671 16.03379,-17.516156 24.71801,-21.914597 6.00829,-3.043097 11.86767,-4.707711 18.97737,-5.391349 2.10894,-0.202788 8.08889,-0.203385 10.19392,-0.0012 10.13213,0.974044 18.77584,4.369966 27.12837,10.65814 0.74895,0.563843 1.4112,1.025166 1.47166,1.025166 0.0605,0 1.10811,-0.655969 2.32809,-1.457714 8.20563,-5.392524 15.59967,-8.361652 23.05477,-9.257783 2.28574,-0.274755 8.47506,-0.385822 10.70683,-0.192138 14.05282,1.219596 26.10905,8.454635 39.54323,23.730176 4.20143,4.77733 6.94425,8.265462 15.82987,20.13139 7.90073,10.550647 9.52895,12.681445 12.78672,16.733413 4.7703,5.93321 7.72157,9.23537 12.53355,14.02373 3.62477,3.60701 3.65583,3.64245 3.70635,4.23144 0.0647,0.75336 -0.28237,1.34799 -0.95616,1.63832 -0.26494,0.11417 -1.78001,0.82968 -3.3668,1.59001 -3.26381,1.56392 -6.40337,2.99523 -9.03989,4.12121 -0.98733,0.42167 -1.83691,0.80659 -1.88796,0.85538 -0.051,0.0488 2.28586,1.00515 5.19313,2.12525 2.90727,1.12009 5.56523,2.17537 5.90659,2.34506 1.22844,0.61069 2.1963,1.73323 2.66236,3.08786 0.2058,0.59818 0.24318,1.08555 0.24318,3.16969 0,1.35455 -0.0585,2.77363 -0.13002,3.1535 -0.19519,1.03702 -0.73033,2.01603 -1.55277,2.84074 -0.72704,0.72906 -0.73353,0.74208 -0.45701,0.91627 0.15431,0.0972 1.66537,0.9653 3.35795,1.92916 2.01454,1.14719 3.28533,1.95597 3.67942,2.34171 0.79769,0.78075 1.34296,1.83451 1.53807,2.97242 0.14722,0.85847 0.12902,1.10444 -0.25517,3.4497 -0.32958,2.01212 -0.49351,2.68895 -0.80658,3.33052 -0.46069,0.94416 -1.34608,1.87482 -2.24871,2.36373 -0.72255,0.39138 -5.79002,1.69076 -11.14239,2.85711 -1.83094,0.39897 -3.34676,0.74318 -3.36848,0.7649 -0.12073,0.12074 3.55629,4.49984 6.89492,8.21143 4.66192,5.18266 6.52772,7.55636 7.61767,9.69124 0.81523,1.59672 1.02448,2.46692 0.95187,3.95852 -0.0638,1.31106 -0.43957,2.24522 -1.26197,3.13744 -0.66397,0.72033 -1.10246,0.84919 -2.62446,0.77125 -3.63691,-0.18624 -8.47582,-1.06489 -33.85151,-6.14686 -18.43144,-3.69124 -24.11098,-4.80638 -31.92812,-6.26887 -33.76448,-6.31692 -53.29457,-8.60346 -61.93288,-7.25097 -1.95039,0.30537 -14.02121,4.53868 -20.19622,7.08293 -14.10844,5.81303 -27.19741,13.07264 -40.71085,22.57975 -7.90802,5.56353 -19.0818,14.45851 -21.18586,16.86519 -2.09599,2.39744 -3.94133,5.28772 -6.02394,9.43505 -1.92136,3.8262 -2.80914,5.38079 -4.72307,8.27054 -1.94611,2.93833 -3.33832,4.68071 -5.57084,6.97203 -3.87277,3.97475 -7.96013,6.61325 -12.6004,8.13389 -4.52325,1.4823 -7.53833,1.77192 -16.31665,1.56735 z M 5.4938021,187.12702 c 3.9889844,-0.49099 8.1216049,-1.271 32.5654279,-6.14657 19.826998,-3.95471 25.517261,-5.06481 35.197875,-6.86668 l 5.385467,-1.00242 -1.923381,-0.0115 c -1.05786,-0.006 -3.510171,-0.0684 -5.44958,-0.13796 -16.81171,-0.60272 -32.670376,-2.20134 -48.52687,-4.89171 l -3.840315,-0.65158 -0.327011,0.37885 c -0.179857,0.20837 -1.111867,1.32595 -2.071129,2.48351 -0.959267,1.15756 -3.098259,3.63833 -4.75332,5.51283 -3.5831391,4.05821 -5.2147394,5.99869 -6.1368684,7.29865 -1.2384331,1.74587 -2.0429874,3.50341 -1.8426953,4.02537 0.043492,0.11334 0.089052,0.20607 0.101246,0.20607 0.012181,0 0.7417078,-0.0886 1.6211538,-0.19682 z M 508.95823,186.74099 c -0.024,-1.37985 -1.65394,-3.76515 -5.97779,-8.74743 -4.41231,-5.08418 -6.25363,-7.25646 -7.95983,-9.39064 -0.98669,-1.23417 -1.83879,-2.29322 -1.89349,-2.35346 -0.0547,-0.0602 -1.56202,0.15488 -3.34953,0.47801 -15.22015,2.75147 -30.24929,4.51619 -45.43615,5.33509 -4.20267,0.22662 -8.63967,0.38538 -10.79542,0.38626 -2.05309,8.1e-4 -2.78642,0.14546 -1.60907,0.31729 3.65451,0.53335 19.54997,3.58646 42.40924,8.1457 26.00964,5.18758 28.83501,5.71583 33.85151,6.32906 0.71024,0.0868 0.76999,0.0476 0.76053,-0.49988 z M 95.119537,169.50334 c 2.009934,-0.0688 4.144887,-0.16602 4.744341,-0.21603 l 1.089912,-0.0909 -1.538701,-0.16525 C 72.7313,166.1654 43.293619,159.36888 18.720317,150.40049 l -2.860849,-1.04411 -4.639788,2.81945 c -4.8107091,2.92331 -5.0899159,3.13982 -5.0874716,3.9449 0.002,0.68803 0.7324035,4.13786 0.9444963,4.46155 0.4233483,0.64611 0.6897766,0.72548 6.6838053,1.99119 10.27193,2.16903 22.75951,4.07395 34.428527,5.25192 8.78875,0.8872 15.926249,1.35832 26.029758,1.71813 2.730032,0.0972 17.729391,0.0684 20.900742,-0.0402 z m 337.873953,-0.51622 c 20.29376,-0.53271 40.08699,-2.72206 59.81716,-6.61645 6.33625,-1.25066 16.10154,-3.51335 17.07978,-3.95751 0.65447,-0.29716 0.81912,-0.70145 1.21073,-2.97271 0.53454,-3.10056 0.95536,-2.57517 -4.64617,-5.8008 -2.49719,-1.43799 -4.60028,-2.61606 -4.67361,-2.61794 -0.0733,-0.002 -1.45813,0.49382 -3.07741,1.10153 -18.4768,6.93431 -40.52925,13.02299 -61.35081,16.93897 -7.34448,1.3813 -16.40564,2.80726 -22.21133,3.49541 -1.03815,0.12305 -1.86259,0.24873 -1.83202,0.27929 0.0861,0.0862 6.35393,0.23459 10.83613,0.2566 2.2215,0.0109 6.2029,-0.037 8.84755,-0.10639 z m 26.09387,-35.06461 c 11.33064,-1.19759 23.23228,-4.6006 36.98855,-10.57602 1.16116,-0.50439 2.12285,-0.92871 2.13711,-0.94295 0.0144,-0.0142 -3.30156,-0.0259 -7.36847,-0.0259 -7.79234,0 -9.41964,-0.0814 -14.38264,-0.71933 -14.35532,-1.84524 -26.83241,-6.6472 -38.18084,-14.69439 -6.8567,-4.8621 -13.50811,-11.092966 -21.11953,-19.784164 -1.9136,-2.185069 -7.95803,-9.413709 -9.63722,-11.525305 -0.0216,-0.02701 -0.60362,0.332264 -1.2936,0.798412 -3.40302,2.299093 -6.63626,5.588953 -10.35328,10.534555 -2.47226,3.28941 -3.79214,5.209514 -3.6908,5.369251 0.16352,0.257865 5.76605,7.727341 7.51393,10.017801 6.90634,9.05039 12.05054,14.71573 17.42927,19.19497 9.13603,7.60821 18.64879,11.51348 30.54546,12.53981 1.94767,0.16803 9.17429,0.0498 11.41206,-0.18677 z M 68.192201,132.77145 c 13.119307,-1.60351 23.276466,-6.77259 33.530949,-17.06422 4.59823,-4.6149 7.76566,-8.43888 15.80764,-19.084282 l 3.47316,-4.597522 -1.67605,-2.32665 c -5.02512,-6.975755 -8.69805,-10.888461 -12.58985,-13.411741 l -0.88007,-0.570603 -0.33638,0.38682 c -0.185,0.21275 -1.63465,1.937374 -3.22144,3.832505 -9.846553,11.759893 -16.534626,18.439628 -24.298715,24.268413 -14.012136,10.51943 -29.273389,15.84242 -48.276867,16.83855 -2.949188,0.15459 -10.99262,0.08 -13.720123,-0.12715 -0.740502,-0.0563 -1.362784,-0.0897 -1.382847,-0.0743 -0.04856,0.0372 3.986192,1.79027 6.666431,2.89651 12.201466,5.03601 24.400955,8.29385 34.017508,9.08428 0.916812,0.0754 1.897736,0.15902 2.179832,0.18591 1.391915,0.1327 9.074625,-0.037 10.706822,-0.23648 z M 488.38687,118.54471 c -6.77743,-2.54302 -12.84562,-6.65267 -19.23782,-13.02869 -2.75292,-2.74596 -4.59191,-4.78327 -9.53929,-10.567964 -6.3841,-7.464534 -9.44508,-10.758537 -12.57559,-13.532946 -6.91844,-6.131483 -13.59365,-9.201916 -21.47976,-9.880221 -4.16448,-0.358197 -10.26352,0.588964 -14.25778,2.214193 l -0.73197,0.297843 2.64477,3.200515 c 10.6272,12.860279 17.49925,19.834175 25.36187,25.73777 12.89615,9.68298 27.33753,14.8178 44.943,15.98005 0.88155,0.0582 2.6703,0.11188 3.97499,0.11928 l 2.37217,0.0135 z m 13.45068,-2.86682 c -6.33445,-6.45152 -10.73871,-11.87068 -23.4737,-28.882782 -9.10128,-12.158025 -11.51596,-15.229445 -16.07895,-20.451953 -2.37549,-2.718824 -7.6595,-8.021221 -9.8461,-9.880373 -8.41039,-7.150811 -16.03515,-10.900443 -24.89489,-12.242546 -3.47555,-0.526493 -10.63341,-0.461203 -14.08255,0.128458 -6.18408,1.057222 -12.54157,3.795773 -19.93693,8.587997 l -1.45023,0.939752 0.93733,0.840762 c 3.66163,3.284414 8.4315,8.382047 13.43001,14.352819 1.01746,1.215397 1.89469,2.209809 1.94938,2.209809 0.0547,0 0.72243,-0.255125 1.48389,-0.566949 4.04639,-1.657009 8.76866,-2.543122 13.63,-2.557624 2.61275,-0.0078 4.0066,0.133579 6.79595,0.689296 8.46191,1.685835 16.13092,6.487092 24.16215,15.12692 2.46418,2.650904 3.11776,3.393041 7.60493,8.635132 5.15987,6.027917 6.22743,7.20396 9.50944,10.475752 5.14981,5.13373 8.99862,8.04087 13.93782,10.52775 5.48364,2.76097 11.18426,4.15232 18.24656,4.45339 0.42206,0.018 0.35847,-0.0609 -1.92411,-2.38561 z M 31.840297,117.5691 c 23.018657,-1.68446 40.758054,-10.37605 57.660311,-28.251225 4.840826,-5.119472 13.323222,-15.001147 13.083082,-15.241294 -0.22874,-0.228738 -2.54684,-1.030082 -4.194405,-1.449961 -5.34877,-1.363124 -10.407279,-1.507273 -15.258824,-0.434812 -7.649447,1.690949 -14.382395,5.929392 -21.685144,13.65097 -2.204223,2.330637 -3.151897,3.393766 -7.42115,8.325291 -7.151841,8.261271 -10.553545,11.744581 -14.762083,15.116201 -4.42933,3.5485 -8.477394,5.89326 -13.576606,7.86395 l -1.795156,0.69378 3.07741,-0.0708 c 1.692575,-0.0389 3.88523,-0.12988 4.872565,-0.20213 z m -18.208012,-1.16844 c 6.946872,-0.59357 13.622748,-2.93101 19.554379,-6.84662 4.936747,-3.25887 9.536268,-7.58372 16.220514,-15.251855 1.41048,-1.618097 3.776239,-4.329756 5.257242,-6.025906 4.345503,-4.97678 8.293107,-8.88671 11.669086,-11.557717 7.155346,-5.661176 15.094415,-8.571973 23.336451,-8.556121 5.239383,0.01006 10.144582,0.986738 14.469043,2.8809 0.48244,0.211312 0.89006,0.365391 0.90583,0.342402 0.14784,-0.215479 3.97195,-4.704983 5.32942,-6.256731 3.61572,-4.133214 7.15774,-7.803145 10.13392,-10.499882 0.88155,-0.79878 1.61852,-1.494223 1.63773,-1.545429 0.0192,-0.05121 -0.75978,-0.615049 -1.73105,-1.252986 -8.09746,-5.318462 -14.79763,-8.088724 -21.691513,-8.968594 -2.140768,-0.273229 -9.617062,-0.319049 -11.489662,-0.07042 -9.351011,1.241562 -17.076007,4.91825 -25.837421,12.297233 -1.97619,1.66437 -7.724651,7.426564 -9.948204,9.971962 -4.614957,5.282944 -7.282899,8.680949 -16.913588,21.54187 -8.235859,10.99825 -10.719388,14.206104 -14.493775,18.720914 -3.228849,3.86226 -5.396683,6.2822 -8.130754,9.07634 l -2.2352532,2.28435 1.2094502,-0.0761 c 0.665197,-0.0419 1.901867,-0.13528 2.748155,-0.20759 z m 151.818895,-0.61338 c 4.43678,-0.79133 8.98687,-2.55888 12.53904,-4.87099 1.11824,-0.72786 1.23581,-0.8397 1.07751,-1.02498 -6.68792,-7.82755 -16.51679,-18.930099 -21.18447,-23.929668 -2.79777,-2.996708 -9.44092,-9.916997 -11.01158,-11.470969 l -1.22597,-1.21294 -0.56531,0.274651 c -0.84057,0.408382 -3.21169,1.879636 -4.35065,2.699529 -4.49778,3.237792 -8.86104,7.600033 -14.02346,14.020175 -0.70227,0.873359 -1.32003,1.659998 -1.37281,1.748085 -0.23072,0.385085 6.16206,8.693337 9.32339,12.116967 5.7357,6.2116 13.13813,10.41011 20.49356,11.62352 2.30985,0.38106 2.21099,0.37514 5.62052,0.33658 2.52909,-0.0286 3.44149,-0.089 4.68023,-0.30996 z m 191.30898,0.1792 c 5.10505,-0.67933 9.70486,-2.42316 14.17223,-5.37282 2.42767,-1.60291 4.06964,-2.9695 6.54924,-5.45093 2.93972,-2.94185 5.12256,-5.584766 8.91006,-10.788021 l 1.48765,-2.043769 -1.72511,-2.148845 C 380.05182,82.560704 375.24662,77.995194 369.78602,74.610368 l -1.08222,-0.670852 -3.73024,3.767119 c -5.82552,5.883154 -12.15024,12.667256 -18.10038,19.415066 -4.4949,5.097489 -11.8439,13.568529 -11.8439,13.652229 0,0.10207 2.20511,1.36652 3.55441,2.03816 3.05124,1.51884 6.81321,2.6655 10.29393,3.13764 1.81607,0.24633 6.08899,0.25541 7.88254,0.0168 z M 337.27607,102.95151 C 348.2742,90.298026 353.04318,85.081976 362.06745,75.836139 l 3.38058,-3.463585 -0.63736,-0.279331 c -1.77524,-0.778036 -5.00736,-1.658127 -7.47017,-2.034092 -1.86993,-0.285462 -6.13082,-0.392726 -7.82175,-0.196906 -6.10065,0.706486 -11.10592,3.061654 -17.08524,8.039184 -3.23504,2.693046 -5.23648,4.660441 -15.2843,15.02426 l -1.03318,1.065657 2.95019,2.909331 c 3.3567,3.310213 6.11106,5.893343 8.7299,8.187153 2.22523,1.94905 4.31343,3.64653 4.43179,3.6026 0.0487,-0.0181 2.32036,-2.60058 5.04816,-5.7389 z m -153.45945,3.50416 c 3.25042,-2.75473 6.79186,-6.04084 11.15115,-10.347178 l 2.07635,-2.051134 -2.71748,-2.825467 c -4.27945,-4.449502 -10.27132,-10.41224 -11.8856,-11.8278 -6.94276,-6.088139 -12.28429,-8.785905 -18.91006,-9.550618 -1.44023,-0.166224 -5.82383,-0.08119 -7.37615,0.14308 -2.2847,0.330088 -5.21518,1.041847 -6.84812,1.663284 l -0.37274,0.141849 2.29942,2.335638 c 8.76192,8.899946 15.18184,15.95415 28.00202,30.768606 1.44574,1.67063 2.67062,3.03951 2.72194,3.04194 0.0513,0.002 0.888,-0.66905 1.85927,-1.4922 z M 391.6408,87.035787 c 4.69709,-6.520795 8.18126,-10.238863 12.28139,-13.105767 l 1.38219,-0.966479 -2.25909,-2.669064 C 398.4216,64.831661 393.68303,59.80991 390.50877,57.008737 l -1.26026,-1.112143 -1.0478,0.790642 c -4.59472,3.467099 -10.30283,8.390161 -15.89727,13.710843 l -1.12934,1.074092 1.96281,1.304854 c 4.5746,3.041118 8.7378,6.955615 13.68141,12.864054 1.03261,1.23417 2.13543,2.575728 2.45071,2.981241 0.31527,0.405513 0.60286,0.73512 0.63904,0.732455 0.0361,-0.0028 0.81592,-1.046211 1.73273,-2.318988 z m -265.65219,-1.20237 c 5.38603,-6.465141 10.54,-11.168093 15.41356,-14.064729 0.60316,-0.358494 1.23038,-0.734423 1.39381,-0.8354 0.2937,-0.181463 0.27806,-0.201819 -1.34637,-1.752517 -5.2994,-5.058877 -9.84954,-9.031882 -14.39231,-12.566804 l -1.94382,-1.512571 -0.60057,0.491861 c -2.22174,1.819615 -7.01408,6.617834 -10.35468,10.367393 -2.06532,2.318159 -5.99715,6.921524 -6.05466,7.088758 -0.017,0.04933 0.32759,0.320499 0.76567,0.602595 3.91492,2.52098 8.35727,7.248603 13.11352,13.955633 l 1.15403,1.627353 0.4645,-0.546757 c 0.25548,-0.300717 1.32977,-1.585383 2.38732,-2.854815 z M 255.20896,230.17132 c -2.02961,-0.96099 -7.71602,-5.25049 -8.91265,-6.72318 -0.93237,-1.14748 -1.33018,-2.02406 -1.38872,-3.06006 -0.0595,-1.05293 0.12927,-1.65872 0.72094,-2.31363 0.57394,-0.63528 0.70756,-0.70402 1.98897,-1.02331 1.06785,-0.26608 2.4792,-0.88854 3.87293,-1.70813 0.94558,-0.55606 2.3635,-1.01928 3.9454,-1.28892 1.09817,-0.18719 1.2968,-0.18697 2.38977,0.003 1.58423,0.27487 2.98279,0.73344 3.92286,1.28626 1.72276,1.01307 2.98732,1.52595 4.71552,1.91249 0.46864,0.10482 1.3308,0.89386 1.64093,1.50176 0.3348,0.65627 0.33074,1.93082 -0.009,2.83 -0.3729,0.98692 -1.40139,2.27564 -2.67108,3.34692 -2.56877,2.16736 -5.43767,4.21671 -7.12618,5.09048 -1.25406,0.64895 -1.95824,0.68237 -3.08967,0.14666 z m 2.86329,-2.12984 c 1.98846,-1.17502 5.83621,-4.08955 7.04684,-5.33773 1.29161,-1.33168 1.7569,-2.63083 1.19644,-3.34066 -0.20697,-0.26214 -0.5246,-0.40141 -1.42012,-0.62269 -1.07543,-0.26573 -2.48887,-0.89778 -4.26113,-1.90544 -0.9013,-0.51246 -2.98508,-1.06545 -4.01484,-1.06545 -1.02975,0 -3.11353,0.55299 -4.01483,1.06545 -1.77226,1.00766 -3.1857,1.63971 -4.26113,1.90544 -0.87574,0.21639 -1.21469,0.36278 -1.40751,0.60792 -0.55536,0.70602 -0.19061,1.83781 1.01276,3.14251 1.70747,1.85125 7.80631,6.24981 8.66571,6.24981 0.15104,0 0.80706,-0.31462 1.45781,-0.69916 z m -34.76932,-11.40095 c -1.01157,-0.28588 -1.63461,-0.80417 -2.09734,-1.74472 -0.61853,-1.25726 -0.84196,-2.29516 -0.90908,-4.22314 -0.095,-2.7296 0.18841,-4.25455 1.76587,-9.50049 0.99462,-3.30765 1.35807,-4.88874 1.60245,-6.97088 0.39362,-3.35383 1.23853,-5.50854 3.14932,-8.03149 3.26491,-4.31089 8.83138,-7.59988 16.48076,-9.73775 4.98898,-1.39435 8.31787,-1.86153 13.19631,-1.85199 5.32288,0.0104 9.69898,0.72963 15.1306,2.48675 10.36546,3.35321 16.73505,9.4423 17.43612,16.66828 0.22568,2.32617 0.55587,3.78098 1.80591,7.95694 1.75131,5.85049 2.0505,8.39092 1.33902,11.36976 -0.48262,2.02068 -1.01894,2.83122 -2.24482,3.3926 -0.53734,0.24608 -0.84869,0.29237 -1.92338,0.28596 -1.52043,-0.009 -2.69828,-0.27834 -6.66772,-1.52433 -3.07471,-0.96514 -4.21847,-1.27218 -6.02329,-1.61696 -1.84076,-0.35164 -2.9621,-0.92009 -4.09693,-2.07687 -2.20354,-2.24618 -2.7755,-5.52821 -1.40301,-8.05081 0.51421,-0.9451 1.66041,-2.04418 2.69588,-2.58506 2.40874,-1.2582 8.92961,-2.85015 12.97832,-3.16842 0.87255,-0.0686 1.61092,-0.14916 1.64082,-0.17906 0.1906,-0.1906 -1.13324,-6.54527 -1.55944,-7.48557 -1.9605,-4.32529 -8.08085,-8.59204 -15.9532,-11.12161 -4.88776,-1.57055 -10.79558,-2.33376 -15.56247,-2.01046 -6.23729,0.42304 -11.55951,1.79773 -16.698,4.31298 -5.16901,2.53019 -8.69685,5.57763 -10.18566,8.79863 -0.49542,1.07183 -1.83108,7.54554 -1.5578,7.55037 0.67131,0.0119 3.52927,0.32402 4.75518,0.51941 2.55542,0.40728 7.3695,1.681 9.03989,2.39179 3.89424,1.65709 5.30298,5.4951 3.40039,9.2641 -0.70313,1.39291 -2.0191,2.65982 -3.40687,3.27989 -0.35618,0.15914 -1.42252,0.4456 -2.36964,0.63657 -1.80235,0.36341 -2.83255,0.64931 -6.52945,1.81204 -1.23082,0.38712 -2.70221,0.8151 -3.26975,0.95108 -1.39984,0.33539 -3.16856,0.42585 -3.95899,0.20246 z m 15.1085,-5.96044 c 0.88628,-0.42076 1.75038,-1.29183 2.15911,-2.17654 0.22229,-0.48115 0.277,-0.84009 0.27708,-1.81768 9e-5,-1.07411 -0.0423,-1.30441 -0.35819,-1.94775 -0.46311,-0.94305 -1.53538,-1.93287 -2.4078,-2.22264 -0.44152,-0.14665 -0.93043,-0.20095 -1.50812,-0.16748 -1.57694,0.0913 -2.79134,0.95941 -3.51971,2.51591 -1.07437,2.29587 0.077,5.11876 2.44213,5.98752 0.85298,0.31332 2.04177,0.24346 2.9155,-0.17134 z m -2.39234,-1.29824 c -1.1423,-0.34509 -1.80398,-1.18142 -1.88007,-2.3763 -0.0628,-0.98658 0.11246,-1.55786 0.64514,-2.1027 0.5155,-0.52726 0.97911,-0.76614 1.67096,-0.86097 1.61352,-0.22116 3.0406,1.04986 3.0406,2.7081 0,1.83527 -1.7438,3.15535 -3.47663,2.63187 z m 41.80138,1.21355 c 0.84147,-0.45798 1.48903,-1.1646 1.92355,-2.09899 0.27761,-0.59694 0.3356,-0.90816 0.3379,-1.81324 0.002,-0.97727 -0.0414,-1.18223 -0.4152,-1.94163 -0.48618,-0.98757 -1.18747,-1.67219 -2.17692,-2.12517 -0.60792,-0.27832 -0.83464,-0.31386 -1.68723,-0.26451 -1.63731,0.0948 -2.85195,0.95009 -3.58363,2.52346 -0.47866,1.02929 -0.48054,2.58783 -0.004,3.61156 0.81204,1.74579 2.15694,2.60054 3.96416,2.51939 0.76836,-0.0345 1.10508,-0.11877 1.64174,-0.41087 z m -2.84879,-1.27695 c -0.60328,-0.21504 -1.32973,-0.88243 -1.57,-1.44237 -0.23879,-0.55653 -0.22386,-1.75804 0.0285,-2.28979 0.11304,-0.2382 0.42631,-0.63257 0.69617,-0.87637 1.74657,-1.57792 4.48378,-0.33253 4.48378,2.04006 0,1.92622 -1.8253,3.21476 -3.63842,2.56847 z m -26.89432,-43.32152 c -2.61524,-0.97583 -4.19984,-4.43262 -4.97718,-10.85767 -0.4361,-3.60455 -0.55508,-5.69383 -0.5513,-9.68102 0.005,-5.41735 0.40092,-9.41113 1.38975,-14.02383 0.85828,-4.00369 1.47112,-5.74698 3.44099,-9.78828 0.71883,-1.47471 0.96962,-1.86063 1.55942,-2.39968 1.05729,-0.96629 2.03254,-1.14696 3.21632,-0.59579 0.85731,0.39916 1.34718,1.10346 1.41592,2.03573 0.0669,0.90775 -0.23529,1.46672 -1.02255,1.89124 -0.82784,0.44642 -1.28717,0.91284 -1.74263,1.76952 -1.52773,2.87352 -2.74159,8.04245 -3.28648,13.99458 -0.84271,9.20544 -0.7569,13.52096 0.37982,19.10227 0.83307,4.09039 1.73887,5.09866 2.76116,3.07351 1.06978,-2.11921 1.70603,-7.09809 1.61804,-12.66163 -0.033,-2.08386 -0.0789,-2.6409 -0.23048,-2.79244 -0.10597,-0.10598 -0.60904,-0.23818 -1.14287,-0.30034 -1.20033,-0.13977 -1.53249,-0.27175 -1.95868,-0.77826 -0.66438,-0.78956 -0.38321,-2.42524 0.52063,-3.02877 0.48718,-0.3253 1.21665,-0.42638 3.30544,-0.45804 1.7869,-0.0271 2.04691,0.0634 2.87099,0.99964 0.86726,0.98527 0.91647,1.29948 1.00181,6.39685 0.0837,5.0017 -0.0404,7.27775 -0.54678,10.02701 -0.56148,3.04829 -1.57438,5.3064 -3.01588,6.72342 -1.0629,1.04486 -1.94307,1.43017 -3.38755,1.48293 -0.75201,0.0274 -1.31562,-0.0181 -1.61791,-0.13095 z m 18.09488,-0.4191 c -1.85349,-0.80158 -2.76993,-3.74664 -1.81992,-5.84844 0.77495,-1.71447 1.97329,-2.3936 3.26857,-1.85239 0.40407,0.16883 1.24408,1.00197 1.24408,1.23391 0,0.0638 0.23991,0.39315 0.53312,0.73193 0.71675,0.82814 0.99936,1.49257 1.00277,2.3576 0.006,1.5174 -0.7202,2.82481 -1.85645,3.3423 -0.62678,0.28545 -1.75468,0.30214 -2.37217,0.0351 z m -47.12284,-0.25396 c -0.78677,-0.4092 -1.34637,-1.14413 -1.34637,-1.76823 0,-0.17363 0.43397,-1.5469 0.96438,-3.05173 1.36106,-3.86146 3.52884,-10.63776 3.44597,-10.77184 -0.0382,-0.0619 -0.43848,-0.27979 -0.88942,-0.48425 -0.94963,-0.43059 -1.34014,-0.93702 -1.34014,-1.73798 0,-1.17663 0.78479,-1.77064 2.31317,-1.75086 0.85815,0.0111 1.01532,-0.0232 1.2487,-0.27224 0.16024,-0.17103 0.9378,-2.24722 1.94482,-5.19294 3.23596,-9.46577 4.65013,-13.43858 5.20078,-14.61048 1.16005,-2.46886 2.64876,-3.22672 4.62297,-2.35343 1.0944,0.4841 1.58105,1.71391 1.86242,4.70656 0.275,2.92491 -0.006,7.27785 -0.98246,15.21631 l -0.32804,2.66709 0.2798,0.84082 c 0.36325,1.09156 0.2882,1.66918 -0.31799,2.44724 -0.25401,0.32603 -0.51983,0.79861 -0.59071,1.05018 -0.0709,0.25156 -0.50046,2.76998 -0.95462,5.59648 -0.45417,2.82649 -0.87917,5.2788 -0.94445,5.44958 -0.38199,0.99924 -1.95185,1.38981 -3.06525,0.7626 -0.63886,-0.35989 -1.05787,-1.10377 -1.05787,-1.87809 0,-0.44007 1.04605,-7.4144 1.40651,-9.37759 0.068,-0.37057 0.0925,-0.75499 0.0544,-0.85426 -0.049,-0.12781 -0.42104,-0.20687 -1.27428,-0.27084 -2.15225,-0.16136 -2.55328,0.0683 -2.97768,1.7049 -0.35571,1.37172 -4.32191,12.92231 -4.56419,13.29208 -0.46327,0.70703 -1.92073,1.05166 -2.71049,0.64092 z m 12.14949,-19.64124 c 0.27916,-0.31296 1.07003,-6.2016 1.35247,-10.0702 0.1221,-1.67247 0.18564,-3.04085 0.14119,-3.04085 -0.0445,0 -0.38495,0.82225 -0.75666,1.82722 -0.75021,2.02824 -3.71728,10.97349 -3.71795,11.20903 -8e-4,0.23463 0.23321,0.27824 1.55046,0.28907 1.01843,0.008 1.2648,-0.0285 1.43049,-0.21427 z m 55.21405,15.8659 c -0.63288,-0.33436 -1.21703,-1.04549 -1.9346,-2.35512 -1.81142,-3.30597 -3.62172,-8.30263 -5.17918,-14.29521 -0.32319,-1.24351 -0.6428,-2.34747 -0.71024,-2.45326 -0.0797,-0.12506 -0.0973,0.3459 -0.0502,1.34637 0.19017,4.03873 0.23476,8.60889 0.0883,9.05261 -0.23487,0.71168 -0.87881,1.24868 -1.70519,1.42202 -0.65835,0.13809 -0.75684,0.12613 -1.33365,-0.16198 -0.4546,-0.22706 -0.69802,-0.45613 -0.90138,-0.84822 -0.2593,-0.49996 -0.28439,-0.78397 -0.36257,-4.10321 -0.0808,-3.4296 -0.53281,-17.47884 -0.63044,-19.59424 -0.0572,-1.2385 0.10685,-2.86445 0.36959,-3.66412 0.21086,-0.64175 0.81583,-1.3079 1.38145,-1.52115 0.50028,-0.18861 1.42598,-0.17014 1.91915,0.0383 0.97354,0.41145 1.34241,1.11718 2.08706,3.99294 0.84052,3.24605 5.3785,19.42615 5.44839,19.42615 0.039,0 -0.0624,-1.08191 -0.22536,-2.40423 -0.69012,-5.59981 -1.34574,-13.25634 -1.83638,-21.4457 -0.35845,-5.98301 -0.37117,-7.00986 -0.0932,-7.52192 0.45555,-0.83912 1.23946,-1.17695 2.34601,-1.01101 0.75157,0.1127 1.37505,0.71339 1.57832,1.52062 0.20682,0.82135 0.44435,3.73163 1.04328,12.78245 0.48179,7.28068 0.88408,11.53395 1.88592,19.93905 0.15542,1.30386 0.21641,2.91813 0.22286,5.89837 0.009,4.07324 0.007,4.10743 -0.29409,4.68023 -0.58,1.10459 -1.17834,1.54246 -2.09488,1.53304 -0.30323,-0.003 -0.7618,-0.11687 -1.01903,-0.25278 z m 12.0721,-2.28062 c -0.82402,-0.45312 -0.93335,-0.81106 -1.04212,-3.41184 -0.17456,-4.17364 -0.66327,-11.93005 -0.77027,-12.22504 -0.0863,-0.23783 -0.20093,-0.28855 -0.65277,-0.28871 -1.14334,-4e-4 -2.02273,-0.82056 -2.02273,-1.88646 0,-0.96185 0.4677,-1.58285 1.43375,-1.90372 1.10139,-0.36582 1.05849,0.10064 0.69092,-7.51253 -0.57379,-11.88449 -0.64891,-14.30777 -0.48048,-15.49882 0.27399,-1.93741 0.95681,-2.81122 2.28267,-2.92117 1.64283,-0.13623 2.48125,0.86394 4.06326,4.84717 0.98121,2.47045 2.0908,6.55194 3.79099,13.94451 0.56767,2.46848 0.67683,2.80185 1.16036,3.54395 0.62754,0.96322 0.73938,1.48116 0.51859,2.40162 -0.0892,0.37185 -0.15772,0.83362 -0.15227,1.02614 0.006,0.19251 0.48085,2.76338 1.05634,5.71302 1.13347,5.80946 1.17991,6.32364 0.62462,6.91807 -0.48694,0.52125 -0.98738,0.72502 -1.60859,0.655 -0.72973,-0.0822 -1.13508,-0.36446 -1.47191,-1.02472 -0.24936,-0.4888 -2.15411,-9.44934 -2.16072,-10.16466 0,-0.14298 -0.0893,-0.38406 -0.19554,-0.53571 l -0.1931,-0.27573 -1.0571,0.38443 c -0.58138,0.21144 -1.2221,0.53906 -1.42382,0.72805 -0.36393,0.34096 -0.3662,0.35254 -0.29267,1.49765 0.26686,4.15639 0.73092,14.41001 0.66745,14.74823 -0.0422,0.22499 -0.26612,0.62817 -0.49759,0.89595 -0.3735,0.43206 -0.49953,0.49279 -1.11968,0.53949 -0.52294,0.0394 -0.81174,-0.009 -1.14759,-0.19417 z m 2.92614,-22.06222 c 1.49883,-0.58401 1.44979,-0.23991 0.59929,-4.2059 -0.60526,-2.82251 -2.20053,-9.09574 -2.4403,-9.59632 -0.19749,-0.4123 0.44086,13.40546 0.64716,14.00862 0.0749,0.21891 0.12423,0.21037 1.19385,-0.2064 z m -35.69174,18.9514 c -0.41553,-0.12087 -0.84459,-0.46878 -1.14373,-0.92742 -0.32831,-0.50337 -0.44808,-1.42029 -0.5838,-4.4696 -0.15457,-3.47246 -1.46207,-23.69681 -1.67384,-25.89089 -0.16709,-1.73113 -0.0624,-2.3212 0.53211,-2.99828 0.53895,-0.61383 1.12207,-0.7854 2.00092,-0.58872 0.83061,0.18588 1.50546,0.78904 1.69092,1.5113 0.068,0.26497 0.27138,2.32821 0.45186,4.58497 0.18047,2.25677 0.47066,5.77656 0.64486,7.82175 0.66349,7.78994 0.9715,13.17709 0.96697,16.9125 -0.002,1.98218 -0.0374,2.39625 -0.23954,2.83422 -0.51654,1.11919 -1.46641,1.5535 -2.64673,1.21017 z m -61.49896,-2.60403 c -1.47318,-0.60596 -2.03231,-1.33461 -2.02984,-2.64524 0.002,-1.19018 0.20452,-2.01896 1.66388,-6.81721 3.13527,-10.30849 3.57203,-11.61233 5.34057,-15.9428 0.95045,-2.32729 2.07553,-4.94832 2.50018,-5.82449 0.70719,-1.45915 0.87087,-1.69176 1.94739,-2.76741 1.44559,-1.44441 2.77487,-2.17584 4.2935,-2.36247 2.12388,-0.261 4.36917,0.51268 5.92811,2.0427 0.84324,0.8276 1.30658,1.57861 1.76155,2.85524 0.28965,0.81274 0.33094,1.13351 0.33393,2.59434 0.003,1.49494 -0.0332,1.77194 -0.35116,2.6847 -0.71109,2.0411 -2.08599,3.99909 -4.33015,6.16655 -2.14713,2.07375 -6.37128,5.5878 -8.21524,6.83423 -0.93903,0.63474 -1.82792,1.28887 -1.97531,1.45362 -0.1824,0.20388 -0.72774,1.91726 -1.70741,5.36446 -0.83333,2.93224 -1.57512,5.29775 -1.76168,5.6179 -0.17724,0.30414 -0.50523,0.66456 -0.72887,0.80092 -0.57846,0.35272 -1.73616,0.32885 -2.66945,-0.055 z m 11.32117,-22.69081 c 2.76457,-2.41695 3.96057,-4.25773 4.43102,-6.81985 0.16572,-0.90249 0.16857,-1.11291 0.0193,-1.42437 -0.28068,-0.58563 -0.57415,-0.53332 -1.31829,0.23497 -1.34511,1.38875 -2.50392,3.46596 -3.64226,6.52889 -0.7549,2.03122 -0.86608,2.42034 -0.69159,2.42034 0.0697,0 0.61049,-0.42299 1.20183,-0.93998 z m 19.01256,-9.30615 c -0.37447,-0.16259 -0.94736,-0.87506 -0.97117,-1.20783 -0.0753,-1.05148 0.14359,-1.41304 1.18719,-1.96143 1.2032,-0.63227 1.87675,-1.24768 2.22338,-2.03146 0.21529,-0.48682 0.40055,-0.70853 0.69339,-0.82983 0.58608,-0.24276 1.26418,-0.0709 1.78841,0.45337 0.42011,0.42011 0.43852,0.47665 0.38701,1.18878 -0.045,0.62177 -0.16026,0.91831 -0.68452,1.76069 -0.78422,1.2601 -1.49801,2.04562 -2.17118,2.38937 -0.57,0.29108 -2.00895,0.43091 -2.45251,0.23834 z m 4.97287,-12.32509 c -0.42384,-0.39487 -0.45116,-0.72102 -0.22722,-2.7123 0.11358,-1.00988 0.31995,-3.01904 0.45861,-4.46478 0.23556,-2.456196 0.23799,-2.63913 0.0371,-2.788901 -0.11825,-0.08816 -0.322,-0.160282 -0.45277,-0.160282 -0.38059,0 -0.86724,-0.57709 -0.86724,-1.028404 0,-0.759286 0.39385,-1.207334 1.17046,-1.33152 0.27786,-0.04443 0.50419,-0.166513 0.55625,-0.300028 0.0483,-0.123814 0.39826,-3.023639 0.77773,-6.444052 0.72464,-6.531618 0.84782,-7.349841 1.21625,-8.078201 0.36805,-0.727635 0.71203,-0.961691 1.41337,-0.961691 0.85022,0 1.25869,0.40805 1.70485,1.703082 0.669,1.941886 0.98956,4.164237 1.43442,9.944578 0.1543,2.004977 0.24941,2.648817 0.4491,3.040245 0.3074,0.602543 0.31804,0.98106 0.0466,1.659329 -0.18589,0.464584 -0.1916,0.883509 -0.0567,4.161975 0.13227,3.21494 0.12686,3.69012 -0.0459,4.02412 -0.24998,0.48339 -0.80717,0.68808 -1.4157,0.52005 -0.79369,-0.21914 -0.86278,-0.5082 -1.02065,-4.27046 -0.10625,-2.532083 -0.17953,-3.336749 -0.30775,-3.379272 -0.0926,-0.03069 -0.43159,-0.01635 -0.7534,0.03194 -0.8052,0.120748 -1.19403,0.52814 -1.19403,1.251059 0,0.304912 -0.20195,2.426433 -0.44879,4.714503 -0.24683,2.28807 -0.44878,4.2006 -0.44878,4.25006 0,0.0495 -0.14939,0.26746 -0.33196,0.48444 -0.27418,0.32584 -0.42622,0.39452 -0.8734,0.39452 -0.36666,0 -0.63153,-0.0839 -0.82052,-0.26 z m 4.2332,-13.402586 c 0.26195,-0.0464 0.53207,-0.151591 0.60027,-0.233763 0.13816,-0.166477 -0.14224,-4.791155 -0.4208,-6.940285 -0.22631,-1.746005 -0.31976,-1.27904 -0.84681,4.231439 -0.31575,3.301279 -0.31439,3.17545 -0.0333,3.092889 0.12341,-0.03626 0.43871,-0.103879 0.70067,-0.15028 z m 22.40209,13.287766 c -0.43665,-0.43666 -0.42977,-0.34894 -0.1854,-2.36111 0.2004,-1.65005 0.70817,-6.851252 0.70817,-7.253872 0,-0.174651 -0.15249,-0.276189 -0.57433,-0.382404 -1.36982,-0.344927 -1.20737,-2.121381 0.21721,-2.375348 0.26199,-0.04671 0.51639,-0.149707 0.56532,-0.228886 0.0489,-0.07918 0.42269,-3.120698 0.83056,-6.758926 0.40786,-3.638228 0.83651,-6.927386 0.95255,-7.309237 0.36562,-1.203119 1.14434,-1.726479 2.12965,-1.431272 0.61914,0.185498 0.8909,0.590947 1.33874,1.997323 0.56499,1.774239 1.02601,5.331448 1.40883,10.870385 0.0573,0.828461 0.16833,1.41373 0.32759,1.726099 0.28989,0.568615 0.30654,1.12769 0.0517,1.737546 -0.16344,0.391168 -0.16968,0.941363 -0.0458,4.037132 0.0789,1.97133 0.10543,3.73569 0.059,3.92081 -0.24933,0.99341 -1.88733,0.99229 -2.2675,-0.002 -0.0583,-0.15249 -0.17128,-1.73928 -0.25099,-3.5262 -0.0797,-1.786923 -0.1654,-3.314805 -0.19042,-3.395295 -0.061,-0.196221 -1.5589,0.111464 -1.82161,0.374174 -0.12667,0.126667 -0.22686,0.651145 -0.30253,1.583601 -0.25118,3.0953 -0.89538,8.42889 -1.04159,8.62378 -0.30446,0.40584 -0.54426,0.52806 -1.03608,0.52806 -0.37974,0 -0.58742,-0.0892 -0.87308,-0.37481 z m 4.38162,-13.302841 c 0.20176,-0.04035 0.43008,-0.149567 0.50738,-0.242703 0.1656,-0.199546 -0.0321,-3.63888 -0.37923,-6.595706 l -0.21825,-1.859269 -0.15097,1.154029 c -0.083,0.634716 -0.26535,2.308057 -0.40513,3.718537 -0.13978,1.410479 -0.28877,2.903472 -0.33109,3.317756 l -0.0769,0.753248 0.34369,-0.08626 c 0.18903,-0.04744 0.50877,-0.119278 0.71054,-0.159633 z m -10.39835,12.373631 c -2.5314,-0.35946 -3.29749,-1.52321 -3.40423,-5.17136 -0.0745,-2.54703 -0.38154,-20.065976 -0.36721,-20.953324 0.01,-0.616224 0.0585,-0.73595 0.43434,-1.07178 0.35124,-0.313844 0.49908,-0.365743 0.87021,-0.305513 0.55004,0.08926 0.88,0.374298 1.04232,0.900426 0.0681,0.220676 0.16004,2.99779 0.20434,6.171369 0.12427,8.900567 0.31811,16.353462 0.4417,16.982272 0.15838,0.80582 0.35722,0.90517 1.81155,0.90517 1.04264,0 1.29199,0.0405 1.56362,0.25421 0.71055,0.55891 0.50629,1.89555 -0.34396,2.2508 -0.49547,0.20703 -1.00081,0.21549 -2.25268,0.0377 z M 219.93678,73.261885 c -0.81707,-0.302544 -1.29556,-0.886666 -1.51978,-1.855293 -0.10592,-0.457601 -1.55024,-7.381112 -3.2096,-15.385583 -1.65935,-8.004471 -3.53217,-16.948193 -4.16182,-19.874938 -1.25511,-5.834 -4.22557,-20.066588 -5.28337,-25.314562 -0.63861,-3.1683173 -0.66364,-3.36786 -0.53468,-4.2630096 0.19076,-1.3241478 0.67955,-2.2446299 1.75885,-3.3122467 1.0543,-1.0428781 1.9619,-1.6089191 3.51544,-2.1924513 1.94723,-0.731407 3.35237,-0.96060231 6.36775,-1.03865312 2.12658,-0.05504556 2.99642,-0.0250079611 4.13716,0.14287156 6.86028,1.00960446 10.69701,4.80660556 12.38459,12.25635016 1.05942,4.676749 0.71975,10.785392 -0.89837,16.156401 -1.44353,4.791495 -3.5056,9.326335 -7.6029,16.720089 -1.80162,3.251087 -2.31445,4.41803 -2.31445,5.266458 0,0.232004 0.51509,2.809002 1.14465,5.726663 1.97961,9.174412 2.61576,12.422057 2.62151,13.383034 0.0139,2.32845 -1.58425,3.625458 -4.59963,3.732878 -0.92324,0.0329 -1.42871,-0.0085 -1.80535,-0.148008 z m 1.18972,-35.963889 c 2.10566,-4.240507 3.58092,-8.89119 4.28924,-13.521638 0.37963,-2.481787 0.47514,-7.27523 0.1801,-9.039676 -0.39233,-2.34632 -1.12813,-4.155681 -2.46219,-6.0546793 -1.50135,-2.1371088 -3.16948,-3.0499696 -5.95221,-3.257258 -1.32124,-0.098421 -3.01354,0.1185404 -3.45234,0.4426021 -0.61628,0.4551401 -0.60256,0.6918642 0.29905,5.1587082 0.46128,2.285338 1.59534,7.703799 2.52013,12.041024 0.9248,4.337224 2.03442,9.645756 2.46583,11.796738 0.43141,2.150981 0.84664,3.953213 0.92274,4.00496 0.27196,0.184941 0.40517,0.0091 1.18965,-1.570781 z m 40.02874,33.232407 c -1.58617,-0.413963 -2.10199,-1.074593 -2.29718,-2.942088 -0.2077,-1.987205 -0.4048,-8.619961 -0.32469,-10.926179 0.0429,-1.23417 0.0904,-2.927799 0.10557,-3.763628 0.0276,-1.518417 0.0273,-1.519936 -0.32991,-1.827212 l -0.35752,-0.307529 h -4.48657 -4.48657 l -0.2937,0.2937 c -0.25405,0.254059 -0.30556,0.474711 -0.38158,1.634766 -0.0483,0.737589 -0.20749,2.293191 -0.35368,3.456893 -0.2012,1.601628 -0.28624,3.240377 -0.34988,6.743098 l -0.0841,4.627266 -0.37851,0.545996 c -0.77639,1.119941 -2.37676,1.69024 -4.02819,1.435456 -1.64793,-0.254247 -2.63222,-0.848251 -3.10784,-1.875533 -0.43278,-0.93476 -0.28321,-5.177278 0.4724,-13.399556 0.23415,-2.547959 0.26402,-3.838435 0.13206,-5.706031 -0.0959,-1.356789 -0.0845,-1.459289 0.29772,-2.692733 0.28265,-0.912032 0.60128,-2.652066 1.10357,-6.026594 1.94001,-13.033416 2.29827,-15.388015 2.82649,-18.576548 0.85198,-5.142925 1.62522,-8.155205 2.96651,-11.5564238 1.55249,-3.9367846 3.49504,-7.0245245 5.04499,-8.0191209 1.81522,-1.16482653 4.53015,-1.20124214 6.43269,-0.086282 0.77608,0.4548123 1.80169,1.5822078 2.25146,2.474893 1.33429,2.6482755 2.44586,8.7884857 3.09682,17.1066847 0.34335,4.387428 0.58089,8.475407 0.96859,16.669303 0.17852,3.773032 0.3598,7.033163 0.40285,7.244735 0.11861,0.583017 0.49543,1.256325 1.08313,1.935351 0.51189,0.591451 0.52812,0.637568 0.4763,1.353876 -0.0423,0.585561 -0.15007,0.884058 -0.51202,1.418902 -0.25211,0.372539 -0.53199,0.820835 -0.62195,0.996215 -0.1304,0.254199 -0.14633,2.0953 -0.0786,9.076764 0.083,8.54382 0.0789,8.769973 -0.16715,9.252197 -0.32224,0.631631 -1.14409,1.336081 -1.78158,1.527081 -0.70965,0.212613 -2.24887,0.17094 -3.23999,-0.08772 z M 258.1902,44.900732 c 0.21751,-0.288471 0.20804,-0.741351 -0.16171,-7.731875 -0.82729,-15.640543 -1.0498,-18.821992 -1.60504,-22.949332 -0.37366,-2.777627 -0.51827,-3.462539 -0.73089,-3.461693 -0.0544,2.16e-4 -0.3203,0.562805 -0.59087,1.250198 -0.36341,0.923243 -0.92553,3.17299 -2.15129,8.610104 -0.91264,4.048164 -1.88269,8.346921 -2.15567,9.552793 -0.42728,1.88745 -0.58116,3.045461 -1.10603,8.323103 -0.57203,5.751691 -0.59634,6.143988 -0.39338,6.347158 0.18953,0.189729 0.68029,0.225712 3.96256,0.290546 4.26643,0.08427 4.71028,0.06348 4.93232,-0.231002 z m 30.22915,20.648671 c -2.82394,-0.186259 -6.36385,-0.804698 -8.78344,-1.534501 -4.03407,-1.216767 -6.12899,-2.45867 -6.94609,-4.117751 -0.24715,-0.50183 -0.2979,-0.805388 -0.2943,-1.760423 0.004,-1.116655 0.031,-1.220105 0.82642,-3.194435 2.29059,-5.685203 5.94181,-12.086728 9.89117,-17.34175 0.76745,-1.021163 1.39536,-1.93779 1.39536,-2.036948 0,-0.284581 -0.61927,-0.532224 -1.73104,-0.692233 -2.64452,-0.380613 -4.06746,-0.777964 -5.0548,-1.411542 -1.72808,-1.108901 -1.25743,-2.979814 0.97313,-3.868408 0.68887,-0.27443 0.93982,-0.298204 3.18409,-0.301654 2.00148,-0.0032 2.7619,0.05164 4.26079,0.306575 2.02386,0.344225 2.31933,0.30645 2.67775,-0.342334 0.10715,-0.193965 0.97786,-1.737499 1.93489,-3.430074 2.16941,-3.836741 3.81511,-7.180443 4.07057,-8.270539 0.38275,-1.633295 0.13585,-5.027462 -0.43262,-5.947271 -0.16333,-0.264276 -0.52156,-0.566985 -0.87976,-0.743407 -0.54615,-0.268997 -0.77065,-0.296541 -2.33527,-0.286531 -1.17671,0.0075 -2.21885,0.09992 -3.25431,0.288507 -3.68662,0.671448 -6.43596,0.0449 -7.33523,-1.6716389 -0.5395,-1.0297983 0.18294,-2.2635792 1.74198,-2.9749497 1.94782,-0.8887664 4.91836,-1.3906727 8.20643,-1.3865655 5.61606,0.00701 9.96566,1.3871826 12.58047,3.9919095 1.46092,1.4552786 2.01321,2.7810366 2.31402,5.5548206 0.33079,3.049585 -0.44277,5.389767 -3.74089,11.31744 -0.7848,1.410479 -1.94206,3.413641 -2.57172,4.451465 -0.62964,1.037828 -1.14481,1.944594 -1.14481,2.015042 0,0.07044 0.12784,0.196498 0.28409,0.280117 0.3673,0.196577 2.66862,0.693335 4.40951,0.951837 1.66129,0.246674 2.53154,0.558422 3.23157,1.157607 0.96345,0.824674 0.99134,1.857217 0.0756,2.800066 -0.93204,0.959719 -2.49627,1.491655 -4.41051,1.499869 -1.38233,0.0059 -2.19431,-0.105017 -4.97865,-0.680284 l -1.96535,-0.406058 -0.46008,0.247772 c -1.16982,0.629987 -3.55598,4.083562 -6.39576,9.256784 -1.36129,2.479876 -3.97591,7.700846 -4.66952,9.324296 -0.59418,1.39072 -0.59502,1.745188 -0.005,2.050384 0.42672,0.220668 3.61654,1.015253 4.94641,1.232154 1.22014,0.199002 3.84297,0.198942 5.308,-1.24e-4 3.52318,-0.478726 6.55285,0.878925 6.55285,2.936462 0,1.386437 -1.47461,2.375484 -4.01699,2.694272 -0.94327,0.118276 -5.8814,0.146109 -7.45919,0.04204 z"
       id="path1"
       sodipodi:nodetypes="cssssssssssssssssssssssssssssssscsssssssscsscsssssssssscsscssssscssssscsssssssssssscssssssssssssccsssssssssscsssssssssssssssssssssssssssssssssscssssscssssscsscsscsssssscsssssssscssscssscscssscsssssscscsscssssssssssssssssssssssssssssssssssssssssssssccssscssscsssssssscssssssssscsscsscscssssscsssscssssscssssssscssssssssssscsscsssssssssssssssscsssscsssssssscssssssssssssssssssssscssssssssssssssssssssscsssscsscsssssssssssscsscsssssscscssssscssscsscssssscsssssscsscsscssscsssssscssssscsscsssssscssssssccsssssssssssssssssssssssssssssssssssssssssssssssssssssssssssssssssssssssssssssssssssssssssssssssssssssssssssssssssssssssssssssscssssssssssssssssscssssssssssssssssssssssssssscssssssssssssssscsssscscssssssssssssssssssssssssscssssssscssssssssssssssssssssssssssssssssssssssssssssssssssssssssssssssssssssssssssssssssssssssscssscssssssssssssssssssssssssssssssssssssssssssssssssscccsssscsssssssssssssssssssssssssssssssssssssssssssscsssssssssssssssssssssscssssssssss"
       inkscape:export-filename="PazALP.png"
       inkscape:export-xdpi="55.904148"
       inkscape:export-ydpi="55.904148" />
  </g>
</svg>
