<?xml version="1.0" encoding="UTF-8" standalone="no"?>
<!-- Created with Inkscape (http://www.inkscape.org/) -->

<svg
   version="1.1"
   id="svg1"
   width="89.965996"
   height="108.95893"
   viewBox="0 0 89.965995 108.95893"
   sodipodi:docname="StudioTEOTW.svg"
   inkscape:version="1.3.2 (091e20ef0f, 2023-11-25, custom)"
   xmlns:inkscape="http://www.inkscape.org/namespaces/inkscape"
   xmlns:sodipodi="http://sodipodi.sourceforge.net/DTD/sodipodi-0.dtd"
   xmlns="http://www.w3.org/2000/svg"
   xmlns:svg="http://www.w3.org/2000/svg">
  <defs
     id="defs1">
    <clipPath
       clipPathUnits="userSpaceOnUse"
       id="clipPath148">
      <path
         d="m 215.13782,45.149994 h 168 V 171.14999 h -168 z"
         transform="matrix(0.00595238,0,0,0.00793651,-1.2805821,-0.35833317)"
         clip-rule="evenodd"
         id="path148" />
    </clipPath>
    <clipPath
       clipPathUnits="userSpaceOnUse"
       id="clipPath149">
      <path
         d="m 77.100006,472.37738 h 54.000004 v 36 H 77.100006 Z"
         transform="matrix(0.01851852,0,0,0.02777778,-1.4277779,-13.121594)"
         clip-rule="evenodd"
         id="path149" />
    </clipPath>
  </defs>
  <sodipodi:namedview
     id="namedview1"
     pagecolor="#505050"
     bordercolor="#ffffff"
     borderopacity="1"
     inkscape:showpageshadow="0"
     inkscape:pageopacity="0"
     inkscape:pagecheckerboard="1"
     inkscape:deskcolor="#505050"
     inkscape:zoom="1.9357985"
     inkscape:cx="142.57682"
     inkscape:cy="151.87531"
     inkscape:window-width="1920"
     inkscape:window-height="1052"
     inkscape:window-x="0"
     inkscape:window-y="0"
     inkscape:window-maximized="1"
     inkscape:current-layer="g1">
    <inkscape:page
       x="0"
       y="0"
       inkscape:label="1"
       id="page1"
       width="89.965996"
       height="108.95893"
       margin="0"
       bleed="0" />
  </sodipodi:namedview>
  <g
     id="g1"
     inkscape:groupmode="layer"
     inkscape:label="1"
     transform="translate(-96.584076,-172.32951)">
    <path
       style="fill:#ffffff;fill-opacity:1;stroke-width:0.14957"
       d="m 103.46396,281.12837 c -0.088,-0.088 -0.16001,-1.54596 -0.16001,-3.23993 v -3.07995 h -1.55998 -1.55996 v -1.31998 -1.31999 h 4.55992 4.55992 v 1.31999 1.31998 h -1.55997 -1.55998 v 3.23994 3.23995 h -1.27997 c -0.70399,0 -1.35199,-0.072 -1.43997,-0.16001 z m 7.03987,-4.41245 v -4.57248 l 1.25998,0.0725 1.25998,0.0725 0.0717,1.50949 0.0717,1.50951 1.96826,-0.0695 1.96828,-0.0695 0.0714,-1.49998 0.0714,-1.49998 h 1.30853 1.30852 v 4.55993 4.55993 h -1.30946 -1.30948 l -0.0705,-1.73997 -0.0705,-1.73998 -1.42998,-0.0735 c -2.45097,-0.12592 -2.52995,-0.0673 -2.52995,1.87802 v 1.6754 h -1.31999 -1.31997 z m 10.79981,0.0125 v -4.55992 h 3.35995 3.35994 v 0.95998 0.95998 h -1.80591 c -1.72111,0 -1.81698,0.0292 -2.04169,0.62013 -0.12967,0.34107 -0.17461,0.71906 -0.0999,0.83999 0.0747,0.12091 0.93949,0.21985 1.92169,0.21985 h 1.7858 v 0.95999 0.95998 H 126.112 c -1.44686,0 -1.70741,0.067 -1.93845,0.49874 -0.50221,0.93838 -0.15161,1.15658 1.97867,1.23133 l 1.9913,0.0699 0.0248,0.89999 0.0248,0.89998 h -3.44472 -3.44473 z m 12.8912,4.41134 c -0.0943,-0.0943 -0.17141,-0.42341 -0.17141,-0.7314 0,-0.308 -0.108,-0.55999 -0.24,-0.55999 -0.13199,0 -0.23999,-0.16346 -0.23999,-0.36326 0,-0.19978 -0.0992,-0.55078 -0.22039,-0.77998 -0.45471,-0.85983 -1.20273,-2.66595 -1.35439,-3.27021 -0.0865,-0.34456 -0.25352,-0.62647 -0.3712,-0.62647 -0.1177,0 -0.21399,-0.1944 -0.21399,-0.43199 0,-0.23761 -0.0941,-0.5346 -0.20901,-0.66 -0.11494,-0.12539 -0.27901,-0.52498 -0.36456,-0.88797 l -0.15556,-0.65999 h 1.39216 1.39215 l 0.33275,1.13997 c 0.18301,0.627 0.41357,1.30197 0.51236,1.49998 0.0988,0.198 0.30973,0.71099 0.46875,1.13997 0.26557,0.71643 0.9509,1.10372 0.9509,0.53738 0,-0.13343 0.22676,-0.75442 0.5039,-1.37998 0.61247,-1.3824 0.85075,-1.96659 1.02676,-2.51733 0.0979,-0.30628 0.39043,-0.41999 1.08035,-0.41999 0.87803,0 0.98052,0.0734 1.42442,1.01997 0.26308,0.56099 0.62371,1.45198 0.8014,1.97998 0.42841,1.27298 0.8812,1.76664 1.19135,1.29889 0.12361,-0.18641 0.2893,-0.63591 0.36821,-0.9989 0.0789,-0.36299 0.23798,-0.65999 0.35348,-0.65999 0.1155,0 0.21,-0.21233 0.21,-0.47185 0,-0.25952 0.18201,-0.85351 0.40445,-1.31998 0.38897,-0.81568 0.45384,-0.84812 1.69614,-0.84812 1.22436,0 1.28381,0.0282 1.14045,0.53999 -0.25346,0.90485 -0.76074,2.11495 -1.89876,4.52941 -0.47426,1.0062 -0.86228,2.00519 -0.86228,2.21995 0,0.21479 -0.10801,0.39052 -0.24,0.39052 -0.132,0 -0.24,0.19439 -0.24,0.43198 0,0.5964 -0.46759,1.00799 -1.14512,1.00799 -0.54203,0 -1.25484,-0.48829 -1.25484,-0.8596 0,-0.20718 -1.31377,-2.94585 -1.6594,-3.45916 -0.20824,-0.30926 -0.29158,-0.29269 -0.60345,0.12 -0.19901,0.26335 -0.36527,0.66782 -0.36947,0.89881 -0.004,0.231 -0.11563,0.41999 -0.24763,0.41999 -0.13199,0 -0.24871,0.189 -0.25934,0.41999 -0.0106,0.231 -0.25386,0.852 -0.54049,1.37998 -0.43721,0.80538 -0.65773,0.97149 -1.36921,1.03141 -0.46644,0.0393 -0.9252,-0.006 -1.01949,-0.1 z m 14.82832,-0.0914 c -0.0816,-0.132 -0.35793,-0.23999 -0.61414,-0.23999 -0.2562,0 -0.46582,-0.108 -0.46582,-0.24 0,-0.13199 -0.11946,-0.24 -0.26546,-0.24 -0.38323,0 -1.24602,-1.16771 -1.5909,-2.15312 -1.33029,-3.80094 2.59818,-7.05091 6.90005,-5.70831 0.52591,0.16414 0.95619,0.38013 0.95619,0.47999 0,0.0999 0.11573,0.18157 0.25715,0.18157 0.36256,0 0.83748,0.51779 1.41022,1.53751 0.52512,0.93496 0.71463,3.74239 0.25261,3.74239 -0.132,0 -0.24001,0.16691 -0.24001,0.3709 0,0.41761 -1.0438,1.54907 -1.42906,1.54907 -0.138,0 -0.25091,0.10801 -0.25091,0.24 0,0.132 -0.20962,0.24 -0.46582,0.24 -0.25621,0 -0.53257,0.10799 -0.61416,0.23999 -0.0816,0.13201 -0.94556,0.24 -1.91996,0.24 -0.97441,0 -1.83838,-0.10799 -1.91998,-0.24 z m 3.31024,-2.45997 c 0.35528,-0.16498 0.6468,-0.43644 0.64783,-0.60324 0.002,-0.16679 0.13169,-0.51111 0.29035,-0.76517 0.22932,-0.36719 0.21703,-0.6003 -0.06,-1.13673 -0.51389,-0.99509 -0.95157,-1.25866 -2.10423,-1.26716 -1.27389,-0.009 -1.91555,0.31322 -2.22099,1.11656 -0.3304,0.86901 -0.0232,2.27023 0.52931,2.41473 0.24612,0.0643 0.44748,0.2124 0.44748,0.32901 0,0.31717 1.73056,0.25554 2.47024,-0.088 z m 4.72964,-1.85995 v -4.55992 h 2.87995 c 1.58398,0 2.87995,0.0816 2.87995,0.18141 0,0.0998 0.32399,0.32482 0.71999,0.5001 0.50622,0.22407 0.71998,0.48666 0.71998,0.88441 0,0.31114 0.10801,0.63245 0.24,0.71403 0.52879,0.32681 0.17651,1.52423 -0.76358,2.59538 -0.37916,0.43203 -0.37635,0.48911 0.0464,0.9429 0.39684,0.42596 1.67713,2.86888 1.67713,3.20015 0,0.069 -0.62099,0.093 -1.37998,0.0534 l -1.37998,-0.072 -0.76446,-1.43997 c -0.7817,-1.47247 -1.53516,-2.20448 -1.9837,-1.92725 -0.13849,0.0856 -0.25179,0.90522 -0.25179,1.82141 v 1.66581 h -1.31999 -1.31996 z m 4.70379,-1.08965 c 0.20339,-0.81037 -0.49579,-1.59901 -1.33133,-1.50167 -0.53546,0.0624 -0.6218,0.19967 -0.68631,1.09134 l -0.0738,1.01998 h 0.96921 c 0.83777,0 0.98996,-0.0827 1.12222,-0.60965 z m 4.47075,1.14964 0.0653,-4.49992 1.25998,-0.0725 1.25997,-0.0725 v 3.61247 3.61249 h 2.03997 2.03997 v 0.95998 0.95999 h -3.36525 -3.36523 z m 7.38517,-0.06 v -4.55992 h 2.56293 c 3.15067,0 3.96372,0.26036 5.41694,1.73471 l 1.13997,1.15654 v 1.79758 c 0,2.29273 -0.36858,3.01226 -2.0175,3.9384 -0.75918,0.42641 -1.29534,0.49261 -3.98968,0.49261 h -3.11266 z m 5.33838,2.33995 c 0.29257,-0.16498 0.66566,-0.46199 0.82909,-0.65999 0.38233,-0.46317 0.38567,-2.64397 0.005,-3.14305 -0.38302,-0.50192 -1.70257,-1.17687 -2.30079,-1.17687 -1.15621,0 -1.23153,0.16058 -1.23153,2.62563 0,1.28386 0.072,2.40629 0.15999,2.49429 0.27101,0.27099 1.97646,0.17692 2.53843,-0.14001 z m -82.377058,-14.5797 c 0,-0.26399 0.10799,-0.47998 0.239985,-0.47998 0.13201,0 0.24,-0.16347 0.24,-0.36326 0,-0.19978 0.09892,-0.55078 0.219822,-0.77997 0.120898,-0.22922 0.405111,-0.84874 0.631573,-1.37674 0.226466,-0.52798 0.613537,-1.38526 0.860163,-1.90504 0.246625,-0.51978 0.44841,-1.14077 0.44841,-1.37998 0,-0.2392 0.10799,-0.43491 0.239999,-0.43491 0.131992,0 0.239988,-0.216 0.239988,-0.47999 0,-0.26399 0.108002,-0.48 0.239994,-0.48 0.131994,0 0.240004,-0.2235 0.240004,-0.49667 0,-0.37782 0.12924,-0.47833 0.53999,-0.41999 0.5513,0.0783 0.89535,0.61944 1.87982,2.95663 0.278,0.65999 0.77657,1.79397 1.10794,2.51995 0.33136,0.726 0.71176,1.58999 0.84533,1.91997 0.13356,0.33 0.33823,0.78753 0.45484,1.01673 0.31383,0.61692 0.27833,0.66325 -0.508,0.66325 -0.46242,0 -0.71998,-0.12208 -0.71998,-0.34127 0,-0.1877 -0.243,-0.88954 -0.53999,-1.55965 l -0.54,-1.2184 h -1.70278 c -1.747708,0 -2.495794,0.36461 -2.498036,1.21856 0,0.18761 -0.214903,0.69209 -0.476471,1.12109 -0.54424,0.89263 -1.442601,1.07944 -1.442601,0.29999 z m 5.519908,-3.86726 c 0,-0.14701 -0.24072,-0.714 -0.53493,-1.25998 -0.29421,-0.54596 -0.54875,-1.02218 -0.56564,-1.05829 -0.0169,-0.0361 -0.20817,0.002 -0.42506,0.0857 -0.2169,0.0832 -0.39434,0.4034 -0.39434,0.71148 0,0.30808 -0.10801,0.62689 -0.240004,0.70846 -0.131992,0.0816 -0.239994,0.35795 -0.239994,0.61415 0,0.39901 0.172168,0.46584 1.199978,0.46584 0.72175,0 1.19999,-0.10654 1.19999,-0.26733 z m 5.7599,0.28402 v -4.09663 h -1.55998 c -1.39997,0 -1.55997,-0.0492 -1.55997,-0.47998 0,-0.45999 0.16,-0.48 3.83994,-0.48 3.65127,0 3.83993,0.0231 3.83993,0.46948 0,0.41631 -0.19702,0.47746 -1.73997,0.54 l -1.73998,0.0705 -0.0414,3.95994 c -0.0398,3.8089 -0.0604,3.96285 -0.53999,4.03662 -0.48831,0.0751 -0.49858,-0.008 -0.49858,-4.01993 z m 9.35985,-0.002 v -4.09587 h -1.55999 c -1.39997,0 -1.55997,-0.0493 -1.55997,-0.48 0,-0.45998 0.16,-0.47998 3.83994,-0.47998 3.67992,0 3.83993,0.02 3.83993,0.47998 0,0.43058 -0.16001,0.48 -1.55418,0.48 h -1.55416 l -0.0658,4.01993 -0.0658,4.01993 -0.65999,0.0759 -0.65997,0.0759 z m 5.0399,-0.49593 v -4.55992 h 0.59029 c 0.5737,0 0.59224,0.0556 0.65997,1.97996 l 0.0697,1.97996 h 2.51995 2.51996 l 0.0697,-1.97996 c 0.0677,-1.9244 0.0863,-1.97996 0.65998,-1.97996 h 0.59029 v 4.55992 4.55992 h -0.59029 c -0.57371,0 -0.59224,-0.0556 -0.65998,-1.97998 l -0.0697,-1.97996 h -2.51996 -2.51995 l -0.0697,1.97996 c -0.0677,1.9244 -0.0863,1.97998 -0.65997,1.97998 h -0.59029 z m 8.87985,0 v -4.55992 h 2.51996 c 2.35996,0 2.51995,0.0305 2.51995,0.47998 0,0.44023 -0.15999,0.48 -1.93141,0.48 h -1.93143 l 0.0714,1.49996 0.0715,1.49998 1.87557,0.0704 c 1.61754,0.0607 1.8648,0.12673 1.79736,0.48 -0.0643,0.33686 -0.41007,0.4221 -1.94675,0.47991 l -1.86855,0.0703 0.0712,1.48967 0.0712,1.48968 1.97997,0.0697 c 1.78263,0.0628 1.97996,0.11657 1.97996,0.53999 0,0.43855 -0.17815,0.47029 -2.63996,0.47029 h -2.63995 z m 8.15986,0 v -4.55992 h 2.51996 c 2.35995,0 2.51994,0.0305 2.51994,0.47998 0,0.43733 -0.15999,0.48 -1.79996,0.48 h -1.79997 v 1.55997 1.55996 h 1.79997 c 1.63997,0 1.79996,0.0427 1.79996,0.48001 0,0.43733 -0.15999,0.47998 -1.79996,0.47998 h -1.79997 v 1.55999 1.55996 h 2.03417 2.03416 l 0.0658,-4.01993 0.0658,-4.01994 2.49913,-0.0688 c 1.49991,-0.0413 2.59861,0.0307 2.74794,0.17999 0.13685,0.13685 0.41622,0.24896 0.62082,0.24912 0.52242,0 1.69198,1.05636 1.69198,1.5276 0,0.21563 0.10799,0.39207 0.23998,0.39207 0.13201,0 0.24,0.26362 0.24,0.58582 0,0.3222 0.10801,0.65258 0.24,0.73417 0.132,0.0816 0.24,0.45956 0.24,0.83998 0,0.3804 -0.108,0.75841 -0.24,0.83999 -0.13199,0.0816 -0.24,0.40288 -0.24,0.71402 0,0.74681 -1.56245,2.34333 -2.65699,2.71493 -0.56499,0.19183 -2.58898,0.29098 -5.93989,0.29098 h -5.08288 z m 10.72413,3.24171 c 1.99551,-0.99547 2.60121,-3.41171 1.34205,-5.35364 -0.36345,-0.56049 -0.84292,-1.00802 -1.07999,-1.00802 -0.23451,0 -0.42637,-0.108 -0.42637,-0.24 0,-0.13867 -0.75999,-0.23999 -1.79996,-0.23999 h -1.79999 v 3.59994 3.59993 h 1.52312 c 0.86976,0 1.83109,-0.15365 2.24114,-0.35822 z m 7.15557,1.07821 c -0.0816,-0.132 -0.35795,-0.24 -0.61416,-0.24 -0.2562,0 -0.46582,-0.10072 -0.46582,-0.22382 0,-0.12311 -0.22005,-0.29366 -0.489,-0.37902 -0.26895,-0.0854 -0.75493,-0.57649 -1.07998,-1.09138 -0.68641,-1.08733 -0.81207,-3.1826 -0.25539,-4.2576 0.41346,-0.79837 1.71626,-1.98829 2.61565,-2.38897 1.48747,-0.66267 4.40748,-0.14756 4.95418,0.87395 0.22716,0.42445 0.18501,0.43818 -0.65134,0.21224 -1.59999,-0.43223 -3.19529,-0.49433 -3.863,-0.15038 -0.8616,0.44382 -1.71113,1.30769 -1.71113,1.74001 0,0.1962 -0.10798,0.42349 -0.23998,0.50506 -0.33474,0.20688 -0.2998,1.64339 0.0595,2.44867 0.64422,1.44368 1.87959,2.23125 3.49994,2.23125 1.43798,0 2.03096,-0.53119 1.9173,-1.71752 -0.0681,-0.7108 -0.16595,-0.81103 -0.85687,-0.87765 -0.58559,-0.0564 -0.77997,-0.19103 -0.77997,-0.53997 0,-0.40809 0.1757,-0.46479 1.43996,-0.46479 h 1.43998 v 1.98153 1.98153 l -0.95621,0.29842 c -1.14539,0.35748 -3.75511,0.39596 -3.9637,0.0584 z m 6.22647,-0.0683 c -0.0651,-0.16964 -0.0887,-2.1946 -0.0525,-4.49993 l 0.0659,-4.1915 2.26196,-0.0695 c 2.52841,-0.0778 2.95339,0.006 2.74822,0.54047 -0.10977,0.28606 -0.54076,0.36908 -1.91591,0.36908 h -1.77429 v 1.55997 1.55997 h 1.79997 c 1.63997,0 1.79996,0.0427 1.79996,0.48 0,0.43733 -0.15999,0.47998 -1.79996,0.47998 h -1.79997 v 1.55999 1.55996 h 2.03995 c 1.87998,0 2.03997,0.0376 2.03997,0.47999 0,0.45098 -0.15999,0.48 -2.64747,0.48 -1.93521,0 -2.67934,-0.083 -2.76585,-0.30843 z m 10.81324,0.0684 c -0.0816,-0.132 -0.35795,-0.24 -0.61417,-0.24 -0.25619,0 -0.46581,-0.10799 -0.46581,-0.23999 0,-0.13201 -0.11572,-0.24 -0.25714,-0.24 -0.33227,0 -0.94285,-0.61057 -0.94285,-0.94284 0,-0.14143 -0.0817,-0.25714 -0.18156,-0.25714 -0.23104,0 -0.77957,-1.7389 -0.7748,-2.45617 0.008,-1.26936 1.19789,-3.54372 1.8533,-3.54372 0.16669,0 0.30305,-0.108 0.30305,-0.24 0,-0.13199 0.20962,-0.24 0.46581,-0.24 0.25622,0 0.53258,-0.108 0.61417,-0.23999 0.20662,-0.33433 2.83471,-0.30087 3.64864,0.0464 1.17209,0.50015 2.64661,2.22064 2.82914,3.3011 0.1861,1.1014 -0.0486,2.89235 -0.37898,2.89235 -0.1204,0 -0.21891,0.14463 -0.21891,0.32143 0,0.4763 -1.4351,1.67482 -2.41699,2.01853 -1.02542,0.35894 -3.25428,0.39755 -3.4629,0.06 z m 3.30319,-1.01998 c 0.78484,-0.43867 1.41731,-1.24983 1.77472,-2.27614 0.37756,-1.08411 0.4094,-1.90143 0.082,-2.10379 -0.132,-0.0816 -0.24001,-0.30886 -0.24001,-0.50506 0,-0.39207 -0.81144,-1.2458 -1.62998,-1.71489 -0.62248,-0.35676 -2.92993,-0.40401 -2.92993,-0.06 0,0.132 -0.16972,0.24 -0.37714,0.24 -0.42618,0 -0.7621,0.30778 -1.36595,1.25154 -0.4555,0.7119 -0.59432,3.30838 -0.17688,3.30838 0.13199,0 0.24,0.14526 0.24,0.3228 0,0.36033 0.68394,1.04005 1.50162,1.49233 0.714,0.39493 2.45056,0.41987 3.12155,0.0449 z m 4.25667,-3.28325 v -4.57661 h 2.41756 c 2.17285,0 2.40948,0.0425 2.33776,0.41999 -0.0642,0.33787 -0.40786,0.44344 -1.75757,0.53999 l -1.67777,0.11999 -0.0756,1.0562 c -0.0937,1.31017 0.11239,1.45535 2.07313,1.46009 1.31463,0.003 1.5069,0.0598 1.43777,0.42366 -0.0642,0.33787 -0.40786,0.44347 -1.75757,0.54 l -1.67777,0.12 -0.12,2.15996 c -0.11194,2.01486 -0.15627,2.16511 -0.65999,2.23665 l -0.53999,0.0767 z M 97.064057,217.8084 v -28.67953 h 44.399253 44.39924 v 28.67953 28.67951 H 141.46331 97.064057 Z m 87.118523,0.35998 V 191.28919 H 141.46537 98.748155 l -0.06206,26.77957 c -0.03412,14.72877 -0.01706,26.82456 0.0379,26.87954 0.05502,0.055 19.305665,0.1 42.779265,0.1 h 42.67928 z m -7.19988,16.55973 c -0.32999,-0.25813 -0.735,-0.47173 -0.89998,-0.47466 -0.165,-0.003 -0.3,-0.11335 -0.3,-0.24534 0,-0.132 -0.16199,-0.23999 -0.36,-0.23999 -0.198,0 -0.35998,-0.108 -0.35998,-0.24 0,-0.13199 -0.15301,-0.23999 -0.34,-0.23999 -0.18699,0 -0.376,-0.081 -0.41999,-0.18 -0.044,-0.099 -0.566,-0.50399 -1.15998,-0.89999 -0.594,-0.39598 -1.28935,-0.90898 -1.54524,-1.13997 -0.43836,-0.39574 -2.38323,-0.42 -33.66105,-0.42 h -33.19581 l 0.0616,-16.73972 0.0616,-16.7397 0.71998,0.0827 c 0.39599,0.0455 0.75599,0.18048 0.79999,0.29999 0.044,0.11949 0.287,0.21726 0.54,0.21726 0.25299,0 0.45998,0.10801 0.45998,0.24 0,0.132 0.216,0.24 0.48,0.24 0.26399,0 0.47999,0.0933 0.47999,0.20738 0,0.11407 0.48599,0.39299 1.07998,0.61985 0.59398,0.22685 1.07998,0.51151 1.07998,0.63259 0,0.12107 0.21599,0.22015 0.47998,0.22015 0.26401,0 0.48001,0.10799 0.48001,0.24 0,0.13199 0.21599,0.23998 0.47998,0.23998 0.26399,0 0.48,0.10801 0.48,0.24 0,0.132 0.15871,0.24 0.35269,0.24 0.19399,0 0.73726,0.216 1.20728,0.47999 0.47003,0.264 1.01329,0.48 1.20728,0.48 0.19398,0 0.35269,0.0917 0.35269,0.20382 0,0.11212 0.48599,0.40425 1.07998,0.6492 0.59399,0.24496 1.07999,0.53122 1.07999,0.63615 0,0.10494 0.21599,0.1908 0.47998,0.1908 0.26401,0 0.48,0.108 0.48,0.23999 0,0.132 0.21599,0.23999 0.47999,0.23999 0.264,0 0.47999,0.108 0.47999,0.24 0,0.13199 0.216,0.24 0.47999,0.24 0.264,0 0.48,0.108 0.48,0.24 0,0.13199 0.15206,0.23998 0.33791,0.23998 0.33831,0 3.42067,1.56373 3.85001,1.95317 0.1254,0.11374 0.4224,0.2068 0.66,0.2068 0.23759,0 0.43198,0.10801 0.43198,0.24 0,0.132 0.216,0.24 0.48,0.24 0.26399,0 0.47999,0.10799 0.47999,0.23999 0,0.13201 0.216,0.24 0.48,0.24 0.26399,0 0.47998,0.108 0.47998,0.24 0,0.13199 0.15164,0.23999 0.33696,0.23999 0.34415,0 4.39781,2.0466 4.81095,2.42896 0.1254,0.11605 0.4134,0.211 0.64,0.211 0.2266,0 0.44798,0.088 0.49199,0.19556 0.044,0.10756 2.99595,1.63952 6.55988,3.40437 3.56395,1.76486 6.51589,3.29682 6.55989,3.40438 0.044,0.10755 0.2228,0.19556 0.39732,0.19556 0.38481,0 2.37055,1.00778 2.48264,1.25997 0.044,0.099 0.28699,0.18 0.53999,0.18 0.25299,0 0.45999,0.108 0.45999,0.24 0,0.132 0.15817,0.24 0.35148,0.24 0.19331,0 0.8683,0.28728 1.49996,0.63839 0.63168,0.35112 1.3105,0.71674 1.50851,0.8125 0.19798,0.0957 1.05014,0.51045 1.89367,0.92157 0.84353,0.41112 1.6805,0.74749 1.85998,0.74749 0.17945,0 0.32627,0.0816 0.32627,0.1814 0,0.0998 0.35099,0.32905 0.77999,0.50949 1.62635,0.68409 3.31412,1.53785 3.43876,1.7395 0.0712,0.11526 0.33013,0.20957 0.57534,0.20957 0.2452,0 0.49404,0.13499 0.55297,0.29999 0.0589,0.16499 0.19336,0.21955 0.29875,0.12122 0.21416,-0.19978 -0.97402,-1.30972 -1.62587,-1.51882 -0.23101,-0.0741 -0.42,-0.22817 -0.42,-0.34238 0,-0.1142 -0.20279,-0.272 -0.45065,-0.35068 -0.24785,-0.0787 -0.76084,-0.40981 -1.13997,-0.73586 -0.37915,-0.32606 -0.82434,-0.59296 -0.98933,-0.59313 -0.165,-1.5e-4 -0.29999,-0.10829 -0.29999,-0.2403 0,-0.13199 -0.162,-0.23998 -0.36001,-0.23998 -0.198,0 -0.35999,-0.0898 -0.35999,-0.19946 0,-0.10969 -0.29549,-0.35268 -0.65666,-0.53999 -0.58188,-0.30177 -1.22393,-0.77839 -2.07522,-1.54052 -0.14743,-0.132 -0.59206,-0.402 -0.98806,-0.59999 -0.39599,-0.198 -0.92934,-0.54899 -1.18524,-0.77999 -0.25588,-0.23099 -0.56058,-0.41999 -0.67711,-0.41999 -0.11655,0 -0.37768,-0.16578 -0.5803,-0.3684 -0.20263,-0.20263 -1.03189,-0.81612 -1.84282,-1.36334 -0.81094,-0.5472 -1.51042,-1.08341 -1.55442,-1.19155 -0.044,-0.10816 -0.19543,-0.19666 -0.33651,-0.19666 -0.14109,0 -0.72273,-0.35099 -1.29256,-0.77998 -1.02357,-0.7706 -1.27473,-1.36575 -0.81451,-1.93009 1.12313,-1.37729 1.4436,-1.83556 1.4436,-2.06449 0,-0.14595 0.10799,-0.26535 0.23998,-0.26535 0.13201,0 0.24,-0.162 0.24,-0.36 0,-0.198 0.108,-0.35998 0.24,-0.35998 0.13199,0 0.24012,-0.135 0.24028,-0.30001 0,-0.16499 0.28247,-0.62399 0.62733,-1.01997 0.34486,-0.396 0.78914,-0.963 0.98728,-1.25998 0.19815,-0.297 0.48286,-0.53827 0.63267,-0.53616 0.32703,0.005 1.83236,1.29762 1.83236,1.57391 0,0.107 0.59399,0.76075 1.31999,1.45278 0.72598,0.69202 1.31996,1.31818 1.31996,1.39145 0,0.0733 1.26899,1.41012 2.81996,2.97076 1.55098,1.56064 3.95394,4.06333 5.33992,5.56154 1.38597,1.49821 3.70792,3.93874 5.1599,5.4234 1.45198,1.48466 3.77393,3.91396 5.15992,5.39844 1.38598,1.48447 2.92494,3.12284 3.41993,3.6408 0.49501,0.51798 0.89999,1.04096 0.89999,1.16219 0,0.37787 -0.8122,0.23146 -1.43997,-0.25958 z m -11.7598,-7.91987 c 0,-0.13199 -0.108,-0.24 -0.24,-0.24 -0.132,0 -0.23999,0.10801 -0.23999,0.24 0,0.132 0.10799,0.24 0.23999,0.24 0.132,0 0.24,-0.108 0.24,-0.24 z m -61.97217,-48.65917 -0.0668,-3.29994 -1.73997,-0.0705 -1.739978,-0.0705 v -1.18946 -1.18947 h 4.559918 c 3.88358,0 4.56317,0.0534 4.58175,0.36 0.012,0.198 0.0321,0.71099 0.0447,1.13998 l 0.0229,0.77999 -1.54473,0.12 -1.54472,0.12 -0.0668,3.29994 -0.0668,3.29995 h -1.18643 -1.18644 z m 6.69312,3.13995 c -0.088,-0.088 -0.16002,-2.13997 -0.16002,-4.55993 v -4.39993 h 1.31999 1.31998 v 1.43999 1.43996 h 2.15995 2.15997 v -1.43996 -1.43999 h 1.32528 1.32527 l -0.0653,4.49993 -0.0653,4.49993 -1.25997,0.0725 -1.25998,0.0725 v -1.81252 -1.8125 h -2.15997 -2.15995 v 1.79997 1.79997 h -1.15999 c -0.63799,0 -1.23197,-0.072 -1.31996,-0.16 z m 11.11979,-4.39993 v -4.55993 h 3.35995 3.35994 v 0.95998 0.95999 h -2.03997 -2.03995 v 0.72 0.71998 h 1.79997 1.79997 v 1.07998 1.07999 h -1.79997 -1.79997 v 0.71999 0.71998 h 2.03995 2.03997 v 1.07998 1.07999 h -3.35994 -3.35995 z m 10.79983,4.20117 c -0.75376,-0.27055 -0.84757,-0.40311 -0.91379,-1.29134 -0.0683,-0.91539 -0.0287,-0.98986 0.52583,-0.98986 0.32979,0 0.66637,0.10799 0.74795,0.23999 0.0816,0.13199 0.63546,0.24 1.23083,0.24 0.97497,0 1.0749,-0.0519 1.00583,-0.52187 -0.0728,-0.49558 -1.18278,-1.34294 -1.80839,-1.38055 -0.16044,-0.01 -0.61944,-0.3379 -1.01999,-0.72944 -0.6137,-0.59993 -0.72706,-0.8925 -0.72063,-1.85998 0.0123,-1.85541 0.7849,-2.46805 3.11232,-2.46805 2.13927,0 3.11939,0.63733 2.93301,1.90719 -0.0806,0.5495 -0.19241,0.63957 -0.67834,0.54668 -0.31999,-0.0612 -0.64056,-0.20632 -0.71241,-0.32256 -0.0718,-0.11623 -0.56374,-0.21134 -1.09312,-0.21134 -0.85227,0 -0.95374,0.0599 -0.88584,0.52282 0.049,0.33435 0.48122,0.74531 1.19881,1.13998 2.07686,1.14229 2.43784,1.55159 2.43784,2.7643 0,0.73004 -0.14936,1.25165 -0.45513,1.58952 -1.00699,1.11271 -3.11467,1.46702 -4.90478,0.82451 z m 9.35984,-3.00119 v -3.35994 h -1.79997 -1.79997 v -1.19998 -1.19999 h 4.67992 4.67993 v 1.18902 1.18902 l -1.61998,0.071 -1.61998,0.071 -0.0668,3.29994 -0.0668,3.29995 h -1.1932 -1.19321 z m 9.15475,3.01109 c -0.4428,-0.16037 -1.17179,-0.68028 -1.61998,-1.15532 l -0.81488,-0.86375 v -3.37596 -3.37597 h 1.19996 1.19999 v 2.24416 c 0,2.38962 0.31408,3.75575 0.86347,3.75575 0.18507,0 0.33652,0.108 0.33652,0.24 0,0.50783 1.69172,0.25004 2.29086,-0.34909 0.55434,-0.55433 0.58909,-0.74545 0.58909,-3.23995 v -2.65087 h 1.31997 1.31998 v 3.09252 c 0,3.27281 -0.15799,3.90499 -1.22631,4.90678 -1.10226,1.03361 -3.71549,1.40305 -5.45867,0.7717 z m 8.28494,0.18886 c -0.088,-0.088 -0.15999,-2.13997 -0.15999,-4.55993 v -4.39993 h 2.80292 c 2.61834,0 4.39697,0.31075 4.39697,0.76821 0,0.10547 0.1157,0.19177 0.25712,0.19177 0.83486,0 1.90283,2.0938 1.90283,3.7305 0,1.82239 -1.02423,3.42895 -2.60789,4.09065 -0.83827,0.35026 -6.27307,0.4976 -6.59196,0.17873 z m 5.41226,-2.29636 c 0.8635,-0.4075 1.29961,-1.75586 0.93009,-2.87555 -0.4252,-1.28837 -1.25187,-1.86798 -2.66423,-1.86798 h -1.19814 v 2.51996 2.51996 h 1.15211 c 0.63369,0 1.43476,-0.13337 1.78017,-0.29639 z m 4.74757,-2.09103 v -4.57247 h 1.32528 1.32528 l -0.0653,4.49993 -0.0653,4.49993 -1.25999,0.0725 -1.25998,0.0725 z m 7.07989,4.30739 c -0.0816,-0.132 -0.34193,-0.24001 -0.57857,-0.24001 -1.04457,0 -2.90138,-2.63262 -2.90138,-4.11361 0,-0.76188 0.90189,-3.08625 1.19751,-3.08625 0.0836,0 0.38554,-0.21761 0.67102,-0.4836 0.2855,-0.26596 0.79889,-0.58996 1.14086,-0.71998 0.91676,-0.34854 3.60411,-0.2873 4.53931,0.10346 0.87635,0.36614 1.98798,1.37239 2.47113,2.23683 0.5771,1.03251 0.211,4.37413 -0.47998,4.38132 -0.099,0.002 -0.18001,0.16387 -0.18001,0.36187 0,0.19798 -0.0876,0.35998 -0.19474,0.35998 -0.10711,0 -0.40409,0.189 -0.65999,0.41999 -0.25589,0.231 -0.85091,0.555 -1.32226,0.71999 -1.02446,0.3586 -3.49364,0.39862 -3.7029,0.06 z m 3.03482,-2.6881 c 1.37303,-0.64797 1.37796,-2.85336 0.008,-3.49997 -0.71413,-0.33702 -2.44264,-0.3935 -2.44264,-0.0798 0,0.1166 -0.20136,0.26466 -0.44746,0.32902 -0.49864,0.1304 -0.86602,1.50028 -0.60254,2.2467 0.40745,1.15435 2.12051,1.64792 3.48484,1.00407 z"
       id="path150" />
  </g>
</svg>
