<?xml version="1.0" encoding="UTF-8" standalone="no"?>
<!-- Created with Inkscape (http://www.inkscape.org/) -->

<svg
   version="1.1"
   id="svg1"
   width="139.41908"
   height="74.091286"
   viewBox="0 0 139.41908 74.091286"
   sodipodi:docname="MUTANTE.svg"
   inkscape:version="1.3.2 (091e20ef0f, 2023-11-25, custom)"
   xmlns:inkscape="http://www.inkscape.org/namespaces/inkscape"
   xmlns:sodipodi="http://sodipodi.sourceforge.net/DTD/sodipodi-0.dtd"
   xmlns="http://www.w3.org/2000/svg"
   xmlns:svg="http://www.w3.org/2000/svg">
  <defs
     id="defs1" />
  <sodipodi:namedview
     id="namedview1"
     pagecolor="#505050"
     bordercolor="#ffffff"
     borderopacity="1"
     inkscape:showpageshadow="0"
     inkscape:pageopacity="0"
     inkscape:pagecheckerboard="1"
     inkscape:deskcolor="#505050"
     inkscape:zoom="7.4595241"
     inkscape:cx="63.408871"
     inkscape:cy="32.575805"
     inkscape:window-width="1920"
     inkscape:window-height="1052"
     inkscape:window-x="0"
     inkscape:window-y="0"
     inkscape:window-maximized="1"
     inkscape:current-layer="g1" />
  <g
     inkscape:groupmode="layer"
     inkscape:label="Image"
     id="g1">
    <path
       style="fill:#ffffff;fill-opacity:1"
       d="m 1.1950207,71.667301 c 0,-0.237756 0.4423065,-3.957258 0.9829033,-8.26556 0.5405968,-4.308302 1.0845301,-8.684729 1.2087406,-9.725393 L 3.612502,51.784232 H 2.2045912 c -1.6878137,0 -1.64362414,0.517542 -0.6462214,-7.568465 0.4188755,-3.39585 0.8845991,-7.415469 1.0349412,-8.932486 0.1503421,-1.517017 0.3645412,-2.995856 0.475998,-3.286307 0.1446089,-0.376845 1.1031397,-0.528095 3.3467527,-0.528095 h 3.144104 l 0.055107,3.684648 c 0.030309,2.026556 0.1647484,6.642323 0.2987551,10.257261 0.2263016,6.104665 0.2974976,6.572614 0.9999926,6.572614 0.777408,0 1.186855,-1.334055 4.95145,-16.13278 l 1.06399,-4.182572 2.939149,-0.199171 c 2.133268,-0.14456 2.99129,-0.06296 3.129314,0.297607 0.194524,0.508163 -0.212094,4.638994 -1.366469,13.881955 -0.730178,5.846461 -0.609396,6.720353 0.889231,6.433873 0.550222,-0.105182 1.064717,-0.08084 1.143323,0.05409 0.0786,0.134934 -0.01245,1.320853 -0.202357,2.635376 -0.31376,2.171885 -1.309421,10.307701 -1.840271,15.037344 l -0.212368,1.892116 h -1.941021 c -2.304637,0 -2.189269,0.853721 -1.130423,-8.365145 1.413658,-12.308029 1.371246,-11.551867 0.647929,-11.551867 -0.380384,0 -0.747754,0.451077 -0.892154,1.095436 -0.294076,1.312259 -3.907314,14.683994 -4.655315,17.228215 -0.509677,1.733595 -0.578816,1.792531 -2.102848,1.792531 H 9.7593358 L 9.503814,69.510373 C 9.363277,68.19585 9.2288372,63.953249 9.2050588,60.082371 9.1812805,56.211493 9.0530208,52.760871 8.9200374,52.414322 8.6487262,51.707296 7.5684645,51.547607 7.5684645,52.214526 c 0,0.841967 -2.0021743,18.108277 -2.2019107,18.988793 -0.1774548,0.78229 -0.4556234,0.896265 -2.1874211,0.896265 -1.1610438,0 -1.984112,-0.179323 -1.984112,-0.432283 z M 13.662016,57.26141 c 0.851379,-5.535522 0.852641,-5.477178 -0.118448,-5.477178 -0.729112,0 -0.79668,0.26556 -0.79668,3.131125 0,1.722119 -0.113992,3.962783 -0.253315,4.979253 -0.142858,1.042269 -0.09361,1.848128 0.112944,1.848128 0.201442,0 0.676417,-2.016597 1.055499,-4.481328 z M 5.9751035,50.849576 c 0,-2.5348 -0.5192616,-8.637369 -0.718032,-8.438598 -0.1097256,0.109725 -0.2777072,2.353222 -0.3732924,4.985548 -0.1517671,4.17952 -0.093629,4.786046 0.4587665,4.786046 0.4518319,0 0.6325579,-0.380846 0.6325579,-1.332996 z M 17.780545,47.385512 c 0.850588,-4.327824 0.902204,-5.254984 0.256606,-4.609386 -0.405016,0.405016 -2.420253,8.741387 -2.206778,9.128718 0.534046,0.968982 1.153754,-0.46713 1.950172,-4.519332 z M 35.417762,70.418716 C 34.000071,69.27474 33.85892,68.275101 33.85892,59.378884 v -8.789673 h -1.380631 -1.380632 l -0.113144,-9.798479 c -0.06223,-5.389163 -0.02352,-9.940904 0.08602,-10.11498 0.109544,-0.174076 1.00581,-0.380528 1.991702,-0.458782 l 1.792531,-0.142281 0.229762,10.157676 c 0.126369,5.586722 0.260809,10.202489 0.298755,10.257261 0.03795,0.05477 0.427499,0.09958 0.865673,0.09958 0.776639,0 0.796681,-0.26556 0.796681,-10.556016 0,-10.055879 0.03539,-10.556017 0.746888,-10.556017 0.410788,0 1.303983,-0.111419 1.984878,-0.247598 l 1.23799,-0.247598 0.106408,10.305689 0.106408,10.30569 1.394191,0.19917 1.394191,0.19917 0.128881,8.20824 c 0.149689,9.533535 -0.0656,10.514777 -2.569501,11.711084 -1.934177,0.924107 -5.298447,1.201462 -6.158214,0.507691 z m 4.44085,-4.340179 c 0.307495,-0.57456 0.381046,-2.69719 0.231199,-6.672199 -0.120868,-3.206266 -0.227866,-6.693494 -0.237774,-7.749396 -0.0165,-1.758811 -0.09318,-1.909146 -0.914279,-1.792531 -0.889705,0.126358 -0.897058,0.183493 -1.004487,7.80539 -0.103716,7.358412 0.122192,9.25136 1.104072,9.25136 0.203671,0 0.573242,-0.379181 0.821269,-0.842624 z M 57.97757,66.024896 C 57.892264,65.751037 57.439679,61.852282 56.971826,57.360995 55.81816,46.286065 55.97204,46.893124 54.365913,47.08063 52.829848,47.259957 53.02592,48.00608 51.9382,37.842323 c -0.363422,-3.39585 -0.822208,-6.379835 -1.019525,-6.631076 -0.197316,-0.251242 -0.689274,-0.370371 -1.093239,-0.264732 -0.59869,0.156561 -0.769829,-0.09039 -0.925673,-1.335728 -0.105156,-0.84029 -0.123516,-1.650039 -0.0408,-1.799443 0.176251,-0.318351 7.662378,-2.096088 7.883036,-1.871992 0.08228,0.08356 0.266961,0.780401 0.410399,1.548527 0.24073,1.289136 0.167058,1.431976 -0.9575,1.856449 -1.04741,0.395353 -1.191192,0.61851 -1.025065,1.590958 0.106277,0.622107 0.464498,3.640647 0.796047,6.707867 1.045399,9.671172 0.879179,9.07338 2.441422,8.780301 0.739053,-0.138647 1.35151,-0.109523 1.361015,0.06472 0.0095,0.174243 0.511847,4.57542 1.116316,9.780394 l 1.099033,9.463589 -1.41507,0.39311 c -1.869414,0.519329 -2.404449,0.498602 -2.591026,-0.100371 z M 75.1356,61.074451 C 74.945225,60.453848 74.028245,55.470613 72.046112,44.28493 71.613315,41.842544 71.56759,41.772904 70.562389,42.025193 c -1.923868,0.48286 -2.413742,0.359934 -2.176776,-0.546226 0.107166,-0.409804 -0.258851,-3.50192 -0.813371,-6.871369 -1.335206,-8.113159 -1.940391,-12.349631 -1.77893,-12.453036 1.606633,-1.028944 4.040408,-1.596046 5.392849,-1.256605 0.729264,0.183034 0.906243,0.474369 0.837357,1.378421 -0.04804,0.630485 0.106061,1.388258 0.34245,1.683941 0.236389,0.295684 0.552699,1.386917 0.702911,2.424963 0.150211,1.038047 0.531329,2.145575 0.846929,2.461174 0.315599,0.315599 0.573816,1.176104 0.573816,1.912234 0,0.73613 0.350711,2.026318 0.779359,2.867084 0.428647,0.840767 0.996761,2.500128 1.262477,3.68747 0.557298,2.490272 0.722856,2.661518 2.075805,2.147127 0.841512,-0.319942 1.096283,-0.229007 1.626788,0.580646 0.345958,0.527999 0.629015,1.267801 0.629015,1.644004 0,0.376202 0.985892,3.958669 2.190871,7.961037 1.204979,4.002367 2.190872,7.518804 2.190872,7.814303 0,0.577788 -2.565242,1.678921 -3.116943,1.337951 -0.183264,-0.113263 -0.55567,-1.200006 -0.827571,-2.414986 -0.41687,-1.862772 -0.632097,-2.209053 -1.373014,-2.209053 -0.483257,0 -1.254771,0.263446 -1.714475,0.585435 -0.79937,0.559901 -0.812195,0.685865 -0.294026,2.887967 0.720151,3.060489 0.706884,3.173706 -0.4046,3.452671 -0.527364,0.13236 -1.228183,0.344009 -1.557374,0.470332 -0.366837,0.140768 -0.684729,-0.05132 -0.821208,-0.496227 z m 4.277918,-10.477986 c 0.315277,-0.307674 -1.794248,-8.444126 -2.609625,-10.065345 -1.060144,-2.107889 -2.094279,0.466378 -1.262993,3.143963 0.330387,1.064181 0.642566,3.016381 0.693731,4.338221 0.05117,1.321841 0.236785,2.63595 0.412488,2.920244 0.329211,0.532674 2.095716,0.317428 2.766399,-0.337083 z m -5.521404,-9.89937 c 0,-0.72046 -0.779671,-0.588932 -0.934309,0.157615 -0.08604,0.415357 0.06329,0.597456 0.398341,0.485771 0.294782,-0.09826 0.535968,-0.387784 0.535968,-0.643386 z m 20.023025,12.392913 c -0.105554,-0.389546 -1.232022,-4.562208 -2.503262,-9.272581 -1.271241,-4.710373 -2.44829,-8.721025 -2.615666,-8.912559 -0.17225,-0.197112 -0.836035,-0.162886 -1.52952,0.07886 -0.67386,0.234909 -1.2252,0.344822 -1.2252,0.244251 0,-0.100571 -1.165145,-4.411744 -2.589212,-9.580384 -1.424066,-5.16864 -2.589211,-9.444379 -2.589211,-9.501641 0,-0.201222 3.635232,-1.489979 3.783788,-1.341423 0.08268,0.08268 1.526638,3.910791 3.208801,8.506919 4.571917,12.491724 4.987042,12.194407 1.402379,-1.0044 -1.27929,-4.710374 -2.249954,-8.693815 -2.15703,-8.852091 0.230389,-0.392422 3.277605,-1.283818 3.529071,-1.032352 0.110938,0.110938 1.274442,4.12804 2.585564,8.926892 2.981902,10.914091 2.859086,10.621034 4.232304,10.098938 0.589504,-0.224129 1.194035,-0.266406 1.343405,-0.09395 0.498677,0.575757 4.43555,15.72192 4.50726,17.340578 0.0672,1.517892 -0.005,1.622212 -1.4879,2.144743 -0.85722,0.302086 -1.63183,0.475998 -1.72136,0.386472 -0.168524,-0.168526 -5.591696,-14.240862 -5.963821,-15.475248 -0.115583,-0.383402 -0.380577,-0.697095 -0.588876,-0.697095 -0.208298,0 -0.287945,0.313693 -0.176992,0.697095 1.178002,4.070642 3.849953,14.169498 4.055891,15.32957 0.233709,1.316504 0.156175,1.52762 -0.675353,1.838925 -2.330786,0.872593 -2.629918,0.890644 -2.82506,0.170476 z m 19.806601,-7.39808 c -0.0908,-0.264171 -0.8927,-4.334252 -1.78206,-9.044625 -1.95057,-10.330907 -2.00422,-10.486128 -3.4361,-9.941726 -0.58421,0.222117 -1.13592,0.330132 -1.22602,0.240033 -0.0901,-0.0901 -0.83922,-3.635363 -1.6647,-7.878365 -1.46784,-7.544688 -1.52352,-7.717237 -2.52876,-7.836678 -0.6616,-0.07861 -1.11136,-0.433467 -1.26217,-0.99585 -0.53696,-2.0024337 -0.37689,-2.1583308 3.56422,-3.4713147 2.09517,-0.698005 3.87171,-1.2057329 3.94788,-1.1282843 0.0762,0.077449 0.26349,0.8100763 0.41629,1.6280616 0.25256,1.352134 0.18341,1.5231317 -0.76116,1.8822569 -0.57143,0.217256 -1.03896,0.4985094 -1.03896,0.6250075 0,0.241262 2.65782,14.061854 3.00764,15.639625 0.17757,0.800883 0.3687,0.880915 1.56698,0.656117 1.20574,-0.226199 1.38957,-0.146836 1.5779,0.681217 0.49396,2.171828 3.40765,17.35045 3.40765,17.751842 0,0.670331 -3.58078,1.797581 -3.78863,1.192683 z m 13.58409,-5.559148 c -0.1931,-1.542994 -1.03198,-15.8279 -1.03198,-17.573124 0,-0.629523 -0.20751,-0.700676 -1.39419,-0.478054 -0.7668,0.143853 -1.40031,0.208616 -1.40779,0.143917 -0.30874,-2.670829 -1.03936,-19.7113269 -0.85249,-19.8828961 0.25315,-0.2324152 7.0451,-1.54594241 7.99373,-1.54594241 0.24741,0 0.44083,0.68669641 0.44083,1.56511951 v 1.5651196 l -2.23417,0.4638118 -2.23417,0.4638119 0.27087,6.0374587 c 0.3536,7.881441 0.23798,7.557905 2.58546,7.235044 1.8896,-0.259886 1.90012,-0.254933 2.15378,1.013364 0.36041,1.802039 0.34628,1.85481 -0.55996,2.091798 -0.78276,0.204696 -0.80424,0.398816 -0.54509,4.926127 0.14838,2.592169 0.38063,6.236685 0.51612,8.098926 0.27121,3.727858 0.0454,3.508162 3.23388,3.145937 1.3842,-0.15725 1.39507,-0.14625 1.51668,1.534561 0.0674,0.93112 0.0674,1.693191 0,1.693491 -0.0674,2.99e-4 -1.64614,0.268934 -3.50838,0.596965 -4.80594,0.846562 -4.69708,0.870686 -4.94313,-1.095435 z"
       id="path1" />
  </g>
</svg>
