<?xml version="1.0" encoding="UTF-8" standalone="no"?>
<!-- Created with Inkscape (http://www.inkscape.org/) -->

<svg
   width="7.7950697mm"
   height="7.8103123mm"
   viewBox="0 0 7.7950697 7.8103125"
   version="1.1"
   id="svg1"
   inkscape:version="1.3.2 (091e20ef0f, 2023-11-25, custom)"
   sodipodi:docname="LLAMITA_PL.svg"
   xmlns:inkscape="http://www.inkscape.org/namespaces/inkscape"
   xmlns:sodipodi="http://sodipodi.sourceforge.net/DTD/sodipodi-0.dtd"
   xmlns:xlink="http://www.w3.org/1999/xlink"
   xmlns="http://www.w3.org/2000/svg"
   xmlns:svg="http://www.w3.org/2000/svg">
  <sodipodi:namedview
     id="namedview1"
     pagecolor="#404040"
     bordercolor="#000000"
     borderopacity="0.25"
     inkscape:showpageshadow="2"
     inkscape:pageopacity="0.0"
     inkscape:pagecheckerboard="true"
     inkscape:deskcolor="#313131"
     inkscape:document-units="mm"
     inkscape:zoom="44.644261"
     inkscape:cx="19.39779"
     inkscape:cy="14.817134"
     inkscape:window-width="1920"
     inkscape:window-height="1017"
     inkscape:window-x="0"
     inkscape:window-y="0"
     inkscape:window-maximized="1"
     inkscape:current-layer="g62" />
  <defs
     id="defs1">
    <linearGradient
       id="linearGradient1"
       inkscape:collect="always">
      <stop
         style="stop-color:#ff00ff;stop-opacity:0.99215698;"
         offset="0"
         id="stop1" />
      <stop
         style="stop-color:#b100ff;stop-opacity:1;"
         offset="1"
         id="stop2" />
    </linearGradient>
    <rect
       x="871.8587"
       y="2406.4612"
       width="327.37936"
       height="53.751522"
       id="rect587-9-9" />
    <clipPath
       clipPathUnits="userSpaceOnUse"
       id="clipPath54-4">
      <path
         d="m 266.473,116.234 h 904.988 V 626.289 H 266.473 Z"
         transform="matrix(1.3333333,0,0,1.3333333,3874.6667,0)"
         id="path54-0" />
    </clipPath>
    <clipPath
       clipPathUnits="userSpaceOnUse"
       id="clipPath52-9">
      <path
         d="M 0,0 H 1438 V 729 H 0 Z"
         transform="matrix(1.3333333,0,0,1.3333333,3874.6667,0)"
         id="path52-1" />
    </clipPath>
    <linearGradient
       inkscape:collect="always"
       xlink:href="#linearGradient1"
       id="linearGradient2"
       x1="-10896.725"
       y1="2827.8413"
       x2="-10849.366"
       y2="2760.9138"
       gradientUnits="userSpaceOnUse" />
  </defs>
  <g
     inkscape:label="Capa 1"
     inkscape:groupmode="layer"
     id="layer1"
     transform="translate(-6.1366992,-130.49232)">
    <g
       id="g62"
       style="display:inline"
       transform="matrix(0.03805117,0,0,0.03805117,424.24032,27.273384)"
       inkscape:export-filename="img/I1.png"
       inkscape:export-xdpi="96.133537"
       inkscape:export-ydpi="96.133537">
      <path
         id="path56"
         d="m -10884.925,2760.9182 c -0.02,0.013 -0.165,0.5906 -0.342,1.257 -1.063,4.1554 -3.104,9.0658 -4.969,11.9427 -1.156,1.7678 -2.21,2.9945 -3.632,4.2019 -2.552,2.1555 -6.792,6.7915 -7.522,8.2419 -0.135,0.2624 -0.666,1.5906 -1.202,2.9113 -0.489,1.3284 -1.135,2.877 -1.391,3.4676 -0.452,0.932 -1.076,1.7884 -1.253,1.8089 -0.33,-0.033 -0.911,-1.8974 -1.241,-4.0367 -0.704,-4.6102 -0.683,-7.3823 0.08,-12.3466 0.177,-1.0886 0.285,-2.1684 0.252,-2.3628 -0.08,-0.4471 -0.519,-0.8693 -0.898,-0.7678 -0.709,0.1684 -1.928,1.9157 -5.037,7.1586 -1.063,1.8434 -2.78,4.7041 -3.8,6.3953 -2.211,3.6954 -3.22,5.5053 -4.658,8.3186 -3.979,7.8973 -6.366,15.3551 -7.36,22.9102 -0.255,2.1133 -0.385,7.488 -0.225,9.365 0.726,7.5798 2.544,14.6294 6.699,20.7039 2.991,4.3996 7.77,8.082 12.77,11.798 1.458,1.0886 10.819,7.7581 24.757,7.7289 14.266,-0.034 20.375,-5.2646 24.77,-7.906 3.207,-1.9827 5.413,-3.6868 8.175,-6.5259 4.054,-4.0918 12.153,-12.0097 12.125,-29.4188 -0.02,-13.0939 -4.911,-24.3951 -11.386,-32.8109 -1.235,-1.6155 -1.785,-2.4762 -3.338,-5.1965 -1.151,-2.054 -1.387,-2.2992 -1.885,-2.2904 -0.73,0.063 -0.767,0.312 -1.324,5.7742 -0.612,6.3574 -1.907,3.4384 -2.215,3.0626 -0.283,-0.312 -0.172,-2.0249 -2.51,-5.3823 -2.172,-2.1803 -1.535,-1.1771 -3.358,-2.8218 -1.261,-1.1392 -2.565,-2.0129 -5.302,-3.5475 -2.687,-1.5269 -2.91,-1.6835 -3.805,-2.7547 -0.938,-1.0843 -1.687,-2.2819 -2.405,-3.7463 -0.699,-1.4632 -1.117,-2.7796 -1.505,-4.703 -0.591,-3.0421 -1.983,-5.5691 -4.442,-8.1587 -0.831,-0.8855 -2.431,-2.2742 -2.603,-2.2742 0,0 -0.01,0 -0.01,0"
         style="display:inline;fill:url(#linearGradient2);fill-opacity:0.992157;stroke:none;stroke-width:1.07991" />
      <g
         id="g58"
         clip-path="url(#clipPath54-4)"
         transform="matrix(0.80993103,0,0,0.80993103,-14800.076,2455.2751)"
         style="fill:#ffffff;fill-opacity:0.991612" />
    </g>
  </g>
</svg>
