<?xml version="1.0" encoding="UTF-8" standalone="no"?>
<!-- Created with Inkscape (http://www.inkscape.org/) -->

<svg
   width="7.7950697mm"
   height="7.8103123mm"
   viewBox="0 0 7.7950697 7.8103125"
   version="1.1"
   id="svg1"
   inkscape:version="1.3.2 (091e20ef0f, 2023-11-25)"
   sodipodi:docname="LLAMITA.svg"
   xmlns:inkscape="http://www.inkscape.org/namespaces/inkscape"
   xmlns:sodipodi="http://sodipodi.sourceforge.net/DTD/sodipodi-0.dtd"
   xmlns="http://www.w3.org/2000/svg"
   xmlns:svg="http://www.w3.org/2000/svg">
  <sodipodi:namedview
     id="namedview1"
     pagecolor="#404040"
     bordercolor="#000000"
     borderopacity="0.25"
     inkscape:showpageshadow="2"
     inkscape:pageopacity="0.0"
     inkscape:pagecheckerboard="true"
     inkscape:deskcolor="#313131"
     inkscape:document-units="mm"
     inkscape:zoom="8.7054905"
     inkscape:cx="46.177754"
     inkscape:cy="14.358754"
     inkscape:window-width="1920"
     inkscape:window-height="1012"
     inkscape:window-x="0"
     inkscape:window-y="32"
     inkscape:window-maximized="1"
     inkscape:current-layer="layer1" />
  <defs
     id="defs1">
    <rect
       x="871.8587"
       y="2406.4612"
       width="327.37936"
       height="53.751522"
       id="rect587-9-9" />
    <clipPath
       clipPathUnits="userSpaceOnUse"
       id="clipPath54-4">
      <path
         d="m 266.473,116.234 h 904.988 V 626.289 H 266.473 Z"
         transform="matrix(1.3333333,0,0,1.3333333,3874.6667,0)"
         id="path54-0" />
    </clipPath>
    <clipPath
       clipPathUnits="userSpaceOnUse"
       id="clipPath52-9">
      <path
         d="M 0,0 H 1438 V 729 H 0 Z"
         transform="matrix(1.3333333,0,0,1.3333333,3874.6667,0)"
         id="path52-1" />
    </clipPath>
  </defs>
  <g
     inkscape:label="Capa 1"
     inkscape:groupmode="layer"
     id="layer1"
     transform="translate(-6.1366992,-130.49232)">
    <g
       id="g62"
       style="display:inline"
       transform="matrix(0.03805117,0,0,0.03805117,424.24032,27.273384)"
       inkscape:export-filename="img/I1.png"
       inkscape:export-xdpi="96.133537"
       inkscape:export-ydpi="96.133537">
      <path
         id="path56"
         d="m -10886.911,2760.9183 c -0.02,0.013 -0.165,0.5906 -0.342,1.257 -1.063,4.1554 -3.104,9.0658 -4.969,11.9427 -1.156,1.7678 -2.21,2.9945 -3.632,4.2019 -2.552,2.1555 -6.792,6.7915 -7.522,8.2419 -0.135,0.2624 -0.666,1.5906 -1.202,2.9113 -0.489,1.3284 -1.135,2.877 -1.391,3.4676 -0.452,0.932 -1.076,1.7884 -1.253,1.8089 -0.33,-0.033 -0.911,-1.8974 -1.241,-4.0367 -0.704,-4.6102 -0.683,-7.3823 0.08,-12.3466 0.177,-1.0886 0.285,-2.1684 0.252,-2.3628 -0.08,-0.4471 -0.519,-0.8693 -0.898,-0.7678 -0.709,0.1684 -1.928,1.9157 -5.037,7.1586 -1.063,1.8434 -2.78,4.7041 -3.8,6.3953 -2.211,3.6954 -3.22,5.5053 -4.658,8.3186 -3.979,7.8973 -6.366,15.3551 -7.36,22.9102 -0.255,2.1133 -0.385,7.488 -0.225,9.365 0.726,7.5798 2.544,14.6294 6.699,20.7039 2.991,4.3996 7.77,8.082 12.77,11.798 1.458,1.0886 10.819,7.7581 24.757,7.7289 14.266,-0.034 20.375,-5.2646 24.77,-7.906 3.207,-1.9827 5.413,-3.6868 8.175,-6.5259 4.054,-4.0918 12.153,-12.0097 12.125,-29.4188 -0.02,-13.0939 -4.911,-24.3951 -11.386,-32.8109 -1.235,-1.6155 -1.785,-2.4762 -3.338,-5.1965 -1.151,-2.054 -1.387,-2.2992 -1.885,-2.2904 -0.73,0.063 -0.767,0.312 -1.324,5.7742 -0.612,6.3574 -1.907,3.4384 -2.215,3.0626 -0.283,-0.312 -0.172,-2.0249 -2.51,-5.3823 -2.172,-2.1803 -1.535,-1.1771 -3.358,-2.8218 -1.261,-1.1392 -2.565,-2.0129 -5.302,-3.5475 -2.687,-1.5269 -2.91,-1.6835 -3.805,-2.7547 -0.938,-1.0843 -1.687,-2.2819 -2.405,-3.7463 -0.699,-1.4632 -1.117,-2.7796 -1.505,-4.703 -0.591,-3.0421 -1.983,-5.5691 -4.442,-8.1587 -0.831,-0.8855 -2.431,-2.2742 -2.603,-2.2742 0,0 -0.01,0 -0.01,0"
         style="display:inline;fill:#ffffff;fill-opacity:0.991612;stroke:none;stroke-width:1.07991" />
      <g
         id="g58"
         clip-path="url(#clipPath54-4)"
         transform="matrix(0.80993103,0,0,0.80993103,-14800.076,2455.2751)"
         style="fill:#ffffff;fill-opacity:0.991612">
        <g
           clip-path="url(#clipPath52-9)"
           id="g57"
           style="fill:#ffffff;fill-opacity:0.991612">
          <path
             style="color:#000000;fill:#ffffff;fill-opacity:0.991612;stroke-miterlimit:10;-inkscape-stroke:none"
             d="m 717.44336,-428.34375 c -9.3414,0.28157 -18.79729,1.9579 -28.0918,5.16211 -49.57071,17.09016 -75.94858,71.22916 -58.85742,120.80078 17.09012,49.57057 71.22623,75.94848 120.79688,58.85938 49.57518,-17.09407 75.95526,-71.22918 58.86523,-120.80469 -13.88996,-40.2728 -52.23351,-65.23773 -92.71289,-64.01758 z m 0.23828,7.03516 c 37.49127,-1.15361 72.92834,21.93795 85.80859,59.2832 15.84669,45.9719 -8.52592,95.98424 -54.49804,111.83594 -45.96727,15.84686 -95.98223,-8.5229 -111.83008,-54.49024 -15.84881,-45.96828 8.52109,-95.98618 54.48828,-111.83398 8.61885,-2.97129 17.37942,-4.52871 26.03125,-4.79492 z"
             id="path57"
             transform="matrix(1.3307213,0,0,-1.3333333,3874.6667,0)" />
        </g>
      </g>
    </g>
  </g>
</svg>
